<?xml version="1.0" standalone="no"?>
<!DOCTYPE svg PUBLIC "-//W3C//DTD SVG 1.1//EN" "http://www.w3.org/Graphics/SVG/1.1/DTD/svg11.dtd" >
<svg xmlns="http://www.w3.org/2000/svg" xmlns:xlink="http://www.w3.org/1999/xlink" version="1.1">
<metadata>
Created by FontForge 20170731 at Mon Aug  7 18:13:07 2017
 By Aleksey,,,
copyright missing
</metadata>
<defs>
<font id="gpbMtavruliRegular" horiz-adv-x="314" >
  <font-face 
    font-family="r"
    font-weight="400"
    font-stretch="normal"
    units-per-em="1000"
    panose-1="0 0 5 0 0 0 0 0 0 0"
    ascent="770"
    descent="-230"
    x-height="505"
    cap-height="705"
    bbox="-508 -243 1120 976"
    underline-thickness="50"
    underline-position="-350"
    unicode-range="U+0020-2265"
  />
<missing-glyph horiz-adv-x="500" 
d="M410 -230h-317v1000h317v-1000zM168 703v-33h65v-37h-66v-33h166v33h-66v37h66v33h-165zM167 574v-104h166v34h-66v70h-100zM233 504h-33v36h33v-36zM167 443v-33h66v-37h-66v-33h100v70h66v33h-166zM300 383v-66h-133v-34h166v100h-33zM233 261v-56h34v23h33v-47h-100
v80h-33v-113h166v113h-100zM167 88v-113h166v113h-166zM300 8h-100v47h100v-47zM167 -48v-33h70l-70 -47v-33h166v33h-102l70 47h32v33h-166z" />
    <glyph glyph-name=".notdef" horiz-adv-x="500" 
d="M410 -230h-317v1000h317v-1000zM168 703v-33h65v-37h-66v-33h166v33h-66v37h66v33h-165zM167 574v-104h166v34h-66v70h-100zM233 504h-33v36h33v-36zM167 443v-33h66v-37h-66v-33h100v70h66v33h-166zM300 383v-66h-133v-34h166v100h-33zM233 261v-56h34v23h33v-47h-100
v80h-33v-113h166v113h-100zM167 88v-113h166v113h-166zM300 8h-100v47h100v-47zM167 -48v-33h70l-70 -47v-33h166v33h-102l70 47h32v33h-166z" />
    <glyph glyph-name=".null" horiz-adv-x="0" 
 />
    <glyph glyph-name="nonmarkingreturn" horiz-adv-x="333" 
 />
    <glyph glyph-name="space" unicode=" " horiz-adv-x="240" 
 />
    <glyph glyph-name="exclam" unicode="!" horiz-adv-x="269" 
d="M178 483l-11 -275h-66l-11 274v223h88v-222zM89 106h91v-106h-91v106z" />
    <glyph glyph-name="quotedbl" unicode="&#x22;" horiz-adv-x="342" 
d="M125 560h-65l-12 210h89zM281 560h-65l-12 210h89z" />
    <glyph glyph-name="numbersign" unicode="#" horiz-adv-x="707" 
d="M560 443l-32 -180h105v-80h-120l-33 -183h-83l33 183h-213l-33 -183h-82l33 183h-97v80h111l33 180h-109v80h123l33 182h83l-33 -182h213l33 182h83l-33 -182h93v-80h-108zM477 443h-213l-32 -180h213z" />
    <glyph glyph-name="dollar" unicode="$" horiz-adv-x="621" 
d="M563 196q1 -83 -54 -139.5t-157 -67.5v-89h-85v89q-106 10 -164.5 67t-58.5 145v27h88v-32q0 -57 48 -91.5t128 -34.5q76 0 121.5 32.5t45.5 89.5q0 50 -42.5 80t-103.5 46t-122.5 34.5t-104 61t-42.5 111.5q0 79 52 131.5t155 60.5v88h85v-90q96 -12 146 -65t50 -135
v-31h-87v34q0 52 -43 84t-118 32q-72 0 -112 -29t-40 -78q0 -32 23 -54.5t59.5 -36t80.5 -25.5t88.5 -27.5t81 -37t59.5 -60t23 -90.5z" />
    <glyph glyph-name="percent" unicode="%" horiz-adv-x="695" 
d="M178 359q-66 0 -104.5 30.5t-38.5 81.5v134q0 52 38 82.5t104 30.5q67 0 105.5 -30.5t38.5 -82.5v-134q0 -51 -38.5 -81.5t-104.5 -30.5zM530 705h70l-433 -705h-70zM178 416q82 0 82 65v115q0 64 -82 64t-82 -64v-115q0 -65 82 -65zM517 -13q-66 0 -104.5 30.5
t-38.5 81.5v134q0 52 38 82.5t104 30.5q67 0 105.5 -30.5t38.5 -82.5v-134q0 -51 -38.5 -81.5t-104.5 -30.5zM517 45q82 0 82 64v115q0 65 -81 65q-83 0 -83 -65v-115q0 -64 82 -64z" />
    <glyph glyph-name="ampersand" unicode="&#x26;" horiz-adv-x="647" 
d="M630 322h-82v-140q0 -80 -50 -131t-125 -51h-128q-77 0 -127.5 49t-50.5 126v53q0 84 61 134q-59 49 -59 128v50q0 72 50.5 118.5t125.5 46.5h212v-81h-212q-40 0 -64 -22.5t-24 -61.5v-50q0 -41 24 -64.5t64 -23.5h215v103h88v-103h82v-80zM460 322h-215
q-41 0 -65.5 -25t-24.5 -69v-53q0 -44 24.5 -69t65.5 -25h128q40 0 63.5 26t23.5 72v143z" />
    <glyph glyph-name="quotesingle" unicode="'" horiz-adv-x="186" 
d="M125 560h-65l-12 210h89z" />
    <glyph glyph-name="parenleft" unicode="(" horiz-adv-x="295" 
d="M283 -165q-103 0 -159 55t-56 160v505q0 106 55.5 160.5t159.5 54.5v-81q-67 0 -99 -33.5t-32 -105.5v-495q0 -72 31.5 -105.5t99.5 -33.5v-81z" />
    <glyph glyph-name="parenright" unicode=")" horiz-adv-x="296" 
d="M12 -84q68 0 100 33.5t32 105.5v495q0 72 -32 105.5t-100 33.5v81q104 0 160 -55t56 -160v-505q0 -105 -56 -160t-160 -55v81z" />
    <glyph glyph-name="asterisk" unicode="*" horiz-adv-x="334" 
d="M207 617l68 -77l-55 -43l-53 91l-54 -91l-54 43l68 77l-101 23l21 69l95 -42l-9 103h67l-9 -103l95 42l21 -69z" />
    <glyph glyph-name="plus" unicode="+" horiz-adv-x="507" 
d="M454 323h-158v-175h-84v175h-160v84h160v176h84v-176h158v-84z" />
    <glyph glyph-name="comma" unicode="," horiz-adv-x="225" 
d="M158 0l-52 -144h-37l33 144h-35v106h91v-106z" />
    <glyph glyph-name="hyphen" unicode="-" horiz-adv-x="341" 
d="M53 315h235v-77h-235v77z" />
    <glyph glyph-name="period" unicode="." horiz-adv-x="225" 
d="M67 106h90v-106h-90v106z" />
    <glyph glyph-name="slash" unicode="/" horiz-adv-x="353" 
d="M324 743l-211 -793h-84l211 793h84z" />
    <glyph glyph-name="zero" unicode="0" horiz-adv-x="624" 
d="M313 -13q-118 0 -183.5 59.5t-65.5 163.5v282q0 105 65 165.5t183 60.5t183 -60.5t65 -165.5v-282q0 -104 -65 -163.5t-182 -59.5zM312 71q160 0 160 147v267q0 149 -159 149q-161 0 -161 -149v-267q0 -147 160 -147z" />
    <glyph glyph-name="one" unicode="1" horiz-adv-x="447" 
d="M419 84v-84h-375v84h143v538h-143v83h231v-621h144z" />
    <glyph glyph-name="two" unicode="2" horiz-adv-x="589" 
d="M534 494q0 -64 -38 -114t-93 -82.5t-110 -62t-95.5 -67.5t-44.5 -84h378v-84h-473v48q0 52 21.5 95t56 73t76 56.5t82.5 50.5t75.5 48.5t56 57t21.5 70.5v28q0 48 -39 77.5t-106 29.5q-73 0 -111 -36.5t-38 -105.5v-25h-88v25q0 104 64 165t175 61q103 0 166.5 -53
t63.5 -137v-34z" />
    <glyph glyph-name="three" unicode="3" horiz-adv-x="592" 
d="M461 360q67 -48 67 -133v-49q0 -88 -64.5 -139.5t-169.5 -51.5q-103 0 -166.5 54t-63.5 143v42h88v-42q0 -54 38 -83.5t105 -29.5q69 0 107 27.5t38 79.5v45q0 96 -119 96h-125v81h125q117 0 117 91v41q0 50 -38 76t-105 26t-105 -29t-38 -83v-39h-88v39q0 89 63.5 142.5
t166.5 53.5t167 -50.5t64 -135.5v-45q0 -82 -64 -127z" />
    <glyph glyph-name="four" unicode="4" horiz-adv-x="554" 
d="M483 440v-440h-88v159h-353v84l221 462h96l-221 -462h257v197h88z" />
    <glyph glyph-name="five" unicode="5" horiz-adv-x="575" 
d="M309 437q94 0 150 -50.5t56 -134.5v-67q0 -90 -62 -144t-165 -54q-101 0 -162.5 54t-61.5 144v64h88v-66q0 -55 35.5 -84.5t100.5 -29.5q67 0 103.5 29.5t36.5 84.5v71q0 49 -32 75t-91 26h-219v350h407v-83h-319v-185h135z" />
    <glyph glyph-name="six" unicode="6" horiz-adv-x="599" 
d="M309 447q108 0 167 -50.5t59 -140.5v-65q0 -94 -61.5 -149t-171.5 -55q-113 0 -175.5 59t-62.5 161v284q0 104 64.5 165.5t172.5 61.5q100 0 164 -52t64 -140h-87q0 54 -37.5 82t-102.5 28q-74 0 -112 -37.5t-38 -110.5v-95q62 54 157 54zM447 254q0 115 -148 115
q-65 0 -103.5 -25t-43.5 -73v-66q0 -136 150 -136q145 0 145 127v58z" />
    <glyph glyph-name="seven" unicode="7" horiz-adv-x="518" 
d="M482 705v-83l-305 -622h-96l303 622h-347v83h445z" />
    <glyph glyph-name="eight" unicode="8" horiz-adv-x="608" 
d="M462 362q81 -45 81 -132v-67q0 -80 -65.5 -128t-173.5 -48t-174 48.5t-66 127.5v67q0 88 81 132q-78 45 -78 129v48q0 81 65 130t172 49t171.5 -49t64.5 -130v-48q0 -84 -78 -129zM155 493q0 -46 38 -71t111 -25q72 0 110 25t38 71v40q0 51 -38.5 79t-109.5 28t-110 -28
t-39 -79v-40zM456 228q0 47 -39 73t-113 26t-113 -26t-39 -73v-60q0 -49 40 -75.5t112 -26.5t112 26.5t40 75.5v60z" />
    <glyph glyph-name="nine" unicode="9" horiz-adv-x="599" 
d="M297 718q112 0 174.5 -59t62.5 -161v-284q0 -105 -64 -166t-172 -61q-100 0 -164 52t-64 140h87q0 -53 38 -81.5t102 -28.5q73 0 111.5 37.5t38.5 110.5v92q-60 -54 -158 -54q-107 0 -166 50.5t-59 140.5v69q0 94 61.5 148.5t171.5 54.5zM300 333q64 0 103 25.5t44 72.5
v69q0 137 -150 137q-145 0 -145 -127v-62q0 -115 148 -115z" />
    <glyph glyph-name="colon" unicode=":" horiz-adv-x="245" 
d="M77 505h91v-106h-91v106zM77 106h91v-106h-91v106z" />
    <glyph glyph-name="semicolon" unicode=";" horiz-adv-x="243" 
d="M84 505h90v-106h-90v106zM174 0l-51 -144h-38l33 144h-34v106h90v-106z" />
    <glyph glyph-name="less" unicode="&#x3c;" horiz-adv-x="419" 
d="M187 365l178 -147l-46 -64l-267 211l267 211l47 -64z" />
    <glyph glyph-name="equal" unicode="=" horiz-adv-x="502" 
d="M47 518h400v-84h-400v84zM47 296h400v-84h-400v84z" />
    <glyph glyph-name="greater" unicode="&#x3e;" horiz-adv-x="419" 
d="M367 365l-267 -211l-46 64l178 147l-179 147l47 64z" />
    <glyph glyph-name="question" unicode="?" horiz-adv-x="637" 
d="M257 232q0 54 23.5 89.5t57.5 53.5t68 34.5t57.5 43t23.5 66.5q0 115 -165 115q-180 0 -180 -149v-24h-85v28q0 107 67 168t194 61t192 -53.5t65 -147.5q0 -59 -24 -97.5t-58 -57.5t-68 -35t-58 -42.5t-24 -66.5v-10h-86v24zM255 106h90v-106h-90v106z" />
    <glyph glyph-name="at" unicode="@" horiz-adv-x="801" 
d="M402 603q156 0 249.5 -66t93.5 -180v-177q0 -78 -38 -120.5t-113 -42.5q-67 0 -96 57q-41 -57 -121 -57q-74 0 -114 45t-40 134v87q0 89 40 134.5t114 45.5t115 -50l10 37h57v-291q0 -42 8.5 -59t32.5 -17q61 0 61 81v198q0 79 -67 120t-191 41q-127 0 -196 -55t-69 -152
v-161q0 -93 66 -144.5t188 -51.5q60 0 109 11l8 -80q-62 -13 -119 -13q-157 0 -247 75t-90 205v157q0 135 94.5 212t254.5 77zM389 97q79 0 91 67v151q-11 67 -91 67q-87 0 -87 -100v-84q0 -101 87 -101z" />
    <glyph glyph-name="A" unicode="A" horiz-adv-x="616" 
d="M444 184h-274l-62 -184h-86l225 705h121l226 -705h-87zM198 268h219l-110 345z" />
    <glyph glyph-name="B" unicode="B" horiz-adv-x="625" 
d="M483 373q42 -20 65.5 -57.5t23.5 -84.5v-53q0 -81 -55 -129.5t-144 -48.5h-297v705h273q91 0 145.5 -42t54.5 -119v-47q0 -82 -66 -124zM164 624v-219h187q110 0 110 93v43q0 83 -110 83h-187zM484 229q0 46 -28.5 71t-80.5 25h-211v-244h210q53 0 81.5 25.5t28.5 71.5
v51z" />
    <glyph glyph-name="C" unicode="C" horiz-adv-x="649" 
d="M325 -12q-129 0 -197.5 59.5t-68.5 163.5v284q0 105 68.5 164t196.5 59q129 0 197.5 -59.5t68.5 -163.5v-47h-91v40q0 146 -174 146q-178 0 -178 -146v-270q0 -146 177 -146q175 0 175 146v40h91v-47q0 -105 -68.5 -164t-196.5 -59z" />
    <glyph glyph-name="D" unicode="D" horiz-adv-x="645" 
d="M328 705q124 0 191 -58.5t67 -162.5v-263q0 -104 -67 -162.5t-190 -58.5h-253v705h252zM498 477q0 145 -164 145h-170v-538h169q165 0 165 145v248z" />
    <glyph glyph-name="E" unicode="E" horiz-adv-x="560" 
d="M164 622v-233h298v-84h-298v-221h343v-84h-431v705h431v-83h-343z" />
    <glyph glyph-name="F" unicode="F" horiz-adv-x="546" 
d="M164 622v-254h308v-84h-308v-284h-88v705h431v-83h-343z" />
    <glyph glyph-name="G" unicode="G" horiz-adv-x="649" 
d="M502 459v29q0 146 -177 146q-178 0 -178 -146v-270q0 -147 177 -147q178 0 178 147v69h-188v83h276v-159q0 -105 -68.5 -164.5t-196.5 -59.5t-197 59.5t-69 164.5v284q0 105 68.5 164t196.5 59q129 0 197.5 -59.5t68.5 -163.5v-36h-88z" />
    <glyph glyph-name="H" unicode="H" horiz-adv-x="659" 
d="M583 705v-705h-88v305h-331v-305h-88v705h88v-316h331v316h88z" />
    <glyph glyph-name="I" unicode="I" horiz-adv-x="240" 
d="M76 705h88v-705h-88v705z" />
    <glyph glyph-name="J" unicode="J" horiz-adv-x="368" 
d="M14 84h55q66 0 100.5 38t34.5 106v477h88v-481q0 -100 -61.5 -162t-165.5 -62h-51v84z" />
    <glyph glyph-name="K" unicode="K" horiz-adv-x="601" 
d="M466 0l-302 341v-341h-88v705h88v-320l290 320h110l-298 -343l310 -362h-110z" />
    <glyph glyph-name="L" unicode="L" horiz-adv-x="540" 
d="M510 84v-84h-434v705h88v-621h346z" />
    <glyph glyph-name="M" unicode="M" horiz-adv-x="760" 
d="M684 0h-80v568l-191 -568h-66l-191 571v-571h-80v705h107l197 -545l197 545h107v-705z" />
    <glyph glyph-name="N" unicode="N" horiz-adv-x="635" 
d="M559 705v-705h-82l-319 543v-543h-82v705h82l319 -544v544h82z" />
    <glyph glyph-name="O" unicode="O" horiz-adv-x="652" 
d="M327 -13q-131 0 -199.5 59t-68.5 164v282q0 106 68.5 166t198.5 60q131 0 199 -60t68 -166v-282q0 -105 -68 -164t-198 -59zM326 71q94 0 136.5 37t42.5 110v267q0 74 -42 111.5t-136 37.5t-137 -37.5t-43 -111.5v-267q0 -73 42.5 -110t136.5 -37z" />
    <glyph glyph-name="P" unicode="P" horiz-adv-x="622" 
d="M352 705q103 0 159.5 -49t56.5 -137v-77q0 -87 -56.5 -136.5t-158.5 -49.5h-189v-256h-88v705h276zM481 519q0 103 -123 103h-194v-282h193q124 0 124 102v77z" />
    <glyph glyph-name="Q" unicode="Q" horiz-adv-x="659" 
d="M563 -149l-235 136h-1q-131 0 -199.5 59t-68.5 164v282q0 106 68.5 166t198.5 60q131 0 199 -60t68 -166v-282q0 -151 -134 -202l145 -83zM147 218q0 -73 42.5 -110t136.5 -37t136.5 37t42.5 110v267q0 74 -42 111.5t-136 37.5t-137 -37.5t-43 -111.5v-267z" />
    <glyph glyph-name="R" unicode="R" horiz-adv-x="623" 
d="M486 0l-128 293h-194v-293h-88v705h276q103 0 159.5 -49t56.5 -136v-41q0 -131 -120 -172l130 -307h-92zM164 377h193q124 0 124 102v41q0 102 -123 102h-194v-245z" />
    <glyph glyph-name="S" unicode="S" horiz-adv-x="618" 
d="M311 -13q-123 0 -192.5 59t-69.5 155v27h88v-32q0 -57 48 -91.5t128 -34.5q76 0 121.5 32.5t45.5 89.5q0 50 -42.5 80t-103.5 46t-122.5 34.5t-104 61t-42.5 111.5q0 85 60.5 139t179.5 54q121 0 184.5 -55.5t63.5 -147.5v-31h-87v34q0 52 -43 84t-118 32q-72 0 -112 -29
t-40 -78q0 -32 23 -54.5t59.5 -36t80.5 -25.5t88.5 -27.5t81 -37t59.5 -60t23 -90.5q1 -92 -66.5 -150.5t-190.5 -58.5z" />
    <glyph glyph-name="T" unicode="T" horiz-adv-x="555" 
d="M542 622h-221v-622h-88v622h-221v83h530v-83z" />
    <glyph glyph-name="U" unicode="U" horiz-adv-x="634" 
d="M317 -13q-125 0 -191.5 59.5t-66.5 163.5v495h88v-487q0 -147 170 -147t170 147v487h88v-495q0 -104 -66.5 -163.5t-191.5 -59.5z" />
    <glyph glyph-name="V" unicode="V" horiz-adv-x="598" 
d="M576 706l-216 -705h-122l-216 705h89l188 -593l188 593h89z" />
    <glyph glyph-name="W" unicode="W" horiz-adv-x="891" 
d="M869 706l-174 -706h-112l-137 534l-138 -534h-112l-174 706h91l143 -608l149 608h78l154 -609l141 609h91z" />
    <glyph glyph-name="X" unicode="X" horiz-adv-x="601" 
d="M472 0l-174 278l-178 -278h-96l223 360l-216 345h102l169 -270l172 270h99l-220 -352l221 -353h-102z" />
    <glyph glyph-name="Y" unicode="Y" horiz-adv-x="579" 
d="M333 263v-263h-88v262l-223 444h96l172 -341l172 341h95z" />
    <glyph glyph-name="Z" unicode="Z" horiz-adv-x="579" 
d="M539 84v-84h-499v88l389 534h-372v83h475v-88l-388 -533h395z" />
    <glyph glyph-name="bracketleft" unicode="[" horiz-adv-x="301" 
d="M161 689v-773h122v-81h-207v935h207v-81h-122z" />
    <glyph glyph-name="backslash" unicode="\" horiz-adv-x="353" 
d="M29 743h84l211 -793h-84z" />
    <glyph glyph-name="bracketright" unicode="]" horiz-adv-x="301" 
d="M225 -165h-207v81h122v773h-122v81h207v-935z" />
    <glyph glyph-name="asciicircum" unicode="^" horiz-adv-x="345" 
d="M241 521l-68 102l-69 -102h-68l137 197l136 -197h-68z" />
    <glyph glyph-name="underscore" unicode="_" horiz-adv-x="467" 
d="M30 -43h407v-71h-407v71z" />
    <glyph glyph-name="grave" unicode="`" horiz-adv-x="253" 
d="M123 726l100 -164h-82l-115 164h97z" />
    <glyph glyph-name="a" unicode="a" horiz-adv-x="557" 
d="M484 505v-505h-59l-16 51q-54 -64 -158 -64q-197 0 -197 213v105q0 213 197 213q104 0 158 -64l16 51h59zM266 68q123 0 133 122v126q-10 121 -133 121q-65 0 -96 -33t-31 -104v-94q0 -71 31.5 -104.5t95.5 -33.5z" />
    <glyph glyph-name="b" unicode="b" horiz-adv-x="556" 
d="M305 518q197 0 197 -213v-105q0 -213 -197 -213q-105 0 -157 63l-16 -50h-59v770h85v-305q52 53 147 53zM418 300q0 71 -31.5 104t-96.5 33q-117 0 -132 -112v-145q15 -112 132 -112q65 0 96.5 33t31.5 105v94z" />
    <glyph glyph-name="c" unicode="c" horiz-adv-x="528" 
d="M266 -12q-102 0 -157 55.5t-55 153.5v112q0 99 55 154t157 55q97 0 152.5 -53t55.5 -145v-10h-85v12q0 57 -31.5 86t-91.5 29q-127 0 -127 -133v-102q0 -67 31 -100t96 -33q59 0 91 29.5t32 85.5v12h85v-10q0 -92 -55 -145t-153 -53z" />
    <glyph glyph-name="d" unicode="d" horiz-adv-x="556" 
d="M483 770v-770h-59l-16 51q-52 -64 -157 -64q-197 0 -197 213v105q0 213 197 213q96 0 148 -53v305h84zM266 68q123 0 133 122v126q-10 121 -133 121q-65 0 -96 -33t-31 -104v-94q0 -72 31 -105t96 -33z" />
    <glyph glyph-name="e" unicode="e" horiz-adv-x="529" 
d="M266 518q96 0 153 -52t57 -137v-102h-338v-23q0 -143 131 -143q56 0 88 24.5t32 70.5v6h85q0 -83 -54.5 -128.5t-148.5 -45.5q-106 0 -161.5 58.5t-55.5 158.5v98q0 99 55 157t157 58zM390 299v29q0 117 -121 117q-131 0 -131 -142v-4h252z" />
    <glyph glyph-name="f" unicode="f" horiz-adv-x="324" 
d="M280 689q-55 0 -80 -28t-25 -90v-66h140v-80h-140v-425h-85v425h-59v80h59v73q0 91 47 141.5t133 50.5h54v-81h-44z" />
    <glyph glyph-name="g" unicode="g" horiz-adv-x="557" 
d="M484 505v-553q0 -87 -55.5 -141t-158.5 -54q-96 0 -148 42.5t-60 112.5h86q14 -74 121 -74q61 0 95.5 31t34.5 89v82q-52 -53 -148 -53q-197 0 -197 213v105q0 213 197 213q104 0 158 -64l16 51h59zM266 68q123 0 133 122v126q-10 121 -133 121q-65 0 -96 -33t-31 -104
v-94q0 -72 31 -105t96 -33z" />
    <glyph glyph-name="h" unicode="h" horiz-adv-x="568" 
d="M307 518q192 0 192 -223v-295h-84v293q0 144 -125 144q-117 0 -132 -113v-324h-85v770h85v-306q54 54 149 54z" />
    <glyph glyph-name="i" unicode="i" horiz-adv-x="236" 
d="M73 688h90v-104h-90v104zM75 505h85v-505h-85v505z" />
    <glyph glyph-name="j" unicode="j" horiz-adv-x="256" 
d="M90 688h90v-104h-90v104zM-31 -149h21q57 0 80 31t23 93v530h84v-554q0 -92 -44.5 -136.5t-120.5 -44.5h-43v81z" />
    <glyph glyph-name="k" unicode="k" horiz-adv-x="514" 
d="M249 276l247 -276h-103l-233 256v-256h-85v770h85v-474l229 209h107z" />
    <glyph glyph-name="l" unicode="l" horiz-adv-x="236" 
d="M160 770v-770h-85v770h85z" />
    <glyph glyph-name="m" unicode="m" horiz-adv-x="831" 
d="M587 518q176 0 176 -223v-295h-85v297q0 69 -27 104.5t-77 35.5q-47 0 -77 -29.5t-36 -87.5v-320h-85v297q0 140 -105 140q-45 0 -75.5 -29t-37.5 -82v-326h-85v505h57l15 -52q50 65 139 65q110 0 151 -84q48 84 152 84z" />
    <glyph glyph-name="n" unicode="n" horiz-adv-x="568" 
d="M307 518q192 0 192 -223v-295h-84v293q0 144 -125 144q-117 0 -132 -112v-325h-85v505h57l15 -55q55 68 162 68z" />
    <glyph glyph-name="o" unicode="o" horiz-adv-x="539" 
d="M270 -13q-105 0 -160.5 55.5t-55.5 154.5v112q0 99 55.5 154t159.5 55q105 0 160.5 -55t55.5 -154v-112q0 -99 -55.5 -154.5t-159.5 -55.5zM269 68q131 0 131 134v102q0 68 -31.5 100.5t-98.5 32.5q-68 0 -99.5 -33t-31.5 -100v-102q0 -68 31.5 -101t98.5 -33z" />
    <glyph glyph-name="p" unicode="p" horiz-adv-x="557" 
d="M305 518q198 0 198 -213v-105q0 -213 -198 -213q-95 0 -147 53v-270h-85v735h59l16 -50q53 63 157 63zM418 300q0 71 -31.5 104t-96.5 33q-117 0 -132 -112v-145q15 -112 132 -112q65 0 96.5 33t31.5 105v94z" />
    <glyph glyph-name="q" unicode="q" horiz-adv-x="556" 
d="M483 505v-735h-84v270q-52 -53 -148 -53q-197 0 -197 213v105q0 213 197 213q105 0 157 -64l16 51h59zM266 68q123 0 133 122v126q-10 121 -133 121q-65 0 -96 -33t-31 -104v-94q0 -72 31 -105t96 -33z" />
    <glyph glyph-name="r" unicode="r" horiz-adv-x="361" 
d="M305 514q19 0 29 -1v-78q-23 5 -43 5q-58 0 -95.5 -31.5t-37.5 -90.5v-318h-85v505h59l17 -52q56 61 156 61z" />
    <glyph glyph-name="s" unicode="s" horiz-adv-x="485" 
d="M247 -12q-96 0 -151 45.5t-55 122.5v10h84v-9q0 -44 33 -68.5t93 -24.5q48 0 79.5 19t31.5 53q0 32 -32 51t-77.5 29t-90.5 23t-77 44t-32 82q0 70 52 111.5t139 41.5q92 0 144 -44.5t52 -119.5v-10h-84v10q0 41 -29 64.5t-82 23.5q-50 0 -79 -20t-29 -51q0 -30 32 -47
t77.5 -27t90.5 -23.5t77 -46.5t32 -85q0 -74 -57 -114t-142 -40z" />
    <glyph glyph-name="t" unicode="t" horiz-adv-x="338" 
d="M318 81v-81h-62q-86 0 -128 42.5t-42 132.5v250h-68v80h68v148h85v-148h138v-80h-138v-231q0 -60 25 -86.5t78 -26.5h44z" />
    <glyph glyph-name="u" unicode="u" horiz-adv-x="550" 
d="M477 505v-505h-57l-15 53q-51 -66 -152 -66q-185 0 -185 223v295h85v-293q0 -144 115 -144q52 0 84.5 28t39.5 84v325h85z" />
    <glyph glyph-name="v" unicode="v" horiz-adv-x="467" 
d="M456 505l-166 -505h-112l-166 505h87l137 -418l133 418h87z" />
    <glyph glyph-name="w" unicode="w" horiz-adv-x="671" 
d="M660 505l-129 -505h-87l-108 339l-108 -339h-87l-129 505h86l94 -412l109 412h69l109 -414l94 414h87z" />
    <glyph glyph-name="x" unicode="x" horiz-adv-x="475" 
d="M284 253l178 -253h-97l-130 187l-130 -187h-91l173 254l-175 251h96l129 -184l131 184h95z" />
    <glyph glyph-name="y" unicode="y" horiz-adv-x="553" 
d="M480 505v-553q0 -87 -55 -141t-155 -54q-93 0 -143.5 43t-57.5 112h85q15 -74 115 -74q60 0 93.5 31t33.5 89v81q-51 -52 -139 -52q-186 0 -186 223v295h85v-293q0 -144 116 -144q54 0 87 30.5t37 91.5v315h84z" />
    <glyph glyph-name="z" unicode="z" horiz-adv-x="488" 
d="M443 438l-283 -357h283v-81h-399v67l285 358h-271v80h385v-67z" />
    <glyph glyph-name="braceleft" unicode="{" horiz-adv-x="307" 
d="M183 427q0 -86 -61 -124q61 -39 61 -125v-214q0 -48 45 -48h67v-81h-70q-59 0 -93 36t-34 99v214q0 35 -19.5 56.5t-50.5 21.5h-13v82h13q31 0 50.5 21t19.5 56v214q0 63 34 99t93 36h70v-81h-67q-45 0 -45 -48v-214z" />
    <glyph glyph-name="bar" unicode="|" horiz-adv-x="224" 
d="M152 810v-970h-80v970h80z" />
    <glyph glyph-name="braceright" unicode="}" horiz-adv-x="307" 
d="M292 344v-82h-13q-31 0 -51 -21.5t-20 -56.5v-214q0 -63 -33.5 -99t-92.5 -36h-71v81h68q45 0 45 48v214q0 86 61 125q-61 38 -61 124v214q0 48 -45 48h-68v81h71q59 0 92.5 -36t33.5 -99v-214q0 -35 20 -56t51 -21h13z" />
    <glyph glyph-name="asciitilde" unicode="~" horiz-adv-x="515" 
d="M161 445q6 0 11.5 -0.5t10 -1.5t11 -3t10 -3t10.5 -4t9.5 -4.5t10 -5.5t9.5 -5t10.5 -6t10.5 -6q49 -29 77 -29q52 0 52 62h75q0 -64 -27 -104t-85 -40q-43 0 -105 37q-49 31 -74 31q-27 0 -41.5 -18.5t-14.5 -50.5h-75q0 68 27.5 109.5t87.5 41.5z" />
    <glyph glyph-name="uni00A0" unicode="&#xa0;" horiz-adv-x="240" 
 />
    <glyph glyph-name="exclamdown" unicode="&#xa1;" horiz-adv-x="269" 
d="M180 399h-91v106h91v-106zM91 22l11 275h66l11 -274v-223h-88v222z" />
    <glyph glyph-name="cent" unicode="&#xa2;" horiz-adv-x="518" 
d="M383 408v12q0 57 -31.5 86t-91.5 29q-127 0 -127 -133v-102q0 -67 31 -100t96 -33q59 0 91 29.5t32 85.5v12h85v-10q0 -82 -44 -133.5t-123 -61.5v-91h-85v91q-81 11 -124.5 65t-43.5 141v112q0 87 43 141t125 65v91h85v-91q79 -11 123 -62t44 -133v-10h-85z" />
    <glyph glyph-name="sterling" unicode="&#xa3;" horiz-adv-x="648" 
d="M498 448v40q0 146 -145 146q-149 0 -149 -146v-131h209v-84h-209v-189h379v-84h-379v-1h-88v1h-76v84h76v189h-76v84h76v138q0 103 62.5 163t173.5 60q112 0 174.5 -59.5t62.5 -163.5v-47h-91z" />
    <glyph glyph-name="currency" unicode="&#xa4;" horiz-adv-x="501" 
d="M432 321q0 -62 -31 -104l51 -66l-56 -45l-52 66q-38 -19 -93 -19t-94 18l-52 -65l-57 45l52 66q-32 41 -32 104v55q0 61 31 103l-51 64l57 47l51 -65q40 18 94 18q56 0 94 -19l52 66l56 -47l-51 -64q31 -42 31 -103v-55zM250 222q107 0 107 100v52q0 100 -106 100
q-107 0 -107 -100v-52q0 -100 106 -100z" />
    <glyph glyph-name="yen" unicode="&#xa5;" horiz-adv-x="579" 
d="M361 319h129v-72h-157v-62h157v-72h-157v-113h-88v113h-155v72h155v62h-155v72h126l-194 387h96l172 -341l172 341h95z" />
    <glyph glyph-name="brokenbar" unicode="&#xa6;" horiz-adv-x="224" 
d="M72 810h80v-416h-80v416zM72 256h80v-416h-80v416z" />
    <glyph glyph-name="section" unicode="&#xa7;" horiz-adv-x="583" 
d="M534 249q0 -62 -35 -108q28 -36 28 -92q0 -86 -64 -137t-171 -51q-112 0 -177.5 54t-65.5 141v17h87v-22q0 -48 44 -78t116 -30q60 0 102 26t42 76q0 43 -38.5 69t-93 39.5t-109.5 29.5t-93.5 54t-38.5 100q0 68 39 113q-33 36 -33 94q0 78 58 126t162 48
q108 0 168 -50.5t60 -133.5v-22h-87v25q0 43 -38.5 70t-102.5 27q-56 0 -94 -22.5t-38 -64.5q0 -38 38.5 -61.5t93.5 -38t109.5 -33t93 -60t38.5 -105.5zM154 345q0 -43 42.5 -66.5t120 -43.5t115.5 -40q14 23 14 50q0 37 -28 63t-63 37t-90.5 27t-86.5 29q-24 -26 -24 -56z
" />
    <glyph glyph-name="dieresis" unicode="&#xa8;" horiz-adv-x="327" 
d="M22 681h84v-97h-84v97zM217 681h84v-97h-84v97z" />
    <glyph glyph-name="copyright" unicode="&#xa9;" horiz-adv-x="719" 
d="M360 -13q-146 0 -223.5 65t-77.5 175v249q0 112 77 177t223 65t223.5 -65t77.5 -177v-249q0 -110 -77 -175t-223 -65zM360 29q127 0 190.5 53t63.5 147v244q0 96 -64 149.5t-191 53.5t-190.5 -53.5t-63.5 -149.5v-244q0 -94 64 -147t191 -53zM359 66q-106 0 -160 52
t-54 141v188q0 88 55 140.5t159 52.5t159 -51.5t55 -138.5v-49h-87v49q0 53 -29.5 80t-97.5 27q-127 0 -127 -111v-187q0 -110 127 -110q69 0 98 26.5t29 79.5v51h87v-51q0 -87 -54.5 -138t-159.5 -51z" />
    <glyph glyph-name="ordfeminine" unicode="&#xaa;" horiz-adv-x="322" 
d="M282 711v-299h-38l-10 25q-29 -32 -85 -32q-109 0 -109 117v79q0 117 109 117q56 0 85 -32l10 25h38zM160 458q62 0 66 60v87q-4 61 -66 61q-64 0 -64 -68v-73q0 -67 64 -67z" />
    <glyph glyph-name="guillemotleft" unicode="&#xab;" horiz-adv-x="589" 
d="M127 257l168 -132v-91l-226 177v91l226 178v-92zM518 388l-168 -131l168 -132v-91l-226 177v91l226 178v-92z" />
    <glyph glyph-name="logicalnot" unicode="&#xac;" horiz-adv-x="507" 
d="M454 148h-85v175h-317v84h402v-259z" />
    <glyph glyph-name="uni00AD" unicode="&#xad;" horiz-adv-x="341" 
d="M53 315h235v-77h-235v77z" />
    <glyph glyph-name="registered" unicode="&#xae;" horiz-adv-x="519" 
d="M259 718q95 0 152 -48t57 -129v-105q0 -81 -57 -129t-151 -48t-151.5 48t-57.5 129v105q0 81 57 129t151 48zM428 537q0 69 -45 106.5t-124 37.5t-123.5 -38t-44.5 -106v-97q0 -69 45 -107t124 -38q78 0 123 38t45 107v97zM377 544q0 -49 -46 -66l50 -119h-48l-49 111
h-82v-111h-46v272h123q46 0 72 -19.5t26 -55.5v-12zM281 514q50 0 50 30v12q0 32 -50 32h-79v-74h79z" />
    <glyph glyph-name="macron" unicode="&#xaf;" horiz-adv-x="384" 
d="M354 601h-328v74h328v-74z" />
    <glyph glyph-name="degree" unicode="&#xb0;" horiz-adv-x="361" 
d="M180 718q62 0 98 -33.5t36 -92.5t-36 -93.5t-98 -34.5t-97.5 34.5t-35.5 93.5t35.5 92.5t97.5 33.5zM180 656q-29 0 -45.5 -17t-16.5 -47q0 -31 16.5 -48t45.5 -17q63 0 63 65q0 30 -16.5 47t-46.5 17z" />
    <glyph glyph-name="plusminus" unicode="&#xb1;" horiz-adv-x="507" 
d="M454 434v-84h-158v-175h-84v175h-160v84h160v175h84v-175h158zM52 84h402v-84h-402v84z" />
    <glyph glyph-name="uni00B2" unicode="&#xb2;" 
d="M286 657q0 -30 -18 -55t-44 -41.5t-52.5 -31t-44.5 -28.5t-18 -28h174v-61h-245v61q0 31 28.5 58.5t63 44.5t63 39.5t28.5 45.5v12q0 18 -15 28.5t-41 10.5q-57 0 -57 -52v-14h-65v12q0 53 33.5 84.5t90.5 31.5q53 0 86 -27.5t33 -72.5v-17z" />
    <glyph glyph-name="uni00B3" unicode="&#xb3;" 
d="M287 652q0 -36 -27 -60q27 -25 27 -61v-25q0 -46 -34.5 -73.5t-89.5 -27.5q-56 0 -90.5 28.5t-34.5 76.5v15h66v-18q0 -41 61 -41q57 0 57 38v25q0 33 -50 33h-59v59h59q49 0 49 32v22q0 37 -56 37q-61 0 -61 -41v-18h-66v15q0 48 34.5 77t90.5 29q54 0 89 -27.5
t35 -73.5v-21z" />
    <glyph glyph-name="acute" unicode="&#xb4;" horiz-adv-x="253" 
d="M108 562h-82l100 164h97z" />
    <glyph glyph-name="uni00B5" unicode="&#xb5;" horiz-adv-x="551" 
d="M527 70q16 0 26 3v-81q-27 -5 -44 -5q-76 0 -101 72q-50 -72 -154 -72q-64 0 -101 31v-248h-85v735h85v-293q0 -144 116 -144q54 0 86.5 30.5t36.5 88.5v318h85v-332q0 -54 9.5 -78.5t40.5 -24.5z" />
    <glyph glyph-name="paragraph" unicode="&#xb6;" horiz-adv-x="679" 
d="M638 622h-102v-622h-85v622h-133v-622h-84v313h-52q-59 0 -100 42.5t-41 105.5v96q0 59 41.5 103.5t99.5 44.5h456v-83z" />
    <glyph glyph-name="periodcentered" unicode="&#xb7;" horiz-adv-x="186" 
d="M50 408h85v-125h-85v125z" />
    <glyph glyph-name="cedilla" unicode="&#xb8;" horiz-adv-x="196" 
d="M73 20h73l-38 -175h-92z" />
    <glyph glyph-name="uni00B9" unicode="&#xb9;" 
d="M260 473v-61h-196v61h65v232h-65v62h130v-294h66z" />
    <glyph glyph-name="ordmasculine" unicode="&#xba;" horiz-adv-x="321" 
d="M162 405q-59 0 -90.5 31t-31.5 86v79q0 55 31.5 86t89.5 31q59 0 90 -31t31 -86v-79q0 -55 -31 -86t-89 -31zM161 458q65 0 65 66v75q0 66 -64 66q-66 0 -66 -66v-75q0 -66 65 -66z" />
    <glyph glyph-name="guillemotright" unicode="&#xbb;" horiz-adv-x="589" 
d="M297 211l-226 -177v91l168 132l-168 131v92l226 -178v-91zM520 302v-91l-226 -177v91l168 132l-168 131v92z" />
    <glyph glyph-name="onequarter" unicode="&#xbc;" horiz-adv-x="768" 
d="M260 352h-196v61h65v232h-65v62h130v-294h66v-61zM537 707l-246 -707h-72l246 707h72zM721 226v-226h-65v76h-167v61l97 218h71l-97 -218h96v89h65z" />
    <glyph glyph-name="onehalf" unicode="&#xbd;" horiz-adv-x="768" 
d="M260 352h-196v61h65v232h-65v62h130v-294h66v-61zM537 707l-246 -707h-72l246 707h72zM729 245q0 -30 -18 -55t-44.5 -41.5t-52.5 -31t-44 -28.5t-18 -28h174v-61h-245v61q0 31 28.5 58.5t63 44.5t63 39.5t28.5 45.5v12q0 18 -15 28.5t-41 10.5q-57 0 -57 -52v-14h-65v12
q0 53 33.5 84.5t90.5 31.5q53 0 86 -27.5t33 -72.5v-17z" />
    <glyph glyph-name="threequarters" unicode="&#xbe;" horiz-adv-x="768" 
d="M287 446q0 -46 -34.5 -73.5t-89.5 -27.5q-56 0 -90.5 28.5t-34.5 76.5v15h66v-18q0 -41 61 -41q57 0 57 38v25q0 33 -50 33h-59v59h59q49 0 49 32v22q0 37 -56 37q-61 0 -61 -41v-18h-66v15q0 48 34.5 77t90.5 29q54 0 89 -27.5t35 -73.5v-21q0 -36 -27 -60
q27 -25 27 -61v-25zM537 707l-246 -707h-72l246 707h72zM721 226v-226h-65v76h-167v61l97 218h71l-97 -218h96v89h65z" />
    <glyph glyph-name="questiondown" unicode="&#xbf;" horiz-adv-x="637" 
d="M382 399h-90v106h90v-106zM380 273q0 -54 -23.5 -89.5t-57.5 -53.5t-68 -34.5t-57.5 -43t-23.5 -66.5q0 -115 165 -115q180 0 180 149v24h85v-28q0 -107 -67 -168t-194 -61t-192 53.5t-65 147.5q0 59 24 97.5t58 57.5t68 35t58 42.5t24 66.5v10h86v-24z" />
    <glyph glyph-name="Agrave" unicode="&#xc0;" horiz-adv-x="616" 
d="M260 762l-131 140h107l115 -140h-91zM444 184h-274l-62 -184h-86l225 705h121l226 -705h-87zM198 268h219l-110 345z" />
    <glyph glyph-name="Aacute" unicode="&#xc1;" horiz-adv-x="616" 
d="M356 762h-91l115 140h107zM444 184h-274l-62 -184h-86l225 705h121l226 -705h-87zM198 268h219l-110 345z" />
    <glyph glyph-name="Acircumflex" unicode="&#xc2;" horiz-adv-x="616" 
d="M236 760h-97l126 125h87l125 -125h-97l-72 73zM444 184h-274l-62 -184h-86l225 705h121l226 -705h-87zM198 268h219l-110 345z" />
    <glyph glyph-name="Atilde" unicode="&#xc3;" horiz-adv-x="616" 
d="M243 837q-42 0 -42 -65h-64q0 131 90 131q35 0 80 -32t65 -32q41 0 41 64h64q0 -131 -90 -131q-36 0 -80 32.5t-64 32.5zM444 184h-274l-62 -184h-86l225 705h121l226 -705h-87zM198 268h219l-110 345z" />
    <glyph glyph-name="Adieresis" unicode="&#xc4;" horiz-adv-x="616" 
d="M252 784h-84v97h84v-97zM447 784h-84v97h84v-97zM444 184h-274l-62 -184h-86l225 705h121l226 -705h-87zM198 268h219l-110 345z" />
    <glyph glyph-name="Aring" unicode="&#xc5;" horiz-adv-x="616" 
d="M308 756q-51 0 -83 30.5t-32 79.5t32 79.5t83 30.5q50 0 82.5 -30.5t32.5 -79.5t-32.5 -79.5t-82.5 -30.5zM308 920q-28 0 -44 -14.5t-16 -39.5t16 -39.5t44 -14.5t44 14.5t16 39.5t-16 39.5t-44 14.5zM444 184h-274l-62 -184h-86l225 705h121l226 -705h-87zM198 268h219
l-110 345z" />
    <glyph glyph-name="AE" unicode="&#xc6;" horiz-adv-x="957" 
d="M561 622v-233h298v-84h-298v-221h343v-84h-431v206h-276l-86 -206h-89l295 705h587v-83h-343zM473 622h-102l-139 -333h241v333z" />
    <glyph glyph-name="Ccedilla" unicode="&#xc7;" horiz-adv-x="649" 
d="M499 448v40q0 146 -174 146q-178 0 -178 -146v-270q0 -146 177 -146q175 0 175 146v40h91v-47q0 -97 -60 -156t-173 -66l-31 -144h-92l47 145q-107 10 -164.5 68t-57.5 153v284q0 105 68.5 164t196.5 59q129 0 197.5 -59.5t68.5 -163.5v-47h-91z" />
    <glyph glyph-name="Egrave" unicode="&#xc8;" horiz-adv-x="560" 
d="M233 762l-131 140h107l115 -140h-91zM164 622v-233h298v-84h-298v-221h343v-84h-431v705h431v-83h-343z" />
    <glyph glyph-name="Eacute" unicode="&#xc9;" horiz-adv-x="560" 
d="M329 762h-91l115 140h107zM164 622v-233h298v-84h-298v-221h343v-84h-431v705h431v-83h-343z" />
    <glyph glyph-name="Ecircumflex" unicode="&#xca;" horiz-adv-x="560" 
d="M209 760h-97l126 125h87l125 -125h-97l-72 73zM164 622v-233h298v-84h-298v-221h343v-84h-431v705h431v-83h-343z" />
    <glyph glyph-name="Edieresis" unicode="&#xcb;" horiz-adv-x="560" 
d="M225 784h-84v97h84v-97zM420 784h-84v97h84v-97zM164 622v-233h298v-84h-298v-221h343v-84h-431v705h431v-83h-343z" />
    <glyph glyph-name="Igrave" unicode="&#xcc;" horiz-adv-x="240" 
d="M48 902l115 -140h-91l-131 140h107zM76 705h88v-705h-88v705z" />
    <glyph glyph-name="Iacute" unicode="&#xcd;" horiz-adv-x="240" 
d="M168 762h-91l115 140h107zM76 705h88v-705h-88v705z" />
    <glyph glyph-name="Icircumflex" unicode="&#xce;" horiz-adv-x="240" 
d="M289 760h-97l-72 73l-72 -73h-97l126 125h87zM76 705h88v-705h-88v705z" />
    <glyph glyph-name="Idieresis" unicode="&#xcf;" horiz-adv-x="240" 
d="M-20 881h84v-97h-84v97zM175 881h84v-97h-84v97zM76 705h88v-705h-88v705z" />
    <glyph glyph-name="Eth" unicode="&#xd0;" horiz-adv-x="645" 
d="M328 705q124 0 191 -58.5t67 -162.5v-263q0 -104 -67 -162.5t-190 -58.5h-253v316h-90v74h90v315h252zM498 477q0 145 -164 145h-170v-232h179v-74h-179v-232h169q165 0 165 145v248z" />
    <glyph glyph-name="Ntilde" unicode="&#xd1;" horiz-adv-x="635" 
d="M253 837q-42 0 -42 -65h-64q0 131 90 131q35 0 80 -32t65 -32q41 0 41 64h64q0 -131 -90 -131q-36 0 -80 32.5t-64 32.5zM559 705v-705h-82l-319 543v-543h-82v705h82l319 -544v544h82z" />
    <glyph glyph-name="Ograve" unicode="&#xd2;" horiz-adv-x="652" 
d="M254 902l115 -140h-91l-131 140h107zM327 -13q-131 0 -199.5 59t-68.5 164v282q0 106 68.5 166t198.5 60q131 0 199 -60t68 -166v-282q0 -105 -68 -164t-198 -59zM326 71q94 0 136.5 37t42.5 110v267q0 74 -42 111.5t-136 37.5t-137 -37.5t-43 -111.5v-267
q0 -73 42.5 -110t136.5 -37z" />
    <glyph glyph-name="Oacute" unicode="&#xd3;" horiz-adv-x="652" 
d="M374 762h-91l115 140h107zM327 -13q-131 0 -199.5 59t-68.5 164v282q0 106 68.5 166t198.5 60q131 0 199 -60t68 -166v-282q0 -105 -68 -164t-198 -59zM326 71q94 0 136.5 37t42.5 110v267q0 74 -42 111.5t-136 37.5t-137 -37.5t-43 -111.5v-267q0 -73 42.5 -110
t136.5 -37z" />
    <glyph glyph-name="Ocircumflex" unicode="&#xd4;" horiz-adv-x="652" 
d="M254 760h-97l126 125h87l125 -125h-97l-72 73zM326 718q131 0 199 -60t68 -166v-282q0 -105 -68 -164t-198 -59q-131 0 -199.5 59t-68.5 164v282q0 106 68.5 166t198.5 60zM505 485q0 74 -42 111.5t-136 37.5t-137 -37.5t-43 -111.5v-267q0 -73 42.5 -110t136.5 -37
t136.5 37t42.5 110v267z" />
    <glyph glyph-name="Otilde" unicode="&#xd5;" horiz-adv-x="652" 
d="M495 903q0 -131 -90 -131q-36 0 -80 32.5t-64 32.5q-42 0 -42 -65h-64q0 131 90 131q35 0 80 -32t65 -32q41 0 41 64h64zM327 -13q-131 0 -199.5 59t-68.5 164v282q0 106 68.5 166t198.5 60q131 0 199 -60t68 -166v-282q0 -105 -68 -164t-198 -59zM326 71q94 0 136.5 37
t42.5 110v267q0 74 -42 111.5t-136 37.5t-137 -37.5t-43 -111.5v-267q0 -73 42.5 -110t136.5 -37z" />
    <glyph glyph-name="Odieresis" unicode="&#xd6;" horiz-adv-x="652" 
d="M186 881h84v-97h-84v97zM381 881h84v-97h-84v97zM327 -13q-131 0 -199.5 59t-68.5 164v282q0 106 68.5 166t198.5 60q131 0 199 -60t68 -166v-282q0 -105 -68 -164t-198 -59zM326 71q94 0 136.5 37t42.5 110v267q0 74 -42 111.5t-136 37.5t-137 -37.5t-43 -111.5v-267
q0 -73 42.5 -110t136.5 -37z" />
    <glyph glyph-name="multiply" unicode="&#xd7;" horiz-adv-x="485" 
d="M294 366l138 -160l-54 -56l-136 157l-135 -157l-55 56l139 160l-139 160l55 55l135 -156l136 156l54 -55z" />
    <glyph glyph-name="Oslash" unicode="&#xd8;" horiz-adv-x="652" 
d="M523 660q70 -58 70 -168v-282q0 -105 -68 -164t-198 -59q-75 0 -130 20l-38 -77l-70 38l39 78q-69 58 -69 164v282q0 106 68.5 166t198.5 60q71 0 126 -19l39 78l71 -38zM147 218q0 -54 22 -88l245 493q-36 11 -87 11q-94 0 -137 -37.5t-43 -111.5v-267zM505 485
q0 59 -24 91l-246 -493q37 -12 91 -12q94 0 136.5 37t42.5 110v267z" />
    <glyph glyph-name="Ugrave" unicode="&#xd9;" horiz-adv-x="634" 
d="M245 902l115 -140h-91l-131 140h107zM317 -13q-125 0 -191.5 59.5t-66.5 163.5v495h88v-487q0 -147 170 -147t170 147v487h88v-495q0 -104 -66.5 -163.5t-191.5 -59.5z" />
    <glyph glyph-name="Uacute" unicode="&#xda;" horiz-adv-x="634" 
d="M365 762h-91l115 140h107zM317 -13q-125 0 -191.5 59.5t-66.5 163.5v495h88v-487q0 -147 170 -147t170 147v487h88v-495q0 -104 -66.5 -163.5t-191.5 -59.5z" />
    <glyph glyph-name="Ucircumflex" unicode="&#xdb;" horiz-adv-x="634" 
d="M245 760h-97l126 125h87l125 -125h-97l-72 73zM575 705v-495q0 -104 -66.5 -163.5t-191.5 -59.5t-191.5 59.5t-66.5 163.5v495h88v-487q0 -147 170 -147t170 147v487h88z" />
    <glyph glyph-name="Udieresis" unicode="&#xdc;" horiz-adv-x="634" 
d="M177 881h84v-97h-84v97zM372 881h84v-97h-84v97zM317 -13q-125 0 -191.5 59.5t-66.5 163.5v495h88v-487q0 -147 170 -147t170 147v487h88v-495q0 -104 -66.5 -163.5t-191.5 -59.5z" />
    <glyph glyph-name="Yacute" unicode="&#xdd;" horiz-adv-x="579" 
d="M338 762h-91l115 140h107zM333 263v-263h-88v262l-223 444h96l172 -341l172 341h95z" />
    <glyph glyph-name="Thorn" unicode="&#xde;" horiz-adv-x="622" 
d="M352 591q103 0 159.5 -49.5t56.5 -137.5v-76q0 -88 -56.5 -137.5t-158.5 -49.5h-189v-141h-88v705h88v-114h188zM481 404q0 103 -123 103h-194v-282h193q124 0 124 103v76z" />
    <glyph glyph-name="germandbls" unicode="&#xdf;" horiz-adv-x="567" 
d="M439 397q74 -48 74 -154v-54q0 -91 -56 -140t-163 -49h-59v81h59q70 0 102 27t32 86v45q0 59 -32 86t-102 27h-46v81h46q118 0 118 113v43q0 113 -120 113q-68 0 -100 -33t-32 -100v-569h-85v574q0 99 55.5 154t160.5 55q98 0 152 -50t54 -139v-53q0 -94 -58 -144z" />
    <glyph glyph-name="agrave" unicode="&#xe0;" horiz-adv-x="557" 
d="M233 562l-115 164h97l100 -164h-82zM484 505v-505h-59l-16 51q-54 -64 -158 -64q-197 0 -197 213v105q0 213 197 213q104 0 158 -64l16 51h59zM266 68q123 0 133 122v126q-10 121 -133 121q-65 0 -96 -33t-31 -104v-94q0 -71 31.5 -104.5t95.5 -33.5z" />
    <glyph glyph-name="aacute" unicode="&#xe1;" horiz-adv-x="557" 
d="M315 562h-82l100 164h97zM484 505v-505h-59l-16 51q-54 -64 -158 -64q-197 0 -197 213v105q0 213 197 213q104 0 158 -64l16 51h59zM266 68q123 0 133 122v126q-10 121 -133 121q-65 0 -96 -33t-31 -104v-94q0 -71 31.5 -104.5t95.5 -33.5z" />
    <glyph glyph-name="acircumflex" unicode="&#xe2;" horiz-adv-x="557" 
d="M207 563h-87l118 152h76l117 -152h-87l-69 96zM484 505v-505h-59l-16 51q-54 -64 -158 -64q-197 0 -197 213v105q0 213 197 213q104 0 158 -64l16 51h59zM266 68q123 0 133 122v126q-10 121 -133 121q-65 0 -96 -33t-31 -104v-94q0 -71 31.5 -104.5t95.5 -33.5z" />
    <glyph glyph-name="atilde" unicode="&#xe3;" horiz-adv-x="557" 
d="M209 637q-42 0 -42 -65h-64q0 131 90 131q35 0 80 -32t65 -32q41 0 41 64h64q0 -131 -90 -131q-36 0 -80 32.5t-64 32.5zM484 505v-505h-59l-16 51q-54 -64 -158 -64q-197 0 -197 213v105q0 213 197 213q104 0 158 -64l16 51h59zM266 68q123 0 133 122v126
q-10 121 -133 121q-65 0 -96 -33t-31 -104v-94q0 -71 31.5 -104.5t95.5 -33.5z" />
    <glyph glyph-name="adieresis" unicode="&#xe4;" horiz-adv-x="557" 
d="M218 584h-84v97h84v-97zM413 584h-84v97h84v-97zM484 505v-505h-59l-16 51q-54 -64 -158 -64q-197 0 -197 213v105q0 213 197 213q104 0 158 -64l16 51h59zM266 68q123 0 133 122v126q-10 121 -133 121q-65 0 -96 -33t-31 -104v-94q0 -71 31.5 -104.5t95.5 -33.5z" />
    <glyph glyph-name="aring" unicode="&#xe5;" horiz-adv-x="557" 
d="M274 556q-51 0 -83 30.5t-32 79.5t32 79.5t83 30.5q50 0 82.5 -30.5t32.5 -79.5t-32.5 -79.5t-82.5 -30.5zM274 720q-28 0 -44 -14.5t-16 -39.5t16 -39.5t44 -14.5t44 14.5t16 39.5t-16 39.5t-44 14.5zM484 505v-505h-59l-16 51q-54 -64 -158 -64q-197 0 -197 213v105
q0 213 197 213q104 0 158 -64l16 51h59zM266 68q123 0 133 122v126q-10 121 -133 121q-65 0 -96 -33t-31 -104v-94q0 -71 31.5 -104.5t95.5 -33.5z" />
    <glyph glyph-name="ae" unicode="&#xe6;" horiz-adv-x="857" 
d="M617 518q88 0 137.5 -51.5t49.5 -137.5v-102h-329v-23q0 -143 130 -143q113 0 113 102v9h85q0 -89 -47 -136.5t-139 -47.5q-96 0 -151 66l-17 -54h-33l-16 50q-52 -63 -155 -63q-191 0 -191 213v105q0 213 192 213q103 0 154 -63l16 50h33l17 -52q54 65 151 65zM718 299
v29q0 117 -113 117q-130 0 -130 -142v-4h243zM261 68q120 0 129 121v127q-9 121 -129 121q-62 0 -92.5 -33t-30.5 -104v-94q0 -72 30.5 -105t92.5 -33z" />
    <glyph glyph-name="ccedilla" unicode="&#xe7;" horiz-adv-x="528" 
d="M389 310v12q0 57 -31.5 86t-91.5 29q-127 0 -127 -133v-102q0 -67 31 -100t96 -33q59 0 91 29.5t32 85.5v12h85v-10q0 -84 -46.5 -136t-130.5 -60l-31 -145h-92l48 146q-81 12 -124.5 65.5t-43.5 140.5v112q0 99 55 154t157 55q97 0 152.5 -53t55.5 -145v-10h-85z" />
    <glyph glyph-name="egrave" unicode="&#xe8;" horiz-adv-x="529" 
d="M224 562l-115 164h97l100 -164h-82zM266 518q96 0 153 -52t57 -137v-102h-338v-23q0 -143 131 -143q56 0 88 24.5t32 70.5v6h85q0 -83 -54.5 -128.5t-148.5 -45.5q-106 0 -161.5 58.5t-55.5 158.5v98q0 99 55 157t157 58zM390 299v29q0 117 -121 117q-131 0 -131 -142v-4
h252z" />
    <glyph glyph-name="eacute" unicode="&#xe9;" horiz-adv-x="529" 
d="M306 562h-82l100 164h97zM266 518q96 0 153 -52t57 -137v-102h-338v-23q0 -143 131 -143q56 0 88 24.5t32 70.5v6h85q0 -83 -54.5 -128.5t-148.5 -45.5q-106 0 -161.5 58.5t-55.5 158.5v98q0 99 55 157t157 58zM390 299v29q0 117 -121 117q-131 0 -131 -142v-4h252z" />
    <glyph glyph-name="ecircumflex" unicode="&#xea;" horiz-adv-x="529" 
d="M198 563h-87l118 152h76l117 -152h-87l-69 96zM266 518q96 0 153 -52t57 -137v-102h-338v-23q0 -143 131 -143q56 0 88 24.5t32 70.5v6h85q0 -83 -54.5 -128.5t-148.5 -45.5q-106 0 -161.5 58.5t-55.5 158.5v98q0 99 55 157t157 58zM390 299v29q0 117 -121 117
q-131 0 -131 -142v-4h252z" />
    <glyph glyph-name="edieresis" unicode="&#xeb;" horiz-adv-x="529" 
d="M209 584h-84v97h84v-97zM404 584h-84v97h84v-97zM266 518q96 0 153 -52t57 -137v-102h-338v-23q0 -143 131 -143q56 0 88 24.5t32 70.5v6h85q0 -83 -54.5 -128.5t-148.5 -45.5q-106 0 -161.5 58.5t-55.5 158.5v98q0 99 55 157t157 58zM390 299v29q0 117 -121 117
q-131 0 -131 -142v-4h252z" />
    <glyph glyph-name="igrave" unicode="&#xec;" horiz-adv-x="236" 
d="M59 726l100 -164h-82l-115 164h97zM75 505h85v-505h-85v505z" />
    <glyph glyph-name="iacute" unicode="&#xed;" horiz-adv-x="236" 
d="M159 562h-82l100 164h97zM75 505h85v-505h-85v505z" />
    <glyph glyph-name="icircumflex" unicode="&#xee;" horiz-adv-x="236" 
d="M275 563h-87l-69 96l-68 -96h-87l118 152h76zM75 505h85v-505h-85v505z" />
    <glyph glyph-name="idieresis" unicode="&#xef;" horiz-adv-x="236" 
d="M-22 681h84v-97h-84v97zM173 681h84v-97h-84v97zM75 505h85v-505h-85v505z" />
    <glyph glyph-name="eth" unicode="&#xf0;" horiz-adv-x="544" 
d="M421 672q62 -84 62 -233v-229q0 -107 -56 -165t-159 -58q-102 0 -158 55.5t-56 160.5v102q0 213 196 213q96 0 148 -53q-5 95 -39 150l-88 -83l-55 51l90 84q-57 35 -160 35v81q140 0 221 -58l68 63l55 -51zM398 316q-10 121 -132 121q-65 0 -96 -33t-31 -104v-92
q0 -72 31 -106t98 -34t98.5 36t31.5 111v101z" />
    <glyph glyph-name="ntilde" unicode="&#xf1;" horiz-adv-x="568" 
d="M219 637q-42 0 -42 -65h-64q0 131 90 131q35 0 80 -32t65 -32q41 0 41 64h64q0 -131 -90 -131q-36 0 -80 32.5t-64 32.5zM307 518q192 0 192 -223v-295h-84v293q0 144 -125 144q-117 0 -132 -112v-325h-85v505h57l15 -55q55 68 162 68z" />
    <glyph glyph-name="ograve" unicode="&#xf2;" horiz-adv-x="539" 
d="M211 726l100 -164h-82l-115 164h97zM270 -13q-105 0 -160.5 55.5t-55.5 154.5v112q0 99 55.5 154t159.5 55q105 0 160.5 -55t55.5 -154v-112q0 -99 -55.5 -154.5t-159.5 -55.5zM269 68q131 0 131 134v102q0 68 -31.5 100.5t-98.5 32.5q-68 0 -99.5 -33t-31.5 -100v-102
q0 -68 31.5 -101t98.5 -33z" />
    <glyph glyph-name="oacute" unicode="&#xf3;" horiz-adv-x="539" 
d="M311 562h-82l100 164h97zM270 -13q-105 0 -160.5 55.5t-55.5 154.5v112q0 99 55.5 154t159.5 55q105 0 160.5 -55t55.5 -154v-112q0 -99 -55.5 -154.5t-159.5 -55.5zM269 68q131 0 131 134v102q0 68 -31.5 100.5t-98.5 32.5q-68 0 -99.5 -33t-31.5 -100v-102
q0 -68 31.5 -101t98.5 -33z" />
    <glyph glyph-name="ocircumflex" unicode="&#xf4;" horiz-adv-x="539" 
d="M203 563h-87l118 152h76l117 -152h-87l-69 96zM269 518q105 0 160.5 -55t55.5 -154v-112q0 -99 -55.5 -154.5t-159.5 -55.5q-105 0 -160.5 55.5t-55.5 154.5v112q0 99 55.5 154t159.5 55zM400 304q0 68 -31.5 100.5t-98.5 32.5q-68 0 -99.5 -33t-31.5 -100v-102
q0 -68 31.5 -101t98.5 -33q131 0 131 134v102z" />
    <glyph glyph-name="otilde" unicode="&#xf5;" horiz-adv-x="539" 
d="M439 703q0 -131 -90 -131q-36 0 -80 32.5t-64 32.5q-42 0 -42 -65h-64q0 131 90 131q35 0 80 -32t65 -32q41 0 41 64h64zM270 -13q-105 0 -160.5 55.5t-55.5 154.5v112q0 99 55.5 154t159.5 55q105 0 160.5 -55t55.5 -154v-112q0 -99 -55.5 -154.5t-159.5 -55.5zM269 68
q131 0 131 134v102q0 68 -31.5 100.5t-98.5 32.5q-68 0 -99.5 -33t-31.5 -100v-102q0 -68 31.5 -101t98.5 -33z" />
    <glyph glyph-name="odieresis" unicode="&#xf6;" horiz-adv-x="539" 
d="M130 681h84v-97h-84v97zM325 681h84v-97h-84v97zM270 -13q-105 0 -160.5 55.5t-55.5 154.5v112q0 99 55.5 154t159.5 55q105 0 160.5 -55t55.5 -154v-112q0 -99 -55.5 -154.5t-159.5 -55.5zM269 68q131 0 131 134v102q0 68 -31.5 100.5t-98.5 32.5q-68 0 -99.5 -33
t-31.5 -100v-102q0 -68 31.5 -101t98.5 -33z" />
    <glyph glyph-name="divide" unicode="&#xf7;" horiz-adv-x="507" 
d="M209 600h90v-106h-90v106zM52 407h402v-84h-402v84zM209 237h90v-107h-90v107z" />
    <glyph glyph-name="oslash" unicode="&#xf8;" horiz-adv-x="539" 
d="M421 471q64 -55 64 -162v-112q0 -99 -55.5 -154.5t-159.5 -55.5q-46 0 -80 10l-35 -72l-72 37l35 72q-64 56 -64 163v112q0 99 55.5 154t159.5 55q47 0 80 -10l36 73l72 -37zM139 202q0 -54 19 -85l155 316q-17 4 -43 4q-68 0 -99.5 -33t-31.5 -100v-102zM400 304
q0 53 -19 84l-154 -316q16 -4 42 -4q131 0 131 134v102z" />
    <glyph glyph-name="ugrave" unicode="&#xf9;" horiz-adv-x="550" 
d="M235 562l-115 164h97l100 -164h-82zM477 505v-505h-57l-15 53q-51 -66 -152 -66q-185 0 -185 223v295h85v-293q0 -144 115 -144q52 0 84.5 28t39.5 84v325h85z" />
    <glyph glyph-name="uacute" unicode="&#xfa;" horiz-adv-x="550" 
d="M317 562h-82l100 164h97zM477 505v-505h-57l-15 53q-51 -66 -152 -66q-185 0 -185 223v295h85v-293q0 -144 115 -144q52 0 84.5 28t39.5 84v325h85z" />
    <glyph glyph-name="ucircumflex" unicode="&#xfb;" horiz-adv-x="550" 
d="M209 563h-87l118 152h76l117 -152h-87l-69 96zM477 505v-505h-57l-15 53q-51 -66 -152 -66q-185 0 -185 223v295h85v-293q0 -144 115 -144q52 0 84.5 28t39.5 84v325h85z" />
    <glyph glyph-name="udieresis" unicode="&#xfc;" horiz-adv-x="550" 
d="M220 584h-84v97h84v-97zM415 584h-84v97h84v-97zM477 505v-505h-57l-15 53q-51 -66 -152 -66q-185 0 -185 223v295h85v-293q0 -144 115 -144q52 0 84.5 28t39.5 84v325h85z" />
    <glyph glyph-name="yacute" unicode="&#xfd;" horiz-adv-x="553" 
d="M318 562h-82l100 164h97zM480 505v-553q0 -87 -55 -141t-155 -54q-93 0 -143.5 43t-57.5 112h85q15 -74 115 -74q60 0 93.5 31t33.5 89v81q-51 -52 -139 -52q-186 0 -186 223v295h85v-293q0 -144 116 -144q54 0 87 30.5t37 91.5v315h84z" />
    <glyph glyph-name="thorn" unicode="&#xfe;" horiz-adv-x="557" 
d="M305 518q198 0 198 -213v-105q0 -213 -198 -213q-95 0 -147 53v-270h-85v1000h85v-305q52 53 147 53zM418 300q0 71 -31.5 104t-96.5 33q-117 0 -132 -112v-145q15 -112 132 -112q65 0 96.5 33t31.5 105v94z" />
    <glyph glyph-name="ydieresis" unicode="&#xff;" horiz-adv-x="553" 
d="M221 584h-84v97h84v-97zM416 584h-84v97h84v-97zM480 505v-553q0 -87 -55 -141t-155 -54q-93 0 -143.5 43t-57.5 112h85q15 -74 115 -74q60 0 93.5 31t33.5 89v81q-51 -52 -139 -52q-186 0 -186 223v295h85v-293q0 -144 116 -144q54 0 87 30.5t37 91.5v315h84z" />
    <glyph glyph-name="Amacron" unicode="&#x100;" horiz-adv-x="616" 
d="M472 801h-328v74h328v-74zM444 184h-274l-62 -184h-86l225 705h121l226 -705h-87zM198 268h219l-110 345z" />
    <glyph glyph-name="amacron" unicode="&#x101;" horiz-adv-x="557" 
d="M438 601h-328v74h328v-74zM484 505v-505h-59l-16 51q-54 -64 -158 -64q-197 0 -197 213v105q0 213 197 213q104 0 158 -64l16 51h59zM266 68q123 0 133 122v126q-10 121 -133 121q-65 0 -96 -33t-31 -104v-94q0 -71 31.5 -104.5t95.5 -33.5z" />
    <glyph glyph-name="Abreve" unicode="&#x102;" horiz-adv-x="616" 
d="M307 756q-62 0 -103 36.5t-41 95.5h56q0 -35 24.5 -55.5t63.5 -20.5t64 20.5t25 55.5h56q0 -59 -41 -95.5t-104 -36.5zM444 184h-274l-62 -184h-86l225 705h121l226 -705h-87zM198 268h219l-110 345z" />
    <glyph glyph-name="abreve" unicode="&#x103;" horiz-adv-x="557" 
d="M273 556q-62 0 -103 36.5t-41 95.5h56q0 -35 24.5 -55.5t63.5 -20.5t64 20.5t25 55.5h56q0 -59 -41 -95.5t-104 -36.5zM484 505v-505h-59l-16 51q-54 -64 -158 -64q-197 0 -197 213v105q0 213 197 213q104 0 158 -64l16 51h59zM266 68q123 0 133 122v126
q-10 121 -133 121q-65 0 -96 -33t-31 -104v-94q0 -71 31.5 -104.5t95.5 -33.5z" />
    <glyph glyph-name="Aogonek" unicode="&#x104;" horiz-adv-x="616" 
d="M509 -103q0 -41 48 -41q15 0 31 3v-61q-23 -6 -53 -6q-56 0 -84.5 20t-28.5 68q0 66 84 122l-62 182h-274l-62 -184h-86l225 705h121l226 -705q-85 -50 -85 -103zM198 268h219l-110 345z" />
    <glyph glyph-name="aogonek" unicode="&#x105;" horiz-adv-x="557" 
d="M484 0q-85 -50 -85 -103q0 -41 48 -41q13 0 31 3v-61q-23 -6 -53 -6q-56 0 -84.5 20t-28.5 68q0 74 109 134l-13 39q-56 -66 -157 -66q-197 0 -197 213v105q0 213 197 213q104 0 158 -64l16 51h59v-505zM266 68q123 0 133 122v126q-10 121 -133 121q-65 0 -96 -33
t-31 -104v-94q0 -71 31.5 -104.5t95.5 -33.5z" />
    <glyph glyph-name="Cacute" unicode="&#x106;" horiz-adv-x="649" 
d="M373 762h-91l115 140h107zM325 -12q-129 0 -197.5 59.5t-68.5 163.5v284q0 105 68.5 164t196.5 59q129 0 197.5 -59.5t68.5 -163.5v-47h-91v40q0 146 -174 146q-178 0 -178 -146v-270q0 -146 177 -146q175 0 175 146v40h91v-47q0 -105 -68.5 -164t-196.5 -59z" />
    <glyph glyph-name="cacute" unicode="&#x107;" horiz-adv-x="528" 
d="M306 562h-82l100 164h97zM266 -12q-102 0 -157 55.5t-55 153.5v112q0 99 55 154t157 55q97 0 152.5 -53t55.5 -145v-10h-85v12q0 57 -31.5 86t-91.5 29q-127 0 -127 -133v-102q0 -67 31 -100t96 -33q59 0 91 29.5t32 85.5v12h85v-10q0 -92 -55 -145t-153 -53z" />
    <glyph glyph-name="Cdotaccent" unicode="&#x10a;" horiz-adv-x="649" 
d="M280 888h90v-104h-90v104zM325 -12q-129 0 -197.5 59.5t-68.5 163.5v284q0 105 68.5 164t196.5 59q129 0 197.5 -59.5t68.5 -163.5v-47h-91v40q0 146 -174 146q-178 0 -178 -146v-270q0 -146 177 -146q175 0 175 146v40h91v-47q0 -105 -68.5 -164t-196.5 -59z" />
    <glyph glyph-name="cdotaccent" unicode="&#x10b;" horiz-adv-x="528" 
d="M220 688h90v-104h-90v104zM266 -12q-102 0 -157 55.5t-55 153.5v112q0 99 55 154t157 55q97 0 152.5 -53t55.5 -145v-10h-85v12q0 57 -31.5 86t-91.5 29q-127 0 -127 -133v-102q0 -67 31 -100t96 -33q59 0 91 29.5t32 85.5v12h85v-10q0 -92 -55 -145t-153 -53z" />
    <glyph glyph-name="Ccaron" unicode="&#x10c;" horiz-adv-x="649" 
d="M280 762l-125 125h97l72 -73l72 73h97l-126 -125h-87zM499 448v40q0 146 -174 146q-178 0 -178 -146v-270q0 -146 177 -146q175 0 175 146v40h91v-47q0 -105 -68.5 -164t-196.5 -59q-129 0 -197.5 59.5t-68.5 163.5v284q0 105 68.5 164t196.5 59q129 0 197.5 -59.5
t68.5 -163.5v-47h-91z" />
    <glyph glyph-name="ccaron" unicode="&#x10d;" horiz-adv-x="528" 
d="M226 562l-117 152h87l69 -96l68 96h87l-118 -152h-76zM389 310v12q0 57 -31.5 86t-91.5 29q-127 0 -127 -133v-102q0 -67 31 -100t96 -33q59 0 91 29.5t32 85.5v12h85v-10q0 -92 -55 -145t-153 -53q-102 0 -157 55.5t-55 153.5v112q0 99 55 154t157 55q97 0 152.5 -53
t55.5 -145v-10h-85z" />
    <glyph glyph-name="Dcaron" unicode="&#x10e;" horiz-adv-x="645" 
d="M278 762l-125 125h97l72 -73l72 73h97l-126 -125h-87zM328 705q124 0 191 -58.5t67 -162.5v-263q0 -104 -67 -162.5t-190 -58.5h-253v705h252zM498 477q0 145 -164 145h-170v-538h169q165 0 165 145v248z" />
    <glyph glyph-name="dcaron" unicode="&#x10f;" horiz-adv-x="610" 
d="M399 770h84v-770h-59l-16 51q-52 -64 -157 -64q-197 0 -197 213v105q0 213 197 213q96 0 148 -53v305zM647 770l-38 -187h-77l33 187h82zM266 68q123 0 133 122v126q-10 121 -133 121q-65 0 -96 -33t-31 -104v-94q0 -72 31 -105t96 -33z" />
    <glyph glyph-name="Dcroat" unicode="&#x110;" horiz-adv-x="645" 
d="M328 705q124 0 191 -58.5t67 -162.5v-263q0 -104 -67 -162.5t-190 -58.5h-253v316h-90v74h90v315h252zM498 477q0 145 -164 145h-170v-232h179v-74h-179v-232h169q165 0 165 145v248z" />
    <glyph glyph-name="dcroat" unicode="&#x111;" horiz-adv-x="556" 
d="M555 584h-72v-584h-59l-16 51q-52 -64 -157 -64q-197 0 -197 213v105q0 213 197 213q96 0 148 -53v119h-133v73h133v113h84v-113h72v-73zM266 68q123 0 133 122v126q-10 121 -133 121q-65 0 -96 -33t-31 -104v-94q0 -72 31 -105t96 -33z" />
    <glyph glyph-name="Emacron" unicode="&#x112;" horiz-adv-x="560" 
d="M445 801h-328v74h328v-74zM164 622v-233h298v-84h-298v-221h343v-84h-431v705h431v-83h-343z" />
    <glyph glyph-name="emacron" unicode="&#x113;" horiz-adv-x="529" 
d="M429 601h-328v74h328v-74zM266 518q96 0 153 -52t57 -137v-102h-338v-23q0 -143 131 -143q56 0 88 24.5t32 70.5v6h85q0 -83 -54.5 -128.5t-148.5 -45.5q-106 0 -161.5 58.5t-55.5 158.5v98q0 99 55 157t157 58zM390 299v29q0 117 -121 117q-131 0 -131 -142v-4h252z" />
    <glyph glyph-name="Edotaccent" unicode="&#x116;" horiz-adv-x="560" 
d="M326 784h-90v104h90v-104zM164 622v-233h298v-84h-298v-221h343v-84h-431v705h431v-83h-343z" />
    <glyph glyph-name="edotaccent" unicode="&#x117;" horiz-adv-x="529" 
d="M310 584h-90v104h90v-104zM266 518q96 0 153 -52t57 -137v-102h-338v-23q0 -143 131 -143q56 0 88 24.5t32 70.5v6h85q0 -83 -54.5 -128.5t-148.5 -45.5q-106 0 -161.5 58.5t-55.5 158.5v98q0 99 55 157t157 58zM390 299v29q0 117 -121 117q-131 0 -131 -142v-4h252z" />
    <glyph glyph-name="Eogonek" unicode="&#x118;" horiz-adv-x="560" 
d="M164 622v-233h298v-84h-298v-221h343v-84q-85 -50 -85 -103q0 -41 48 -41q14 0 31 3v-61q-23 -6 -53 -6q-56 0 -84.5 20t-28.5 68q0 65 81 120h-340v705h431v-83h-343z" />
    <glyph glyph-name="eogonek" unicode="&#x119;" horiz-adv-x="529" 
d="M268 518q94 0 151 -52t57 -137v-102h-338v-23q0 -143 133 -143q54 0 86.5 24.5t32.5 70.5v6h85q0 -36 -10.5 -65.5t-25.5 -50t-30.5 -40t-26 -44.5t-10.5 -54q0 -52 55 -52q20 0 32 2v-60q-23 -6 -54 -6q-56 0 -85 21t-29 71q0 53 45 112q-28 -8 -68 -8
q-103 0 -158.5 58.5t-55.5 158.5v98q0 100 55 157.5t159 57.5zM390 299v29q0 117 -121 117q-131 0 -131 -142v-4h252z" />
    <glyph glyph-name="Ecaron" unicode="&#x11a;" horiz-adv-x="560" 
d="M236 762l-125 125h97l72 -73l72 73h97l-126 -125h-87zM164 622v-233h298v-84h-298v-221h343v-84h-431v705h431v-83h-343z" />
    <glyph glyph-name="ecaron" unicode="&#x11b;" horiz-adv-x="529" 
d="M226 562l-117 152h87l69 -96l68 96h87l-118 -152h-76zM266 518q96 0 153 -52t57 -137v-102h-338v-23q0 -143 131 -143q56 0 88 24.5t32 70.5v6h85q0 -83 -54.5 -128.5t-148.5 -45.5q-106 0 -161.5 58.5t-55.5 158.5v98q0 99 55 157t157 58zM390 299v29q0 117 -121 117
q-131 0 -131 -142v-4h252z" />
    <glyph glyph-name="Gbreve" unicode="&#x11e;" horiz-adv-x="649" 
d="M324 756q-62 0 -103 36.5t-41 95.5h56q0 -35 24.5 -55.5t63.5 -20.5t64 20.5t25 55.5h56q0 -59 -41 -95.5t-104 -36.5zM502 459v29q0 146 -177 146q-178 0 -178 -146v-270q0 -147 177 -147q178 0 178 147v69h-188v83h276v-159q0 -105 -68.5 -164.5t-196.5 -59.5
t-197 59.5t-69 164.5v284q0 105 68.5 164t196.5 59q129 0 197.5 -59.5t68.5 -163.5v-36h-88z" />
    <glyph glyph-name="gbreve" unicode="&#x11f;" horiz-adv-x="557" 
d="M273 556q-62 0 -103 36.5t-41 95.5h56q0 -35 24.5 -55.5t63.5 -20.5t64 20.5t25 55.5h56q0 -59 -41 -95.5t-104 -36.5zM484 505v-553q0 -87 -55.5 -141t-158.5 -54q-96 0 -148 42.5t-60 112.5h86q14 -74 121 -74q61 0 95.5 31t34.5 89v82q-52 -53 -148 -53
q-197 0 -197 213v105q0 213 197 213q104 0 158 -64l16 51h59zM266 68q123 0 133 122v126q-10 121 -133 121q-65 0 -96 -33t-31 -104v-94q0 -72 31 -105t96 -33z" />
    <glyph glyph-name="Gdotaccent" unicode="&#x120;" horiz-adv-x="649" 
d="M370 784h-90v104h90v-104zM502 459v29q0 146 -177 146q-178 0 -178 -146v-270q0 -147 177 -147q178 0 178 147v69h-188v83h276v-159q0 -105 -68.5 -164.5t-196.5 -59.5t-197 59.5t-69 164.5v284q0 105 68.5 164t196.5 59q129 0 197.5 -59.5t68.5 -163.5v-36h-88z" />
    <glyph glyph-name="gdotaccent" unicode="&#x121;" horiz-adv-x="557" 
d="M319 584h-90v104h90v-104zM484 505v-553q0 -87 -55.5 -141t-158.5 -54q-96 0 -148 42.5t-60 112.5h86q14 -74 121 -74q61 0 95.5 31t34.5 89v82q-52 -53 -148 -53q-197 0 -197 213v105q0 213 197 213q104 0 158 -64l16 51h59zM266 68q123 0 133 122v126q-10 121 -133 121
q-65 0 -96 -33t-31 -104v-94q0 -72 31 -105t96 -33z" />
    <glyph glyph-name="Gcommaaccent" unicode="&#x122;" horiz-adv-x="649" 
d="M502 459v29q0 146 -177 146q-178 0 -178 -146v-270q0 -147 177 -147q178 0 178 147v69h-188v83h276v-159q0 -105 -68.5 -164.5t-196.5 -59.5t-197 59.5t-69 164.5v284q0 105 68.5 164t196.5 59q129 0 197.5 -59.5t68.5 -163.5v-36h-88zM279 -60h88v-80l-47 -92h-38l30 90
h-33v82z" />
    <glyph glyph-name="gcommaaccent" unicode="&#x123;" horiz-adv-x="557" 
d="M320 565h-88v80l47 92h38l-30 -90h33v-82zM484 505v-553q0 -87 -55.5 -141t-158.5 -54q-96 0 -148 42.5t-60 112.5h86q14 -74 121 -74q61 0 95.5 31t34.5 89v82q-52 -53 -148 -53q-197 0 -197 213v105q0 213 197 213q104 0 158 -64l16 51h59zM266 68q123 0 133 122v126
q-10 121 -133 121q-65 0 -96 -33t-31 -104v-94q0 -72 31 -105t96 -33z" />
    <glyph glyph-name="Hbar" unicode="&#x126;" horiz-adv-x="659" 
d="M658 502h-75v-502h-88v305h-331v-305h-88v502h-74v74h74v129h88v-129h331v129h88v-129h75v-74zM495 502h-331v-113h331v113z" />
    <glyph glyph-name="hbar" unicode="&#x127;" horiz-adv-x="568" 
d="M307 518q192 0 192 -223v-295h-84v293q0 144 -125 144q-117 0 -132 -113v-324h-85v584h-73v73h73v113h85v-113h131v-73h-131v-120q54 54 149 54z" />
    <glyph glyph-name="Imacron" unicode="&#x12a;" horiz-adv-x="240" 
d="M284 801h-328v74h328v-74zM76 705h88v-705h-88v705z" />
    <glyph glyph-name="imacron" unicode="&#x12b;" horiz-adv-x="236" 
d="M282 601h-328v74h328v-74zM75 505h85v-505h-85v505z" />
    <glyph glyph-name="Iogonek" unicode="&#x12e;" horiz-adv-x="240" 
d="M164 0q-85 -50 -85 -103q0 -41 48 -41q15 0 31 3v-61q-23 -6 -53 -6q-56 0 -84.5 20t-28.5 68q0 67 84 122v703h88v-705z" />
    <glyph glyph-name="iogonek" unicode="&#x12f;" horiz-adv-x="236" 
d="M163 688v-104h-90v104h90zM75 505h85v-505q-85 -50 -85 -103q0 -41 48 -41q15 0 31 3v-61q-23 -6 -53 -6q-56 0 -84.5 20t-28.5 68q0 68 87 124v501z" />
    <glyph glyph-name="Idotaccent" unicode="&#x130;" horiz-adv-x="240" 
d="M75 888h90v-104h-90v104zM76 705h88v-705h-88v705z" />
    <glyph glyph-name="dotlessi" unicode="&#x131;" horiz-adv-x="236" 
d="M75 505h85v-505h-85v505z" />
    <glyph glyph-name="IJ" unicode="&#x132;" horiz-adv-x="608" 
d="M76 705h88v-705h-88v705zM254 84h55q66 0 100.5 38t34.5 106v477h88v-481q0 -100 -61.5 -162t-165.5 -62h-51v84z" />
    <glyph glyph-name="ij" unicode="&#x133;" horiz-adv-x="492" 
d="M73 688h90v-104h-90v104zM326 688h90v-104h-90v104zM75 505h85v-505h-85v505zM205 -149h21q57 0 80 31t23 93v530h84v-554q0 -92 -44.5 -136.5t-120.5 -44.5h-43v81z" />
    <glyph glyph-name="Kcommaaccent" unicode="&#x136;" horiz-adv-x="601" 
d="M576 0h-110l-302 341v-341h-88v705h88v-320l290 320h110l-298 -343zM256 -60h88v-80l-47 -92h-38l30 90h-33v82z" />
    <glyph glyph-name="kcommaaccent" unicode="&#x137;" horiz-adv-x="514" 
d="M249 276l247 -276h-103l-233 256v-256h-85v770h85v-474l229 209h107zM208 -60h88v-80l-47 -92h-38l30 90h-33v82z" />
    <glyph glyph-name="Lacute" unicode="&#x139;" horiz-adv-x="540" 
d="M168 762h-91l115 140h107zM510 84v-84h-434v705h88v-621h346z" />
    <glyph glyph-name="lacute" unicode="&#x13a;" horiz-adv-x="236" 
d="M166 827h-91l115 140h107zM160 770v-770h-85v770h85z" />
    <glyph glyph-name="Lcommaaccent" unicode="&#x13b;" horiz-adv-x="540" 
d="M510 84v-84h-434v705h88v-621h346zM226 -60h88v-80l-47 -92h-38l30 90h-33v82z" />
    <glyph glyph-name="lcommaaccent" unicode="&#x13c;" horiz-adv-x="236" 
d="M160 770v-770h-85v770h85zM72 -60h88v-80l-47 -92h-38l30 90h-33v82z" />
    <glyph glyph-name="Lcaron" unicode="&#x13d;" horiz-adv-x="540" 
d="M460 526h-77l33 187h82zM510 84v-84h-434v705h88v-621h346z" />
    <glyph glyph-name="lcaron" unicode="&#x13e;" horiz-adv-x="290" 
d="M160 770v-770h-85v770h85zM285 583h-77l33 187h82z" />
    <glyph glyph-name="Ldot" unicode="&#x13f;" horiz-adv-x="542" 
d="M510 84v-84h-434v705h88v-621h346zM437 292h-84v125h84v-125z" />
    <glyph glyph-name="ldot" unicode="&#x140;" horiz-adv-x="303" 
d="M160 770v-770h-85v770h85zM231 445h85v-125h-85v125z" />
    <glyph glyph-name="Lslash" unicode="&#x141;" horiz-adv-x="540" 
d="M510 84v-84h-434v258l-93 -36v86l93 36v361h88v-327l227 88v-86l-227 -88v-208h346z" />
    <glyph glyph-name="lslash" unicode="&#x142;" horiz-adv-x="236" 
d="M243 403l-83 -50v-353h-85v301l-83 -50v93l83 50v376h85v-324l83 50v-93z" />
    <glyph glyph-name="Nacute" unicode="&#x143;" horiz-adv-x="635" 
d="M366 762h-91l115 140h107zM559 705v-705h-82l-319 543v-543h-82v705h82l319 -544v544h82z" />
    <glyph glyph-name="nacute" unicode="&#x144;" horiz-adv-x="568" 
d="M325 562h-82l100 164h97zM307 518q192 0 192 -223v-295h-84v293q0 144 -125 144q-117 0 -132 -112v-325h-85v505h57l15 -55q55 68 162 68z" />
    <glyph glyph-name="Ncommaaccent" unicode="&#x145;" horiz-adv-x="635" 
d="M559 705v-705h-82l-319 543v-543h-82v705h82l319 -544v544h82zM272 -60h88v-80l-47 -92h-38l30 90h-33v82z" />
    <glyph glyph-name="ncommaaccent" unicode="&#x146;" horiz-adv-x="568" 
d="M307 518q192 0 192 -223v-295h-84v293q0 144 -125 144q-117 0 -132 -112v-325h-85v505h57l15 -55q55 68 162 68zM238 -60h88v-80l-47 -92h-38l30 90h-33v82z" />
    <glyph glyph-name="Ncaron" unicode="&#x147;" horiz-adv-x="635" 
d="M273 762l-125 125h97l72 -73l72 73h97l-126 -125h-87zM559 705v-705h-82l-319 543v-543h-82v705h82l319 -544v544h82z" />
    <glyph glyph-name="ncaron" unicode="&#x148;" horiz-adv-x="568" 
d="M245 562l-117 152h87l69 -96l68 96h87l-118 -152h-76zM307 518q192 0 192 -223v-295h-84v293q0 144 -125 144q-117 0 -132 -112v-325h-85v505h57l15 -55q55 68 162 68z" />
    <glyph glyph-name="Eng" unicode="&#x14a;" horiz-adv-x="635" 
d="M559 705v-678q0 -100 -60.5 -159.5t-166.5 -59.5h-44v82h49q59 0 94 30t43 83l-315 538v-541h-83v705h83l317 -542v542h83z" />
    <glyph glyph-name="eng" unicode="&#x14b;" horiz-adv-x="568" 
d="M307 518q192 0 192 -223v-344q0 -92 -44.5 -136.5t-120.5 -44.5h-43v81h21q57 0 80 31t23 93v318q0 144 -125 144q-117 0 -132 -112v-325h-85v505h59l14 -54q54 67 161 67z" />
    <glyph glyph-name="Omacron" unicode="&#x14c;" horiz-adv-x="652" 
d="M490 801h-328v74h328v-74zM327 -13q-131 0 -199.5 59t-68.5 164v282q0 106 68.5 166t198.5 60q131 0 199 -60t68 -166v-282q0 -105 -68 -164t-198 -59zM326 71q94 0 136.5 37t42.5 110v267q0 74 -42 111.5t-136 37.5t-137 -37.5t-43 -111.5v-267q0 -73 42.5 -110
t136.5 -37z" />
    <glyph glyph-name="omacron" unicode="&#x14d;" horiz-adv-x="539" 
d="M434 601h-328v74h328v-74zM270 -13q-105 0 -160.5 55.5t-55.5 154.5v112q0 99 55.5 154t159.5 55q105 0 160.5 -55t55.5 -154v-112q0 -99 -55.5 -154.5t-159.5 -55.5zM269 68q131 0 131 134v102q0 68 -31.5 100.5t-98.5 32.5q-68 0 -99.5 -33t-31.5 -100v-102
q0 -68 31.5 -101t98.5 -33z" />
    <glyph glyph-name="Ohungarumlaut" unicode="&#x150;" horiz-adv-x="652" 
d="M276 762h-77l86 118h82zM461 762h-77l86 118h82zM327 -13q-131 0 -199.5 59t-68.5 164v282q0 106 68.5 166t198.5 60q131 0 199 -60t68 -166v-282q0 -105 -68 -164t-198 -59zM326 71q94 0 136.5 37t42.5 110v267q0 74 -42 111.5t-136 37.5t-137 -37.5t-43 -111.5v-267
q0 -73 42.5 -110t136.5 -37z" />
    <glyph glyph-name="ohungarumlaut" unicode="&#x151;" horiz-adv-x="539" 
d="M217 562h-73l68 129h78zM402 562h-74l68 129h78zM270 -13q-105 0 -160.5 55.5t-55.5 154.5v112q0 99 55.5 154t159.5 55q105 0 160.5 -55t55.5 -154v-112q0 -99 -55.5 -154.5t-159.5 -55.5zM269 68q131 0 131 134v102q0 68 -31.5 100.5t-98.5 32.5q-68 0 -99.5 -33
t-31.5 -100v-102q0 -68 31.5 -101t98.5 -33z" />
    <glyph glyph-name="OE" unicode="&#x152;" horiz-adv-x="990" 
d="M593 389h298v-84h-298v-221h343v-84h-431v31q-68 -44 -178 -44q-131 0 -199.5 59t-68.5 164v282q0 106 68.5 166t198.5 60q111 0 179 -45v32h431v-83h-343v-233zM326 71q94 0 136.5 37t42.5 110v267q0 74 -42 111.5t-136 37.5t-137 -37.5t-43 -111.5v-267
q0 -73 42.5 -110t136.5 -37z" />
    <glyph glyph-name="oe" unicode="&#x153;" horiz-adv-x="869" 
d="M606 518q96 0 153 -52t57 -137v-102h-331v-30q0 -21 -3 -41q20 -95 127 -95q56 0 88 24.5t32 70.5v6h85q0 -83 -54.5 -128.5t-148.5 -45.5q-113 0 -170 67q-56 -68 -171 -68q-105 0 -160.5 55.5t-55.5 154.5v112q0 99 55.5 154t159.5 55q116 0 172 -67q55 67 165 67z
M730 299v29q0 117 -121 117q-107 0 -127 -95q3 -20 3 -41v-10h245zM269 68q111 0 128 94q-3 21 -3 43v98q0 21 3 42q-17 92 -127 92q-68 0 -99.5 -33t-31.5 -100v-102q0 -68 31.5 -101t98.5 -33z" />
    <glyph glyph-name="Racute" unicode="&#x154;" horiz-adv-x="623" 
d="M355 762h-91l115 140h107zM486 0l-128 293h-194v-293h-88v705h276q103 0 159.5 -49t56.5 -136v-41q0 -131 -120 -172l130 -307h-92zM164 377h193q124 0 124 102v41q0 102 -123 102h-194v-245z" />
    <glyph glyph-name="racute" unicode="&#x155;" horiz-adv-x="361" 
d="M220 562h-82l100 164h97zM149 453q56 61 156 61q19 0 29 -1v-78q-23 5 -43 5q-58 0 -95.5 -31.5t-37.5 -90.5v-318h-85v505h59z" />
    <glyph glyph-name="Rcommaaccent" unicode="&#x156;" horiz-adv-x="623" 
d="M486 0l-128 293h-194v-293h-88v705h276q103 0 159.5 -49t56.5 -136v-41q0 -131 -120 -172l130 -307h-92zM164 377h193q124 0 124 102v41q0 102 -123 102h-194v-245zM267 -60h88v-80l-47 -92h-38l30 90h-33v82z" />
    <glyph glyph-name="rcommaaccent" unicode="&#x157;" horiz-adv-x="361" 
d="M305 514q19 0 29 -1v-78q-23 5 -43 5q-58 0 -95.5 -31.5t-37.5 -90.5v-318h-85v505h59l17 -52q56 61 156 61zM172 -60h88v-80l-47 -92h-38l30 90h-33v82z" />
    <glyph glyph-name="Rcaron" unicode="&#x158;" horiz-adv-x="623" 
d="M262 762l-125 125h97l72 -73l72 73h97l-126 -125h-87zM486 0l-128 293h-194v-293h-88v705h276q103 0 159.5 -49t56.5 -136v-41q0 -131 -120 -172l130 -307h-92zM164 377h193q124 0 124 102v41q0 102 -123 102h-194v-245z" />
    <glyph glyph-name="rcaron" unicode="&#x159;" horiz-adv-x="361" 
d="M140 562l-117 152h87l69 -96l68 96h87l-118 -152h-76zM149 453q56 61 156 61q19 0 29 -1v-78q-23 5 -43 5q-58 0 -95.5 -31.5t-37.5 -90.5v-318h-85v505h59z" />
    <glyph glyph-name="Sacute" unicode="&#x15a;" horiz-adv-x="618" 
d="M357 762h-91l115 140h107zM311 -13q-123 0 -192.5 59t-69.5 155v27h88v-32q0 -57 48 -91.5t128 -34.5q76 0 121.5 32.5t45.5 89.5q0 50 -42.5 80t-103.5 46t-122.5 34.5t-104 61t-42.5 111.5q0 85 60.5 139t179.5 54q121 0 184.5 -55.5t63.5 -147.5v-31h-87v34
q0 52 -43 84t-118 32q-72 0 -112 -29t-40 -78q0 -32 23 -54.5t59.5 -36t80.5 -25.5t88.5 -27.5t81 -37t59.5 -60t23 -90.5q1 -92 -66.5 -150.5t-190.5 -58.5z" />
    <glyph glyph-name="sacute" unicode="&#x15b;" horiz-adv-x="485" 
d="M283 562h-82l100 164h97zM247 -12q-96 0 -151 45.5t-55 122.5v10h84v-9q0 -44 33 -68.5t93 -24.5q48 0 79.5 19t31.5 53q0 32 -32 51t-77.5 29t-90.5 23t-77 44t-32 82q0 70 52 111.5t139 41.5q92 0 144 -44.5t52 -119.5v-10h-84v10q0 41 -29 64.5t-82 23.5
q-50 0 -79 -20t-29 -51q0 -30 32 -47t77.5 -27t90.5 -23.5t77 -46.5t32 -85q0 -74 -57 -114t-142 -40z" />
    <glyph glyph-name="Scedilla" unicode="&#x15e;" horiz-adv-x="618" 
d="M568 196q1 -86 -58.5 -143.5t-168.5 -64.5l-31 -143h-92l47 144q-103 11 -159.5 68.5t-56.5 143.5v27h88v-32q0 -57 48 -91.5t128 -34.5q76 0 121.5 32.5t45.5 89.5q0 50 -42.5 80t-103.5 46t-122.5 34.5t-104 61t-42.5 111.5q0 85 60.5 139t179.5 54q121 0 184.5 -55.5
t63.5 -147.5v-31h-87v34q0 52 -43 84t-118 32q-72 0 -112 -29t-40 -78q0 -32 23 -54.5t59.5 -36t80.5 -25.5t88.5 -27.5t81 -37t59.5 -60t23 -90.5z" />
    <glyph glyph-name="scedilla" unicode="&#x15f;" horiz-adv-x="485" 
d="M446 142q0 -67 -47 -106t-121 -46l-31 -145h-92l48 146q-77 10 -119.5 54t-42.5 111v10h84v-9q0 -44 33 -68.5t93 -24.5q48 0 79.5 19t31.5 53q0 32 -32 51t-77.5 29t-90.5 23t-77 44t-32 82q0 70 52 111.5t139 41.5q92 0 144 -44.5t52 -119.5v-10h-84v10q0 41 -29 64.5
t-82 23.5q-50 0 -79 -20t-29 -51q0 -30 32 -47t77.5 -27t90.5 -23.5t77 -46.5t32 -85z" />
    <glyph glyph-name="Scaron" unicode="&#x160;" horiz-adv-x="618" 
d="M264 762l-125 125h97l72 -73l72 73h97l-126 -125h-87zM568 196q1 -92 -66.5 -150.5t-190.5 -58.5t-192.5 59t-69.5 155v27h88v-32q0 -57 48 -91.5t128 -34.5q76 0 121.5 32.5t45.5 89.5q0 50 -42.5 80t-103.5 46t-122.5 34.5t-104 61t-42.5 111.5q0 85 60.5 139t179.5 54
q121 0 184.5 -55.5t63.5 -147.5v-31h-87v34q0 52 -43 84t-118 32q-72 0 -112 -29t-40 -78q0 -32 23 -54.5t59.5 -36t80.5 -25.5t88.5 -27.5t81 -37t59.5 -60t23 -90.5z" />
    <glyph glyph-name="scaron" unicode="&#x161;" horiz-adv-x="485" 
d="M203 562l-117 152h87l69 -96l68 96h87l-118 -152h-76zM137 371q0 -30 32 -47t77.5 -27t90.5 -23.5t77 -46.5t32 -85q0 -74 -57 -114t-142 -40q-96 0 -151 45.5t-55 122.5v10h84v-9q0 -44 33 -68.5t93 -24.5q48 0 79.5 19t31.5 53q0 32 -32 51t-77.5 29t-90.5 23t-77 44
t-32 82q0 70 52 111.5t139 41.5q92 0 144 -44.5t52 -119.5v-10h-84v10q0 41 -29 64.5t-82 23.5q-50 0 -79 -20t-29 -51z" />
    <glyph glyph-name="uni0162" unicode="&#x162;" horiz-adv-x="555" 
d="M542 622h-221v-622h-6l-34 -155h-91l51 155h-8v622h-221v83h530v-83z" />
    <glyph glyph-name="uni0163" unicode="&#x163;" horiz-adv-x="338" 
d="M318 81v-81h-77l-34 -155h-92l55 170q-84 34 -84 160v250h-68v80h68v148h85v-148h138v-80h-138v-231q0 -60 25 -86.5t78 -26.5h44z" />
    <glyph glyph-name="Tcaron" unicode="&#x164;" horiz-adv-x="555" 
d="M232 762l-125 125h97l72 -73l72 73h97l-126 -125h-87zM542 622h-221v-622h-88v622h-221v83h530v-83z" />
    <glyph glyph-name="tcaron" unicode="&#x165;" horiz-adv-x="392" 
d="M362 803l-38 -187h-77l33 187h82zM171 194q0 -60 25 -86.5t78 -26.5h44v-81h-62q-86 0 -128 42.5t-42 132.5v250h-68v80h68v148h85v-148h138v-80h-138v-231z" />
    <glyph glyph-name="Tbar" unicode="&#x166;" horiz-adv-x="555" 
d="M321 622v-232h134v-74h-134v-316h-88v316h-135v74h135v232h-221v83h530v-83h-221z" />
    <glyph glyph-name="tbar" unicode="&#x167;" horiz-adv-x="338" 
d="M318 81v-81h-62q-86 0 -128 42.5t-42 132.5v73h-67v73h67v104h-68v80h68v148h85v-148h138v-80h-138v-104h137v-73h-137v-54q0 -60 25 -86.5t78 -26.5h44z" />
    <glyph glyph-name="Umacron" unicode="&#x16a;" horiz-adv-x="634" 
d="M481 801h-328v74h328v-74zM317 -13q-125 0 -191.5 59.5t-66.5 163.5v495h88v-487q0 -147 170 -147t170 147v487h88v-495q0 -104 -66.5 -163.5t-191.5 -59.5z" />
    <glyph glyph-name="umacron" unicode="&#x16b;" horiz-adv-x="550" 
d="M440 601h-328v74h328v-74zM477 505v-505h-57l-15 53q-51 -66 -152 -66q-185 0 -185 223v295h85v-293q0 -144 115 -144q52 0 84.5 28t39.5 84v325h85z" />
    <glyph glyph-name="Uring" unicode="&#x16e;" horiz-adv-x="634" 
d="M317 976q50 0 82.5 -30.5t32.5 -79.5t-32.5 -79.5t-82.5 -30.5q-51 0 -83 30.5t-32 79.5t32 79.5t83 30.5zM317 920q-28 0 -44 -14.5t-16 -39.5t16 -39.5t44 -14.5t44 14.5t16 39.5t-16 39.5t-44 14.5zM317 -13q-125 0 -191.5 59.5t-66.5 163.5v495h88v-487
q0 -147 170 -147t170 147v487h88v-495q0 -104 -66.5 -163.5t-191.5 -59.5z" />
    <glyph glyph-name="uring" unicode="&#x16f;" horiz-adv-x="550" 
d="M276 556q-51 0 -83 30.5t-32 79.5t32 79.5t83 30.5q50 0 82.5 -30.5t32.5 -79.5t-32.5 -79.5t-82.5 -30.5zM276 720q-28 0 -44 -14.5t-16 -39.5t16 -39.5t44 -14.5t44 14.5t16 39.5t-16 39.5t-44 14.5zM477 505v-505h-57l-15 53q-51 -66 -152 -66q-185 0 -185 223v295h85
v-293q0 -144 115 -144q52 0 84.5 28t39.5 84v325h85z" />
    <glyph glyph-name="Uhungarumlaut" unicode="&#x170;" horiz-adv-x="634" 
d="M267 762h-77l86 118h82zM452 762h-77l86 118h82zM317 -13q-125 0 -191.5 59.5t-66.5 163.5v495h88v-487q0 -147 170 -147t170 147v487h88v-495q0 -104 -66.5 -163.5t-191.5 -59.5z" />
    <glyph glyph-name="uhungarumlaut" unicode="&#x171;" horiz-adv-x="550" 
d="M223 562h-73l68 129h78zM408 562h-74l68 129h78zM392 505h85v-505h-57l-15 53q-51 -66 -152 -66q-185 0 -185 223v295h85v-293q0 -144 115 -144q52 0 84.5 28t39.5 84v325z" />
    <glyph glyph-name="Uogonek" unicode="&#x172;" horiz-adv-x="634" 
d="M575 705v-495q0 -119 -85 -178h1q-43 -31 -66 -66t-23 -64q0 -47 53 -47q14 0 31 3v-60q-23 -6 -53 -6q-113 0 -113 92q0 49 51 106q-25 -3 -54 -3q-125 0 -191.5 59.5t-66.5 163.5v495h88v-487q0 -147 170 -147t170 147v487h88z" />
    <glyph glyph-name="uogonek" unicode="&#x173;" horiz-adv-x="550" 
d="M477 0q-85 -50 -85 -103q0 -41 48 -41q14 0 31 3v-61q-23 -6 -53 -6q-56 0 -84.5 20t-28.5 68q0 75 111 135l-12 41q-54 -69 -151 -69q-86 0 -135.5 55t-49.5 168v295h85v-293q0 -144 115 -144q52 0 84.5 28t39.5 84v325h85v-505z" />
    <glyph glyph-name="Wcircumflex" unicode="&#x174;" horiz-adv-x="891" 
d="M374 760h-97l126 125h87l125 -125h-97l-72 73zM869 706l-174 -706h-112l-137 534l-138 -534h-112l-174 706h91l143 -608l149 608h78l154 -609l141 609h91z" />
    <glyph glyph-name="wcircumflex" unicode="&#x175;" horiz-adv-x="671" 
d="M269 563h-87l118 152h76l117 -152h-87l-69 96zM660 505l-129 -505h-87l-108 339l-108 -339h-87l-129 505h86l94 -412l109 412h69l109 -414l94 414h87z" />
    <glyph glyph-name="Ycircumflex" unicode="&#x176;" horiz-adv-x="579" 
d="M218 760h-97l126 125h87l125 -125h-97l-72 73zM333 263v-263h-88v262l-223 444h96l172 -341l172 341h95z" />
    <glyph glyph-name="ycircumflex" unicode="&#x177;" horiz-adv-x="553" 
d="M210 563h-87l118 152h76l117 -152h-87l-69 96zM480 505v-553q0 -87 -55 -141t-155 -54q-93 0 -143.5 43t-57.5 112h85q15 -74 115 -74q60 0 93.5 31t33.5 89v81q-51 -52 -139 -52q-186 0 -186 223v295h85v-293q0 -144 116 -144q54 0 87 30.5t37 91.5v315h84z" />
    <glyph glyph-name="Ydieresis" unicode="&#x178;" horiz-adv-x="579" 
d="M234 784h-84v97h84v-97zM429 784h-84v97h84v-97zM333 263v-263h-88v262l-223 444h96l172 -341l172 341h95z" />
    <glyph glyph-name="Zacute" unicode="&#x179;" horiz-adv-x="579" 
d="M337 762h-91l115 140h107zM539 84v-84h-499v88l389 534h-372v83h475v-88l-388 -533h395z" />
    <glyph glyph-name="zacute" unicode="&#x17a;" horiz-adv-x="488" 
d="M285 562h-82l100 164h97zM443 438l-283 -357h283v-81h-399v67l285 358h-271v80h385v-67z" />
    <glyph glyph-name="Zdotaccent" unicode="&#x17b;" horiz-adv-x="579" 
d="M334 784h-90v104h90v-104zM539 84v-84h-499v88l389 534h-372v83h475v-88l-388 -533h395z" />
    <glyph glyph-name="zdotaccent" unicode="&#x17c;" horiz-adv-x="488" 
d="M289 584h-90v104h90v-104zM443 438l-283 -357h283v-81h-399v67l285 358h-271v80h385v-67z" />
    <glyph glyph-name="Zcaron" unicode="&#x17d;" horiz-adv-x="579" 
d="M244 762l-125 125h97l72 -73l72 73h97l-126 -125h-87zM539 84v-84h-499v88l389 534h-372v83h475v-88l-388 -533h395z" />
    <glyph glyph-name="zcaron" unicode="&#x17e;" horiz-adv-x="488" 
d="M205 562l-117 152h87l69 -96l68 96h87l-118 -152h-76zM443 438l-283 -357h283v-81h-399v67l285 358h-271v80h385v-67z" />
    <glyph glyph-name="uni01CD" unicode="&#x1cd;" horiz-adv-x="616" 
d="M263 762l-125 125h97l72 -73l72 73h97l-126 -125h-87zM444 184h-274l-62 -184h-86l225 705h121l226 -705h-87zM198 268h219l-110 345z" />
    <glyph glyph-name="uni01CE" unicode="&#x1ce;" horiz-adv-x="557" 
d="M235 562l-117 152h87l69 -96l68 96h87l-118 -152h-76zM484 505v-505h-59l-16 51q-54 -64 -158 -64q-197 0 -197 213v105q0 213 197 213q104 0 158 -64l16 51h59zM266 68q123 0 133 122v126q-10 121 -133 121q-65 0 -96 -33t-31 -104v-94q0 -71 31.5 -104.5t95.5 -33.5z
" />
    <glyph glyph-name="uni01CF" unicode="&#x1cf;" horiz-adv-x="240" 
d="M162 762h-87l-125 125h97l72 -73l72 73h97zM76 705h88v-705h-88v705z" />
    <glyph glyph-name="uni01D0" unicode="&#x1d0;" horiz-adv-x="236" 
d="M79 562l-117 152h87l69 -96l68 96h87l-118 -152h-76zM75 505h85v-505h-85v505z" />
    <glyph glyph-name="uni01D1" unicode="&#x1d1;" horiz-adv-x="652" 
d="M281 762l-125 125h97l72 -73l72 73h97l-126 -125h-87zM326 718q131 0 199 -60t68 -166v-282q0 -105 -68 -164t-198 -59q-131 0 -199.5 59t-68.5 164v282q0 106 68.5 166t198.5 60zM505 485q0 74 -42 111.5t-136 37.5t-137 -37.5t-43 -111.5v-267q0 -73 42.5 -110
t136.5 -37t136.5 37t42.5 110v267z" />
    <glyph glyph-name="uni01D2" unicode="&#x1d2;" horiz-adv-x="539" 
d="M231 562l-117 152h87l69 -96l68 96h87l-118 -152h-76zM269 518q105 0 160.5 -55t55.5 -154v-112q0 -99 -55.5 -154.5t-159.5 -55.5q-105 0 -160.5 55.5t-55.5 154.5v112q0 99 55.5 154t159.5 55zM400 304q0 68 -31.5 100.5t-98.5 32.5q-68 0 -99.5 -33t-31.5 -100v-102
q0 -68 31.5 -101t98.5 -33q131 0 131 134v102z" />
    <glyph glyph-name="uni01D3" unicode="&#x1d3;" horiz-adv-x="634" 
d="M272 762l-125 125h97l72 -73l72 73h97l-126 -125h-87zM575 705v-495q0 -104 -66.5 -163.5t-191.5 -59.5t-191.5 59.5t-66.5 163.5v495h88v-487q0 -147 170 -147t170 147v487h88z" />
    <glyph glyph-name="uni01D4" unicode="&#x1d4;" horiz-adv-x="550" 
d="M237 562l-117 152h87l69 -96l68 96h87l-118 -152h-76zM477 505v-505h-57l-15 53q-51 -66 -152 -66q-185 0 -185 223v295h85v-293q0 -144 115 -144q52 0 84.5 28t39.5 84v325h85z" />
    <glyph glyph-name="Scommaaccent" unicode="&#x218;" horiz-adv-x="618" 
d="M568 196q1 -92 -66.5 -150.5t-190.5 -58.5t-192.5 59t-69.5 155v27h88v-32q0 -57 48 -91.5t128 -34.5q76 0 121.5 32.5t45.5 89.5q0 50 -42.5 80t-103.5 46t-122.5 34.5t-104 61t-42.5 111.5q0 85 60.5 139t179.5 54q121 0 184.5 -55.5t63.5 -147.5v-31h-87v34
q0 52 -43 84t-118 32q-72 0 -112 -29t-40 -78q0 -32 23 -54.5t59.5 -36t80.5 -25.5t88.5 -27.5t81 -37t59.5 -60t23 -90.5zM263 -60h88v-80l-47 -92h-38l30 90h-33v82z" />
    <glyph glyph-name="scommaaccent" unicode="&#x219;" horiz-adv-x="485" 
d="M137 371q0 -30 32 -47t77.5 -27t90.5 -23.5t77 -46.5t32 -85q0 -74 -57 -114t-142 -40q-96 0 -151 45.5t-55 122.5v10h84v-9q0 -44 33 -68.5t93 -24.5q48 0 79.5 19t31.5 53q0 32 -32 51t-77.5 29t-90.5 23t-77 44t-32 82q0 70 52 111.5t139 41.5q92 0 144 -44.5
t52 -119.5v-10h-84v10q0 41 -29 64.5t-82 23.5q-50 0 -79 -20t-29 -51zM200 -60h88v-80l-47 -92h-38l30 90h-33v82z" />
    <glyph glyph-name="uni021A" unicode="&#x21a;" horiz-adv-x="555" 
d="M542 622h-221v-622h-88v622h-221v83h530v-83zM229 -60h88v-80l-47 -92h-38l30 90h-33v82z" />
    <glyph glyph-name="uni021B" unicode="&#x21b;" horiz-adv-x="338" 
d="M318 81v-81h-62q-86 0 -128 42.5t-42 132.5v250h-68v80h68v148h85v-148h138v-80h-138v-231q0 -60 25 -86.5t78 -26.5h44zM160 -60h88v-80l-47 -92h-38l30 90h-33v82z" />
    <glyph glyph-name="uni0237" unicode="&#x237;" horiz-adv-x="256" 
d="M-31 -149h21q57 0 80 31t23 93v530h84v-554q0 -92 -44.5 -136.5t-120.5 -44.5h-43v81z" />
    <glyph glyph-name="circumflex" unicode="&#x2c6;" horiz-adv-x="369" 
d="M253 563l-69 96l-68 -96h-87l118 152h76l117 -152h-87z" />
    <glyph glyph-name="caron" unicode="&#x2c7;" horiz-adv-x="366" 
d="M337 714l-118 -152h-76l-117 152h87l69 -96l68 96h87z" />
    <glyph glyph-name="breve" unicode="&#x2d8;" horiz-adv-x="345" 
d="M171 556q-62 0 -103 36.5t-41 95.5h56q0 -35 24.5 -55.5t63.5 -20.5t64 20.5t25 55.5h56q0 -59 -41 -95.5t-104 -36.5z" />
    <glyph glyph-name="dotaccent" unicode="&#x2d9;" horiz-adv-x="145" 
d="M25 688h90v-104h-90v104z" />
    <glyph glyph-name="ring" unicode="&#x2da;" horiz-adv-x="303" 
d="M150 776q50 0 82.5 -30.5t32.5 -79.5t-32.5 -79.5t-82.5 -30.5q-51 0 -83 30.5t-32 79.5t32 79.5t83 30.5zM150 720q-28 0 -44 -14.5t-16 -39.5t16 -39.5t44 -14.5t44 14.5t16 39.5t-16 39.5t-44 14.5z" />
    <glyph glyph-name="ogonek" unicode="&#x2db;" horiz-adv-x="187" 
d="M159 -202q-23 -6 -53 -6q-56 0 -84.5 20t-28.5 68q0 82 123 145l49 -25q-85 -50 -85 -103q0 -41 48 -41q14 0 31 3v-61z" />
    <glyph glyph-name="tilde" unicode="&#x2dc;" horiz-adv-x="370" 
d="M363 703q0 -131 -90 -131q-36 0 -80 32.5t-64 32.5q-42 0 -42 -65h-64q0 131 90 131q35 0 79.5 -32t65.5 -32q41 0 41 64h64z" />
    <glyph glyph-name="hungarumlaut" unicode="&#x2dd;" horiz-adv-x="344" 
d="M99 562h-73l68 129h78zM284 562h-74l68 129h78z" />
    <glyph glyph-name="gravecomb" unicode="&#x300;" horiz-adv-x="0" 
d="M-129 726l100 -164h-82l-115 164h97z" />
    <glyph glyph-name="acutecomb" unicode="&#x301;" horiz-adv-x="0" 
d="M-144 562h-82l100 164h97z" />
    <glyph glyph-name="uni0302" unicode="&#x302;" horiz-adv-x="0" 
d="M-123 563l-69 96l-68 -96h-87l118 152h76l117 -152h-87z" />
    <glyph glyph-name="tildecomb" unicode="&#x303;" horiz-adv-x="0" 
d="M-25 703q0 -131 -90 -131q-36 0 -80 32.5t-64 32.5q-42 0 -42 -65h-64q0 131 90 131q35 0 80 -32t65 -32q41 0 41 64h64z" />
    <glyph glyph-name="uni0304" unicode="&#x304;" horiz-adv-x="0" 
d="M-34 601h-328v74h328v-74z" />
    <glyph glyph-name="uni0306" unicode="&#x306;" horiz-adv-x="0" 
d="M-181 556q-62 0 -103 36.5t-41 95.5h56q0 -35 24.5 -55.5t63.5 -20.5t64 20.5t25 55.5h56q0 -59 -41 -95.5t-104 -36.5z" />
    <glyph glyph-name="uni0307" unicode="&#x307;" horiz-adv-x="0" 
d="M-124 688h90v-104h-90v104z" />
    <glyph glyph-name="uni0308" unicode="&#x308;" horiz-adv-x="0" 
d="M-305 681h84v-97h-84v97zM-110 681h84v-97h-84v97z" />
    <glyph glyph-name="uni030A" unicode="&#x30a;" horiz-adv-x="0" 
d="M-152 776q50 0 82.5 -30.5t32.5 -79.5t-32.5 -79.5t-82.5 -30.5q-51 0 -83 30.5t-32 79.5t32 79.5t83 30.5zM-152 720q-28 0 -44 -14.5t-16 -39.5t16 -39.5t44 -14.5t44 14.5t16 39.5t-16 39.5t-44 14.5z" />
    <glyph glyph-name="uni030B" unicode="&#x30b;" horiz-adv-x="0" 
d="M-262 562h-73l68 129h78zM-77 562h-74l68 129h78z" />
    <glyph glyph-name="uni030C" unicode="&#x30c;" horiz-adv-x="0" 
d="M-38 714l-118 -152h-76l-117 152h87l69 -96l68 96h87z" />
    <glyph glyph-name="uni0326" unicode="&#x326;" horiz-adv-x="0" 
d="M-50 -60v-80l-47 -92h-38l30 90h-33v82h88z" />
    <glyph glyph-name="uni0327" unicode="&#x327;" horiz-adv-x="0" 
d="M-143 20h73l-38 -175h-92z" />
    <glyph glyph-name="uni0328" unicode="&#x328;" horiz-adv-x="0" 
d="M-74 -202q-23 -6 -53 -6q-56 0 -84.5 20t-28.5 68q0 82 123 145l49 -25q-85 -50 -85 -103q0 -41 48 -41q15 0 31 3v-61z" />
    <glyph glyph-name="uni0338" unicode="&#x338;" horiz-adv-x="0" 
d="M-479 32l302 619l72 -37l-302 -619z" />
    <glyph glyph-name="uni0394" unicode="&#x394;" horiz-adv-x="624" 
d="M595 84v-84h-566v84l222 621h122zM120 84h384l-192 528z" />
    <glyph glyph-name="uni03A9" unicode="&#x3a9;" horiz-adv-x="649" 
d="M604 84v-84h-246v84q141 10 141 145v256q0 74 -41.5 111.5t-132.5 37.5q-92 0 -133.5 -37.5t-41.5 -111.5v-256q0 -135 140 -145v-84h-245v84h67q-50 53 -50 136v272q0 106 67 166t196 60q128 0 195 -60t67 -166v-272q0 -83 -50 -136h67z" />
    <glyph glyph-name="uni03BC" unicode="&#x3bc;" horiz-adv-x="551" 
d="M527 70q16 0 26 3v-81q-27 -5 -44 -5q-76 0 -101 72q-50 -72 -154 -72q-64 0 -101 31v-248h-85v735h85v-293q0 -144 116 -144q54 0 86.5 30.5t36.5 88.5v318h85v-332q0 -54 9.5 -78.5t40.5 -24.5z" />
    <glyph glyph-name="pi" unicode="&#x3c0;" horiz-adv-x="585" 
d="M473 425v-252q0 -55 9.5 -79t40.5 -24q11 0 26 3v-81q-27 -5 -44 -5q-61 0 -89 42.5t-28 130.5v265h-199v-425h-84v425h-77v80h527v-80h-82z" />
    <glyph glyph-name="uni0401" unicode="&#x401;" horiz-adv-x="560" 
d="M225 784h-84v97h84v-97zM420 784h-84v97h84v-97zM164 622v-233h298v-84h-298v-221h343v-84h-431v705h431v-83h-343z" />
    <glyph glyph-name="uni0402" unicode="&#x402;" horiz-adv-x="716" 
d="M425 476q110 0 171 -57.5t61 -161.5v-49q0 -95 -64.5 -151.5t-172.5 -56.5h-76v84h79q69 0 107.5 33.5t38.5 94.5v41q0 139 -153 139q-77 0 -116.5 -36t-39.5 -106v-250h-88v622h-142v83h437v-83h-207v-199q58 53 165 53z" />
    <glyph glyph-name="uni0403" unicode="&#x403;" horiz-adv-x="540" 
d="M317 762h-91l115 140h107zM510 622h-346v-622h-88v705h434v-83z" />
    <glyph glyph-name="uni0404" unicode="&#x404;" horiz-adv-x="649" 
d="M499 448v40q0 146 -174 146q-178 0 -178 -146v-86h232v-84h-232v-100q0 -146 177 -146q175 0 175 146v40h91v-47q0 -105 -68.5 -164t-196.5 -59q-129 0 -197.5 59.5t-68.5 163.5v284q0 105 68.5 164t196.5 59q129 0 197.5 -59.5t68.5 -163.5v-47h-91z" />
    <glyph glyph-name="uni0405" unicode="&#x405;" horiz-adv-x="618" 
d="M311 -13q-123 0 -192.5 59t-69.5 155v27h88v-32q0 -57 48 -91.5t128 -34.5q76 0 121.5 32.5t45.5 89.5q0 50 -42.5 80t-103.5 46t-122.5 34.5t-104 61t-42.5 111.5q0 85 60.5 139t179.5 54q121 0 184.5 -55.5t63.5 -147.5v-31h-87v34q0 52 -43 84t-118 32q-72 0 -112 -29
t-40 -78q0 -32 23 -54.5t59.5 -36t80.5 -25.5t88.5 -27.5t81 -37t59.5 -60t23 -90.5q1 -92 -66.5 -150.5t-190.5 -58.5z" />
    <glyph glyph-name="uni0406" unicode="&#x406;" horiz-adv-x="240" 
d="M76 705h88v-705h-88v705z" />
    <glyph glyph-name="uni0407" unicode="&#x407;" horiz-adv-x="240" 
d="M-20 881h84v-97h-84v97zM175 881h84v-97h-84v97zM76 705h88v-705h-88v705z" />
    <glyph glyph-name="uni0408" unicode="&#x408;" horiz-adv-x="368" 
d="M14 84h55q66 0 100.5 38t34.5 106v477h88v-481q0 -100 -61.5 -162t-165.5 -62h-51v84z" />
    <glyph glyph-name="uni0409" unicode="&#x409;" horiz-adv-x="1068" 
d="M799 442q102 0 158.5 -49.5t56.5 -137.5v-69q0 -87 -56.5 -136.5t-159.5 -49.5h-276v622h-229l-40 -398q-11 -106 -64 -165t-146 -59h-12v84h16q56 0 83 35t35 109l48 477h397v-263h189zM927 255q0 103 -124 103h-193v-274h194q123 0 123 102v69z" />
    <glyph glyph-name="uni040A" unicode="&#x40a;" horiz-adv-x="1041" 
d="M772 442q102 0 159 -50t57 -137v-69q0 -87 -57 -136.5t-160 -49.5h-276v305h-331v-305h-88v705h88v-316h331v316h88v-263h189zM900 255q0 103 -124 103h-193v-274h194q123 0 123 102v69z" />
    <glyph glyph-name="uni040B" unicode="&#x40b;" horiz-adv-x="716" 
d="M453 476q99 0 151.5 -50t52.5 -145v-281h-88v272q0 120 -127 120h-52q-130 0 -130 -120v-272h-88v622h-142v83h437v-83h-207v-191q51 45 143 45h50z" />
    <glyph glyph-name="uni040C" unicode="&#x40c;" horiz-adv-x="601" 
d="M350 762h-91l115 140h107zM466 0l-302 341v-341h-88v705h88v-320l290 320h110l-298 -343l310 -362h-110z" />
    <glyph glyph-name="uni040E" unicode="&#x40e;" horiz-adv-x="588" 
d="M294 756q-62 0 -103 36.5t-41 95.5h56q0 -35 24.5 -55.5t63.5 -20.5t64 20.5t25 55.5h56q0 -59 -41 -95.5t-104 -36.5zM565 705l-360 -705h-95l134 263l-222 442h96l176 -348l177 348h94z" />
    <glyph glyph-name="uni040F" unicode="&#x40f;" horiz-adv-x="659" 
d="M583 705v-705h-209v-135h-88v135h-210v705h88v-621h331v621h88z" />
    <glyph glyph-name="uni0410" unicode="&#x410;" horiz-adv-x="616" 
d="M444 184h-274l-62 -184h-86l225 705h121l226 -705h-87zM198 268h219l-110 345z" />
    <glyph glyph-name="uni0411" unicode="&#x411;" horiz-adv-x="622" 
d="M353 441q102 0 158.5 -49.5t56.5 -137.5v-68q0 -87 -56.5 -136.5t-159.5 -49.5h-276v705h448v-83h-360v-181h189zM481 254q0 103 -124 103h-193v-273h194q123 0 123 102v68z" />
    <glyph glyph-name="uni0412" unicode="&#x412;" horiz-adv-x="625" 
d="M483 373q42 -20 65.5 -57.5t23.5 -84.5v-53q0 -81 -55 -129.5t-144 -48.5h-297v705h273q91 0 145.5 -42t54.5 -119v-47q0 -82 -66 -124zM164 624v-219h187q110 0 110 93v43q0 83 -110 83h-187zM484 229q0 46 -28.5 71t-80.5 25h-211v-244h210q53 0 81.5 25.5t28.5 71.5
v51z" />
    <glyph glyph-name="uni0413" unicode="&#x413;" horiz-adv-x="540" 
d="M510 622h-346v-622h-88v705h434v-83z" />
    <glyph glyph-name="uni0414" unicode="&#x414;" horiz-adv-x="761" 
d="M732 84v-219h-88v135h-526v-135h-88v219h32q56 0 83 35t35 109l48 477h397v-621h107zM537 84v538h-229l-40 -398q-9 -86 -45 -140h314z" />
    <glyph glyph-name="uni0415" unicode="&#x415;" horiz-adv-x="560" 
d="M164 622v-233h298v-84h-298v-221h343v-84h-431v705h431v-83h-343z" />
    <glyph glyph-name="uni0416" unicode="&#x416;" horiz-adv-x="963" 
d="M827 0l-302 341v-341h-88v341l-301 -341h-110l309 362l-298 343h111l289 -320v320h88v-320l290 320h110l-297 -344l309 -361h-110z" />
    <glyph glyph-name="uni0417" unicode="&#x417;" horiz-adv-x="621" 
d="M489 365q73 -49 73 -139v-48q0 -88 -67.5 -139.5t-185.5 -51.5q-116 0 -183 53t-67 144v42h88v-42q0 -113 162 -113q165 0 165 107v44q0 48 -31 73.5t-89 25.5h-142v81h133q56 0 86.5 24t30.5 69v37q0 102 -156 102q-75 0 -113.5 -29t-38.5 -83v-39h-88v39q0 90 64.5 143
t174.5 53q113 0 178.5 -49.5t65.5 -134.5v-43q0 -79 -60 -126z" />
    <glyph glyph-name="uni0418" unicode="&#x418;" horiz-adv-x="644" 
d="M568 705v-705h-82v552l-328 -552h-82v705h82v-553l328 553h82z" />
    <glyph glyph-name="uni0419" unicode="&#x419;" horiz-adv-x="644" 
d="M322 756q-62 0 -103 36.5t-41 95.5h56q0 -35 24.5 -55.5t63.5 -20.5t64 20.5t25 55.5h56q0 -59 -41 -95.5t-104 -36.5zM568 705v-705h-82v552l-328 -552h-82v705h82v-553l328 553h82z" />
    <glyph glyph-name="uni041A" unicode="&#x41a;" horiz-adv-x="601" 
d="M466 0l-302 341v-341h-88v705h88v-320l290 320h110l-298 -343l310 -362h-110z" />
    <glyph glyph-name="uni041B" unicode="&#x41b;" horiz-adv-x="686" 
d="M610 0h-88v622h-229l-41 -407q-11 -110 -56 -162.5t-133 -52.5h-32v84h16q56 0 83 35t35 109l48 477h397v-705z" />
    <glyph glyph-name="uni041C" unicode="&#x41c;" horiz-adv-x="764" 
d="M688 0h-80v572l-193 -572h-66l-193 572v-572h-80v705h107l199 -545l199 545h107v-705z" />
    <glyph glyph-name="uni041D" unicode="&#x41d;" horiz-adv-x="659" 
d="M583 705v-705h-88v305h-331v-305h-88v705h88v-316h331v316h88z" />
    <glyph glyph-name="uni041E" unicode="&#x41e;" horiz-adv-x="652" 
d="M327 -13q-131 0 -199.5 59t-68.5 164v282q0 106 68.5 166t198.5 60q131 0 199 -60t68 -166v-282q0 -105 -68 -164t-198 -59zM326 71q94 0 136.5 37t42.5 110v267q0 74 -42 111.5t-136 37.5t-137 -37.5t-43 -111.5v-267q0 -73 42.5 -110t136.5 -37z" />
    <glyph glyph-name="uni041F" unicode="&#x41f;" horiz-adv-x="659" 
d="M583 0h-88v622h-331v-622h-88v705h507v-705z" />
    <glyph glyph-name="uni0420" unicode="&#x420;" horiz-adv-x="622" 
d="M352 705q103 0 159.5 -49t56.5 -137v-77q0 -87 -56.5 -136.5t-158.5 -49.5h-189v-256h-88v705h276zM481 519q0 103 -123 103h-194v-282h193q124 0 124 102v77z" />
    <glyph glyph-name="uni0421" unicode="&#x421;" horiz-adv-x="649" 
d="M325 -12q-129 0 -197.5 59.5t-68.5 163.5v284q0 105 68.5 164t196.5 59q129 0 197.5 -59.5t68.5 -163.5v-47h-91v40q0 146 -174 146q-178 0 -178 -146v-270q0 -146 177 -146q175 0 175 146v40h91v-47q0 -105 -68.5 -164t-196.5 -59z" />
    <glyph glyph-name="uni0422" unicode="&#x422;" horiz-adv-x="555" 
d="M542 622h-221v-622h-88v622h-221v83h530v-83z" />
    <glyph glyph-name="uni0423" unicode="&#x423;" horiz-adv-x="588" 
d="M565 705l-360 -705h-95l134 263l-222 442h96l176 -348l177 348h94z" />
    <glyph glyph-name="uni0424" unicode="&#x424;" horiz-adv-x="875" 
d="M605 609q102 0 159 -49.5t57 -136.5v-89q0 -88 -56.5 -137t-159.5 -49h-124v-148h-88v148h-124q-102 0 -158.5 49.5t-56.5 136.5v89q0 87 56.5 136.5t159.5 49.5h123v96h88v-96h124zM393 231v294h-129q-123 0 -123 -102v-89q0 -103 124 -103h128zM733 423q0 102 -122 102
h-130v-294h129q123 0 123 103v89z" />
    <glyph glyph-name="uni0425" unicode="&#x425;" horiz-adv-x="601" 
d="M472 0l-174 278l-178 -278h-96l223 360l-216 345h102l169 -270l172 270h99l-220 -352l221 -353h-102z" />
    <glyph glyph-name="uni0426" unicode="&#x426;" horiz-adv-x="719" 
d="M690 -135h-88v135h-526v705h88v-621h331v621h88v-621h107v-219z" />
    <glyph glyph-name="uni0427" unicode="&#x427;" horiz-adv-x="620" 
d="M544 705v-705h-87v283q-58 -53 -165 -53q-111 0 -172 57t-61 162v256h88v-244q0 -148 155 -148q76 0 115.5 36.5t39.5 106.5v249h87z" />
    <glyph glyph-name="uni0428" unicode="&#x428;" horiz-adv-x="985" 
d="M909 705v-705h-833v705h88v-621h284v621h88v-621h285v621h88z" />
    <glyph glyph-name="uni0429" unicode="&#x429;" horiz-adv-x="1060" 
d="M1030 84v-219h-88v135h-866v705h88v-621h284v621h88v-621h285v621h88v-621h121z" />
    <glyph glyph-name="uni042A" unicode="&#x42a;" horiz-adv-x="718" 
d="M448 442q103 0 159.5 -49.5t56.5 -137.5v-69q0 -87 -57 -136.5t-159 -49.5h-276v622h-142v83h230v-263h188zM576 255q0 103 -123 103h-193v-274h194q122 0 122 102v69z" />
    <glyph glyph-name="uni042B" unicode="&#x42b;" horiz-adv-x="833" 
d="M353 442q102 0 158.5 -49.5t56.5 -137.5v-69q0 -87 -56.5 -136.5t-159.5 -49.5h-276v705h88v-263h189zM757 705v-705h-88v705h88zM481 255q0 103 -124 103h-193v-274h194q123 0 123 102v69z" />
    <glyph glyph-name="uni042C" unicode="&#x42c;" horiz-adv-x="622" 
d="M353 442q102 0 158.5 -49.5t56.5 -137.5v-69q0 -87 -56.5 -136.5t-159.5 -49.5h-276v705h88v-263h189zM481 255q0 103 -124 103h-193v-274h194q123 0 123 102v69z" />
    <glyph glyph-name="uni042D" unicode="&#x42d;" horiz-adv-x="649" 
d="M325 718q128 0 196.5 -59t68.5 -164v-284q0 -104 -68.5 -163.5t-197.5 -59.5q-128 0 -196.5 59t-68.5 164v47h91v-40q0 -146 175 -146q177 0 177 146v100h-232v84h232v86q0 146 -178 146q-174 0 -174 -146v-40h-91v47q0 105 68.5 164t197.5 59z" />
    <glyph glyph-name="uni042E" unicode="&#x42e;" horiz-adv-x="951" 
d="M625 718q130 0 198.5 -60t68.5 -166v-282q0 -105 -68 -164t-198 -59q-131 0 -199.5 59t-68.5 164v95h-194v-305h-88v705h88v-316h194v103q0 106 68.5 166t198.5 60zM804 485q0 74 -42 111.5t-136 37.5t-137 -37.5t-43 -111.5v-267q0 -73 42.5 -110t136.5 -37t136.5 37
t42.5 110v267z" />
    <glyph glyph-name="uni042F" unicode="&#x42f;" horiz-adv-x="623" 
d="M547 0h-88v293h-194l-128 -293h-92l131 307q-121 39 -121 172v41q0 87 56.5 136t159.5 49h276v-705zM459 377v245h-194q-122 0 -122 -102v-41q0 -102 123 -102h193z" />
    <glyph glyph-name="uni0430" unicode="&#x430;" horiz-adv-x="557" 
d="M484 505v-505h-59l-16 51q-54 -64 -158 -64q-197 0 -197 213v105q0 213 197 213q104 0 158 -64l16 51h59zM266 68q123 0 133 122v126q-10 121 -133 121q-65 0 -96 -33t-31 -104v-94q0 -71 31.5 -104.5t95.5 -33.5z" />
    <glyph glyph-name="uni0431" unicode="&#x431;" horiz-adv-x="539" 
d="M283 518q202 0 202 -209v-113q0 -99 -55.5 -154t-159.5 -55q-105 0 -160.5 55t-55.5 154v292q0 92 45 140.5t142 60.5l48 6q56 7 76.5 23t20.5 52h86q0 -79 -36 -111t-141 -46l-47 -6q-61 -7 -85 -34t-24 -86v-18q52 49 144 49zM400 305q0 67 -31.5 99.5t-98.5 32.5
t-99 -32.5t-32 -99.5v-104q0 -68 31.5 -100.5t98.5 -32.5t99 32.5t32 100.5v104z" />
    <glyph glyph-name="uni0432" unicode="&#x432;" horiz-adv-x="532" 
d="M412 271q74 -27 74 -120v-10q0 -141 -156 -141h-257v505h232q156 0 156 -130v-9q0 -62 -49 -95zM158 433v-138h142q76 0 76 64v9q0 65 -76 65h-142zM401 152q0 70 -76 70h-167v-149h167q76 0 76 70v9z" />
    <glyph glyph-name="uni0433" unicode="&#x433;" horiz-adv-x="420" 
d="M400 425h-242v-425h-85v505h327v-80z" />
    <glyph glyph-name="uni0434" unicode="&#x434;" horiz-adv-x="592" 
d="M572 80v-215h-85v135h-382v-135h-85v215h17q42 0 62 25.5t27 88.5l31 311h343v-425h72zM415 80v345h-182l-23 -231q-7 -77 -34 -114h239z" />
    <glyph glyph-name="uni0435" unicode="&#x435;" horiz-adv-x="529" 
d="M266 518q96 0 153 -52t57 -137v-102h-338v-23q0 -143 131 -143q56 0 88 24.5t32 70.5v6h85q0 -83 -54.5 -128.5t-148.5 -45.5q-106 0 -161.5 58.5t-55.5 158.5v98q0 99 55 157t157 58zM390 299v29q0 117 -121 117q-131 0 -131 -142v-4h252z" />
    <glyph glyph-name="uni0436" unicode="&#x436;" horiz-adv-x="793" 
d="M528 276l247 -276h-103l-233 256v-256h-85v256l-233 -256h-103l247 276l-247 229h107l229 -209v209h85v-209l229 209h107z" />
    <glyph glyph-name="uni0437" unicode="&#x437;" horiz-adv-x="521" 
d="M399 264q68 -30 68 -115v-6q0 -74 -53 -115t-152 -41q-100 0 -154 42.5t-54 123.5v12h84v-14q0 -89 125 -89q119 0 119 80v9q0 37 -20.5 53.5t-64.5 16.5h-101v74h89q43 0 63.5 15.5t20.5 50.5v7q0 76 -111 76q-117 0 -117 -86v-14h-84v11q0 79 52.5 121t148.5 42
q93 0 144.5 -39t51.5 -107v-8q0 -68 -55 -100z" />
    <glyph glyph-name="uni0438" unicode="&#x438;" horiz-adv-x="576" 
d="M502 505v-505h-85v374l-258 -374h-86v505h85v-372l258 372h86z" />
    <glyph glyph-name="uni0439" unicode="&#x439;" horiz-adv-x="576" 
d="M287 556q-62 0 -103 36.5t-41 95.5h56q0 -35 24.5 -55.5t63.5 -20.5t64 20.5t25 55.5h56q0 -59 -41 -95.5t-104 -36.5zM502 505v-505h-85v374l-258 -374h-86v505h85v-372l258 372h86z" />
    <glyph glyph-name="uni043A" unicode="&#x43a;" horiz-adv-x="512" 
d="M391 0l-233 256v-256h-85v505h85v-209l229 209h106l-246 -229l247 -276h-103z" />
    <glyph glyph-name="uni043B" unicode="&#x43b;" horiz-adv-x="568" 
d="M494 0h-85v425h-182l-26 -265q-9 -88 -42.5 -124t-105.5 -36h-33v80h14q42 0 60.5 23t24.5 84l33 318h342v-505z" />
    <glyph glyph-name="uni043C" unicode="&#x43c;" horiz-adv-x="665" 
d="M591 505v-505h-85v375l-149 -375h-50l-149 375v-375h-85v505h109l150 -371l150 371h109z" />
    <glyph glyph-name="uni043D" unicode="&#x43d;" horiz-adv-x="573" 
d="M499 505v-505h-84v218h-257v-218h-85v505h85v-207h257v207h84z" />
    <glyph glyph-name="uni043E" unicode="&#x43e;" horiz-adv-x="539" 
d="M270 -13q-105 0 -160.5 55.5t-55.5 154.5v112q0 99 55.5 154t159.5 55q105 0 160.5 -55t55.5 -154v-112q0 -99 -55.5 -154.5t-159.5 -55.5zM269 68q131 0 131 134v102q0 68 -31.5 100.5t-98.5 32.5q-68 0 -99.5 -33t-31.5 -100v-102q0 -68 31.5 -101t98.5 -33z" />
    <glyph glyph-name="uni043F" unicode="&#x43f;" horiz-adv-x="573" 
d="M499 0h-84v425h-257v-425h-85v505h426v-505z" />
    <glyph glyph-name="uni0440" unicode="&#x440;" horiz-adv-x="557" 
d="M305 518q198 0 198 -213v-105q0 -213 -198 -213q-95 0 -147 53v-270h-85v735h59l16 -50q53 63 157 63zM418 300q0 71 -31.5 104t-96.5 33q-117 0 -132 -112v-145q15 -112 132 -112q65 0 96.5 33t31.5 105v94z" />
    <glyph glyph-name="uni0441" unicode="&#x441;" horiz-adv-x="528" 
d="M266 -12q-102 0 -157 55.5t-55 153.5v112q0 99 55 154t157 55q97 0 152.5 -53t55.5 -145v-10h-85v12q0 57 -31.5 86t-91.5 29q-127 0 -127 -133v-102q0 -67 31 -100t96 -33q59 0 91 29.5t32 85.5v12h85v-10q0 -92 -55 -145t-153 -53z" />
    <glyph glyph-name="uni0442" unicode="&#x442;" horiz-adv-x="458" 
d="M438 425h-166v-425h-85v425h-167v80h418v-80z" />
    <glyph glyph-name="uni0443" unicode="&#x443;" horiz-adv-x="553" 
d="M480 505v-553q0 -87 -55 -141t-155 -54q-93 0 -143.5 43t-57.5 112h85q15 -74 115 -74q60 0 93.5 31t33.5 89v81q-51 -52 -139 -52q-186 0 -186 223v295h85v-293q0 -144 116 -144q54 0 87 30.5t37 91.5v315h84z" />
    <glyph glyph-name="uni0444" unicode="&#x444;" horiz-adv-x="883" 
d="M631 518q198 0 198 -213v-105q0 -213 -198 -213q-95 0 -147 53v-270h-85v270q-52 -53 -148 -53q-197 0 -197 213v105q0 213 197 213q96 0 148 -53v240h85v-240q52 53 147 53zM266 68q123 0 133 122v126q-10 121 -133 121q-65 0 -96 -33t-31 -104v-94q0 -72 31 -105
t96 -33zM744 300q0 71 -31.5 104t-96.5 33q-117 0 -132 -112v-145q15 -112 132 -112q65 0 96.5 33t31.5 105v94z" />
    <glyph glyph-name="uni0445" unicode="&#x445;" horiz-adv-x="475" 
d="M284 253l178 -253h-97l-130 187l-130 -187h-91l173 254l-175 251h96l129 -184l131 184h95z" />
    <glyph glyph-name="uni0446" unicode="&#x446;" horiz-adv-x="592" 
d="M572 -135h-85v135h-414v505h85v-425h257v425h84v-425h73v-215z" />
    <glyph glyph-name="uni0447" unicode="&#x447;" horiz-adv-x="550" 
d="M476 505v-505h-85v188q-51 -51 -140 -51q-184 0 -184 199v169h85v-152q0 -71 27 -103.5t86 -32.5q54 0 86.5 29.5t39.5 82.5v176h85z" />
    <glyph glyph-name="uni0448" unicode="&#x448;" horiz-adv-x="824" 
d="M751 505v-505h-678v505h85v-425h211v425h85v-425h212v425h85z" />
    <glyph glyph-name="uni0449" unicode="&#x449;" horiz-adv-x="843" 
d="M823 -135h-85v135h-665v505h85v-425h211v425h85v-425h212v425h85v-425h72v-215z" />
    <glyph glyph-name="uni044A" unicode="&#x44a;" horiz-adv-x="543" 
d="M337 327q82 0 126 -39.5t44 -113.5v-21q0 -74 -44 -113.5t-126 -39.5h-229v425h-95v80h180v-178h144zM422 167q0 80 -89 80h-140v-167h140q89 0 89 80v7z" />
    <glyph glyph-name="uni044B" unicode="&#x44b;" horiz-adv-x="702" 
d="M302 327q82 0 126 -39.5t44 -113.5v-21q0 -74 -44 -113.5t-126 -39.5h-229v505h85v-178h144zM628 505v-505h-84v505h84zM387 167q0 80 -89 80h-140v-167h140q89 0 89 80v7z" />
    <glyph glyph-name="uni044C" unicode="&#x44c;" horiz-adv-x="509" 
d="M302 327q82 0 126 -39.5t44 -113.5v-21q0 -74 -44 -113.5t-126 -39.5h-229v505h85v-178h144zM387 167q0 80 -89 80h-140v-167h140q89 0 89 80v7z" />
    <glyph glyph-name="uni044D" unicode="&#x44d;" horiz-adv-x="528" 
d="M263 518q102 0 156.5 -55t54.5 -154v-112q0 -99 -55 -154t-157 -55q-97 0 -152.5 53t-55.5 145v10h85v-15q0 -56 32 -85.5t91 -29.5q128 0 128 133v19h-158v80h158v9q0 133 -128 133q-60 0 -91.5 -29t-31.5 -86v-15h-85v10q0 92 55.5 145t153.5 53z" />
    <glyph glyph-name="uni044E" unicode="&#x44e;" horiz-adv-x="771" 
d="M502 518q105 0 160.5 -55t55.5 -154v-112q0 -99 -55.5 -154t-160.5 -55t-160.5 55t-55.5 154v26h-128v-223h-85v505h85v-202h128v6q0 99 55.5 154t160.5 55zM633 304q0 67 -31.5 100t-99.5 33t-99.5 -33t-31.5 -100v-102q0 -67 31.5 -100t99.5 -33t99.5 33t31.5 100v102z
" />
    <glyph glyph-name="uni044F" unicode="&#x44f;" horiz-adv-x="545" 
d="M472 0h-85v182h-154l-80 -182h-90l83 199q-74 35 -74 136v17q0 74 41.5 113.5t117.5 39.5h241v-505zM387 262v163h-144q-86 0 -86 -80v-3q0 -80 86 -80h144z" />
    <glyph glyph-name="uni0451" unicode="&#x451;" horiz-adv-x="529" 
d="M209 584h-84v97h84v-97zM404 584h-84v97h84v-97zM266 518q96 0 153 -52t57 -137v-102h-338v-23q0 -143 131 -143q56 0 88 24.5t32 70.5v6h85q0 -83 -54.5 -128.5t-148.5 -45.5q-106 0 -161.5 58.5t-55.5 158.5v98q0 99 55 157t157 58zM390 299v29q0 117 -121 117
q-131 0 -131 -142v-4h252z" />
    <glyph glyph-name="uni0452" unicode="&#x452;" horiz-adv-x="571" 
d="M311 518q91 0 141.5 -54.5t50.5 -168.5v-344q0 -92 -45 -136.5t-121 -44.5h-43v81h22q57 0 79.5 31t22.5 93v318q0 144 -125 144q-58 0 -92.5 -30.5t-39.5 -91.5v-315h-85v583h-73v73h73v114h85v-114h132v-73h-132v-120q54 55 150 55z" />
    <glyph glyph-name="uni0453" unicode="&#x453;" horiz-adv-x="420" 
d="M258 562h-82l100 164h97zM400 425h-242v-425h-85v505h327v-80z" />
    <glyph glyph-name="uni0454" unicode="&#x454;" horiz-adv-x="528" 
d="M389 310v12q0 57 -31.5 86t-91.5 29q-127 0 -127 -133v-6h153v-80h-153v-16q0 -67 31 -100t96 -33q59 0 91 29.5t32 85.5v12h85v-10q0 -92 -55 -145t-153 -53q-102 0 -157 55.5t-55 153.5v112q0 99 55 154t157 55q97 0 152.5 -53t55.5 -145v-10h-85z" />
    <glyph glyph-name="uni0455" unicode="&#x455;" horiz-adv-x="485" 
d="M247 -12q-96 0 -151 45.5t-55 122.5v10h84v-9q0 -44 33 -68.5t93 -24.5q48 0 79.5 19t31.5 53q0 32 -32 51t-77.5 29t-90.5 23t-77 44t-32 82q0 70 52 111.5t139 41.5q92 0 144 -44.5t52 -119.5v-10h-84v10q0 41 -29 64.5t-82 23.5q-50 0 -79 -20t-29 -51q0 -30 32 -47
t77.5 -27t90.5 -23.5t77 -46.5t32 -85q0 -74 -57 -114t-142 -40z" />
    <glyph glyph-name="uni0456" unicode="&#x456;" horiz-adv-x="236" 
d="M73 688h90v-104h-90v104zM75 505h85v-505h-85v505z" />
    <glyph glyph-name="uni0457" unicode="&#x457;" horiz-adv-x="236" 
d="M-22 681h84v-97h-84v97zM173 681h84v-97h-84v97zM75 505h85v-505h-85v505z" />
    <glyph glyph-name="uni0458" unicode="&#x458;" horiz-adv-x="256" 
d="M90 688h90v-104h-90v104zM-31 -149h21q57 0 80 31t23 93v530h84v-554q0 -92 -44.5 -136.5t-120.5 -44.5h-43v81z" />
    <glyph glyph-name="uni0459" unicode="&#x459;" horiz-adv-x="844" 
d="M637 327q82 0 126 -39.5t44 -113.5v-21q0 -74 -44 -113.5t-126 -39.5h-229v425h-182l-26 -250q-9 -92 -47.5 -133.5t-114.5 -41.5h-18v80h9q42 0 62 25.5t27 88.5l32 311h342v-178h145zM722 167q0 80 -89 80h-141v-167h141q89 0 89 80v7z" />
    <glyph glyph-name="uni045A" unicode="&#x45a;" horiz-adv-x="851" 
d="M644 327q82 0 126 -39.5t44 -113.5v-21q0 -74 -44 -113.5t-126 -39.5h-229v218h-257v-218h-85v505h85v-207h257v207h84v-178h145zM729 167q0 80 -89 80h-141v-167h141q89 0 89 80v7z" />
    <glyph glyph-name="uni045B" unicode="&#x45b;" horiz-adv-x="571" 
d="M311 518q91 0 141.5 -54.5t50.5 -168.5v-295h-85v293q0 144 -125 144q-58 0 -92.5 -30.5t-39.5 -91.5v-315h-85v583h-73v73h73v114h85v-114h132v-73h-132v-120q54 55 150 55z" />
    <glyph glyph-name="uni045C" unicode="&#x45c;" horiz-adv-x="512" 
d="M293 562h-82l100 164h97zM391 0l-233 256v-256h-85v505h85v-209l229 209h106l-246 -229l247 -276h-103z" />
    <glyph glyph-name="uni045E" unicode="&#x45e;" horiz-adv-x="553" 
d="M276 556q-62 0 -103 36.5t-41 95.5h56q0 -35 24.5 -55.5t63.5 -20.5t64 20.5t25 55.5h56q0 -59 -41 -95.5t-104 -36.5zM480 505v-553q0 -87 -55 -141t-155 -54q-93 0 -143.5 43t-57.5 112h85q15 -74 115 -74q60 0 93.5 31t33.5 89v81q-51 -52 -139 -52q-186 0 -186 223
v295h85v-293q0 -144 116 -144q54 0 87 30.5t37 91.5v315h84z" />
    <glyph glyph-name="uni045F" unicode="&#x45f;" horiz-adv-x="573" 
d="M499 0h-170v-135h-85v135h-171v505h85v-425h257v425h84v-505z" />
    <glyph glyph-name="uni0462" unicode="&#x462;" horiz-adv-x="704" 
d="M435 442q103 0 159.5 -49.5t56.5 -137.5v-69q0 -87 -57 -136.5t-159 -49.5h-277v536h-142v84h142v85h88v-85h208v-84h-208v-94h189zM563 255q0 103 -123 103h-194v-274h194q123 0 123 102v69z" />
    <glyph glyph-name="uni0463" unicode="&#x463;" horiz-adv-x="512" 
d="M305 327q82 0 126.5 -40t44.5 -113v-21q0 -73 -44.5 -113t-126.5 -40h-229v537h-73v73h73v160h85v-160h132v-73h-132v-210h144zM391 167q0 80 -89 80h-141v-167h141q89 0 89 80v7z" />
    <glyph glyph-name="uni0472" unicode="&#x472;" horiz-adv-x="652" 
d="M326 718q131 0 199 -60t68 -166v-282q0 -105 -68 -164t-198 -59q-131 0 -199.5 59t-68.5 164v282q0 106 68.5 166t198.5 60zM327 634q-94 0 -137 -37.5t-43 -111.5v-74q41 13 72 13q39 0 107 -22q60 -22 105 -22q33 0 74 13v92q0 74 -42 111.5t-136 37.5zM326 71
q94 0 136.5 37t42.5 110v91q-41 -13 -73 -13q-42 0 -106 22q-66 22 -106 22q-32 0 -73 -13v-109q0 -73 42.5 -110t136.5 -37z" />
    <glyph glyph-name="uni0473" unicode="&#x473;" horiz-adv-x="539" 
d="M269 518q105 0 160.5 -55t55.5 -154v-112q0 -99 -55.5 -154t-159.5 -55q-105 0 -160.5 55t-55.5 154v112q0 99 55.5 154t159.5 55zM270 437q-68 0 -99.5 -32.5t-31.5 -99.5q29 10 56 10q29 0 74 -15t75 -15q24 0 56 10v9q0 68 -31.5 100.5t-98.5 32.5zM269 69
q68 0 99.5 33t31.5 100v14q-27 -10 -55 -10q-30 -1 -76 14q-43 15 -74 15q-27 0 -56 -10v-23q0 -68 31.5 -100.5t98.5 -32.5z" />
    <glyph glyph-name="uni0474" unicode="&#x474;" horiz-adv-x="672" 
d="M641 705v-83h-12q-44 0 -67.5 -25t-47.5 -99l-154 -498h-122l-216 705h89l188 -595l131 404q32 108 72 149.5t113 41.5h26z" />
    <glyph glyph-name="uni0475" unicode="&#x475;" horiz-adv-x="513" 
d="M493 505v-80h-9q-29 0 -47 -21t-37 -76l-110 -328h-112l-166 505h87l138 -421l86 264q25 87 59.5 122t93.5 35h17z" />
    <glyph glyph-name="uni048A" unicode="&#x48a;" horiz-adv-x="698" 
d="M313 756q-62 0 -103 36.5t-41 95.5h56q0 -35 24.5 -55.5t63.5 -20.5t64 20.5t25 55.5h56q0 -59 -41 -95.5t-104 -36.5zM641 -135h-88l17 135h-93v552l-328 -552h-82v705h82v-553l328 553h82v-621h110z" />
    <glyph glyph-name="uni048B" unicode="&#x48b;" horiz-adv-x="587" 
d="M279 556q-62 0 -103 36.5t-41 95.5h56q0 -35 24.5 -55.5t63.5 -20.5t64 20.5t25 55.5h56q0 -59 -41 -95.5t-104 -36.5zM539 -135h-84l17 135h-63v374l-258 -374h-86v505h85v-372l258 372h86v-425h72z" />
    <glyph glyph-name="uni048C" unicode="&#x48c;" horiz-adv-x="704" 
d="M435 442q103 0 159.5 -49.5t56.5 -137.5v-69q0 -87 -57 -136.5t-159 -49.5h-277v536h-142v84h142v85h88v-85h208v-84h-208v-94h189zM563 255q0 103 -123 103h-194v-274h194q123 0 123 102v69z" />
    <glyph glyph-name="uni048D" unicode="&#x48d;" horiz-adv-x="512" 
d="M305 327q82 0 126.5 -40t44.5 -113v-21q0 -73 -44.5 -113t-126.5 -40h-229v537h-73v73h73v160h85v-160h132v-73h-132v-210h144zM391 167q0 80 -89 80h-141v-167h141q89 0 89 80v7z" />
    <glyph glyph-name="uni048E" unicode="&#x48e;" horiz-adv-x="622" 
d="M352 705q103 0 159.5 -49t56.5 -137v-77q0 -68 -35.5 -114.5t-102.5 -62.5l39 -68l-56 -34l-53 93h-196v-256h-88v705h276zM481 519q0 103 -123 103h-194v-282h147l-41 72l56 34l60 -104q95 10 95 100v77z" />
    <glyph glyph-name="uni048F" unicode="&#x48f;" horiz-adv-x="557" 
d="M503 200q0 -136 -81 -186l45 -78l-66 -40l-53 94q-21 -3 -43 -3q-95 0 -147 53v-270h-85v735h59l16 -50q53 63 157 63q198 0 198 -213v-105zM290 68q65 0 96.5 33t31.5 105v94q0 71 -31.5 104t-96.5 33q-117 0 -132 -112v-145q15 -112 132 -112z" />
    <glyph glyph-name="uni0490" unicode="&#x490;" horiz-adv-x="540" 
d="M510 805v-183h-346v-622h-88v705h346v100h88z" />
    <glyph glyph-name="uni0491" unicode="&#x491;" horiz-adv-x="420" 
d="M400 605v-180h-242v-425h-85v505h242v100h85z" />
    <glyph glyph-name="uni0492" unicode="&#x492;" horiz-adv-x="635" 
d="M260 622v-225h207v-83h-207v-314h-88v314h-142v83h142v308h434v-83h-346z" />
    <glyph glyph-name="uni0493" unicode="&#x493;" horiz-adv-x="434" 
d="M171 425v-148h163v-73h-163v-204h-85v204h-73v73h73v228h328v-80h-243z" />
    <glyph glyph-name="uni0494" unicode="&#x494;" horiz-adv-x="622" 
d="M353 441q102 0 158.5 -49.5t56.5 -137.5v-213q0 -87 -56.5 -136.5t-159.5 -49.5h-141v84h147q123 0 123 102v213q0 103 -124 103h-193v-357h-88v705h448v-83h-360v-181h189z" />
    <glyph glyph-name="uni0495" unicode="&#x495;" horiz-adv-x="509" 
d="M302 289q82 0 126 -39.5t44 -113.5v-128q0 -74 -44 -113.5t-126 -39.5h-110v80h106q89 0 89 80v114q0 80 -89 80h-140v-209h-85v505h327v-80h-242v-136h144z" />
    <glyph glyph-name="uni0496" unicode="&#x496;" horiz-adv-x="994" 
d="M965 -135h-88v135h-50l-302 341v-341h-88v341l-301 -341h-110l309 362l-298 343h111l289 -320v320h88v-320l290 320h110l-297 -344l237 -277h100v-219z" />
    <glyph glyph-name="uni0497" unicode="&#x497;" horiz-adv-x="830" 
d="M810 -135h-85v135h-53l-233 256v-256h-85v256l-233 -256h-103l247 276l-247 229h107l229 -209v209h85v-209l229 209h107l-247 -229l175 -196h107v-215z" />
    <glyph glyph-name="uni0498" unicode="&#x498;" horiz-adv-x="621" 
d="M489 365q73 -49 73 -139v-48q0 -80 -57 -130.5t-158 -58.5l12 -145h-95l11 144q-102 8 -159 60t-57 136v42h88v-42q0 -113 162 -113q165 0 165 107v44q0 48 -31 73.5t-89 25.5h-142v81h133q56 0 86.5 24t30.5 69v37q0 102 -156 102q-75 0 -113.5 -29t-38.5 -83v-39h-88
v39q0 90 64.5 143t174.5 53q113 0 178.5 -49.5t65.5 -134.5v-43q0 -79 -60 -126z" />
    <glyph glyph-name="uni0499" unicode="&#x499;" horiz-adv-x="521" 
d="M399 264q68 -30 68 -115v-6q0 -67 -44.5 -107.5t-127.5 -47.5l12 -144h-95l11 145q-81 8 -125 50t-44 114v12h84v-14q0 -89 125 -89q119 0 119 80v9q0 37 -20.5 53.5t-64.5 16.5h-101v74h89q43 0 63.5 15.5t20.5 50.5v7q0 76 -111 76q-117 0 -117 -86v-14h-84v11
q0 79 52.5 121t148.5 42q93 0 144.5 -39t51.5 -107v-8q0 -68 -55 -100z" />
    <glyph glyph-name="uni049A" unicode="&#x49a;" horiz-adv-x="633" 
d="M603 -135h-88v135h-49l-302 341v-341h-88v705h88v-320l290 320h110l-298 -343l238 -278h99v-219z" />
    <glyph glyph-name="uni049B" unicode="&#x49b;" horiz-adv-x="548" 
d="M528 -135h-85v135h-52l-233 256v-256h-85v505h85v-209l229 209h106l-246 -229l175 -196h106v-215z" />
    <glyph glyph-name="uni049C" unicode="&#x49c;" horiz-adv-x="611" 
d="M330 321h-44v-155h-68v155h-54v-321h-88v705h88v-300h54v156h68v-156h45l150 300h94l-164 -346l174 -359h-95z" />
    <glyph glyph-name="uni049D" unicode="&#x49d;" horiz-adv-x="512" 
d="M364 273l128 -273h-89l-111 237h-44v-115h-47v115h-43v-237h-85v505h85v-188h43v115h47v-115h51l103 188h91z" />
    <glyph glyph-name="uni049E" unicode="&#x49e;" horiz-adv-x="631" 
d="M496 0l-302 341v-341h-88v536h-76v84h76v85h88v-85h100v-84h-100v-151l290 320h110l-297 -344l309 -361h-110z" />
    <glyph glyph-name="uni049F" unicode="&#x49f;" horiz-adv-x="525" 
d="M260 276l246 -276h-103l-233 256v-256h-85v577h-67v80h67v113h85v-113h138v-80h-138v-281l230 209h106z" />
    <glyph glyph-name="uni04A0" unicode="&#x4a0;" horiz-adv-x="697" 
d="M562 0l-302 341v-341h-88v622h-142v83h230v-320l289 320h111l-298 -343l309 -362h-109z" />
    <glyph glyph-name="uni04A1" unicode="&#x4a1;" horiz-adv-x="547" 
d="M426 0l-233 256v-256h-85v425h-95v80h180v-209l229 209h106l-246 -229l247 -276h-103z" />
    <glyph glyph-name="uni04A2" unicode="&#x4a2;" horiz-adv-x="719" 
d="M690 -135h-88v135h-107v305h-331v-305h-88v705h88v-316h331v316h88v-621h107v-219z" />
    <glyph glyph-name="uni04A3" unicode="&#x4a3;" horiz-adv-x="592" 
d="M572 -135h-85v135h-72v218h-257v-218h-85v505h85v-207h257v207h84v-425h73v-215z" />
    <glyph glyph-name="uni04A4" unicode="&#x4a4;" horiz-adv-x="959" 
d="M929 622h-346v-622h-88v305h-331v-305h-88v705h88v-316h331v316h434v-83z" />
    <glyph glyph-name="uni04A5" unicode="&#x4a5;" horiz-adv-x="762" 
d="M742 425h-243v-425h-84v218h-257v-218h-85v505h85v-207h257v207h327v-80z" />
    <glyph glyph-name="uni04A6" unicode="&#x4a6;" horiz-adv-x="1041" 
d="M772 441q102 0 159 -50t57 -137v-213q0 -87 -57 -136.5t-160 -49.5h-141v84h147q123 0 123 102v213q0 103 -124 103h-193v-357h-88v622h-331v-622h-88v705h507v-264h189z" />
    <glyph glyph-name="uni04A7" unicode="&#x4a7;" horiz-adv-x="851" 
d="M644 289q82 0 126 -39.5t44 -113.5v-128q0 -74 -44 -113.5t-126 -39.5h-111v80h107q89 0 89 80v114q0 80 -89 80h-141v-209h-84v425h-257v-425h-85v505h426v-216h145z" />
    <glyph glyph-name="uni04A8" unicode="&#x4a8;" horiz-adv-x="690" 
d="M631 220q0 -107 -64 -166.5t-192 -65.5q20 -49 79 -49h124v-84h-124q-67 0 -112 35t-59 100q-112 13 -168 72t-56 159v247q0 115 71.5 176t214.5 61h117v-83h-117q-105 0 -151.5 -39.5t-46.5 -121.5v-232q0 -66 31 -103.5t99 -49.5v280q0 84 47.5 133t129.5 49t129.5 -47
t47.5 -129v-142zM543 349q0 55 -21.5 80t-67.5 25t-67.5 -25t-21.5 -80v-278q94 4 136 42.5t42 115.5v120z" />
    <glyph glyph-name="uni04A9" unicode="&#x4a9;" horiz-adv-x="578" 
d="M524 178q0 -87 -54 -135.5t-156 -53.5q5 -53 62 -53h104v-81h-104q-72 0 -110 34.5t-38 100.5v3q-85 14 -129.5 69t-44.5 146v77q0 107 61 163.5t176 56.5h124v-80h-124q-78 0 -115 -35t-37 -109v-69q0 -114 89 -137v143q0 66 38 100.5t110 34.5q71 0 109.5 -37.5
t38.5 -105.5v-32zM440 207q0 66 -64 66q-63 0 -63 -66v-138q67 4 97 31.5t30 84.5v22z" />
    <glyph glyph-name="uni04AA" unicode="&#x4aa;" horiz-adv-x="649" 
d="M499 448v40q0 146 -174 146q-178 0 -178 -146v-270q0 -146 177 -146q175 0 175 146v40h91v-47q0 -97 -59 -155.5t-171 -66.5l12 -145h-95l11 145q-111 9 -170 67.5t-59 154.5v284q0 105 68.5 164t196.5 59q129 0 197.5 -59.5t68.5 -163.5v-47h-91z" />
    <glyph glyph-name="uni04AB" unicode="&#x4ab;" horiz-adv-x="528" 
d="M389 310v12q0 57 -31.5 86t-91.5 29q-127 0 -127 -133v-102q0 -67 31 -100t96 -33q59 0 91 29.5t32 85.5v12h85v-10q0 -83 -46 -135t-128 -61l12 -146h-95l11 146q-84 10 -129 64t-45 143v112q0 99 55 154t157 55q97 0 152.5 -53t55.5 -145v-10h-85z" />
    <glyph glyph-name="uni04AC" unicode="&#x4ac;" horiz-adv-x="555" 
d="M321 622v-538h107v-219h-88v135h-107v622h-221v83h530v-83h-221z" />
    <glyph glyph-name="uni04AD" unicode="&#x4ad;" horiz-adv-x="458" 
d="M272 425v-345h72v-215h-85v135h-72v425h-167v80h418v-80h-166z" />
    <glyph glyph-name="uni04AE" unicode="&#x4ae;" horiz-adv-x="579" 
d="M333 263v-263h-88v262l-223 444h96l172 -341l172 341h95z" />
    <glyph glyph-name="uni04AF" unicode="&#x4af;" horiz-adv-x="477" 
d="M282 211v-211h-85v208l-185 297h96l131 -206l131 206h96z" />
    <glyph glyph-name="uni04B0" unicode="&#x4b0;" horiz-adv-x="576" 
d="M330 204h152v-84h-152v-120h-88v120h-149v84h149v58l-223 444h96l172 -341l172 341h95l-224 -443v-59z" />
    <glyph glyph-name="uni04B1" unicode="&#x4b1;" horiz-adv-x="477" 
d="M282 174h102v-73h-102v-101h-85v101h-103v73h103v34l-185 297h96l131 -206l131 206h96l-184 -294v-37z" />
    <glyph glyph-name="uni04B2" unicode="&#x4b2;" horiz-adv-x="631" 
d="M601 84v-219h-88v135h-41l-174 278l-178 -278h-96l223 360l-216 345h102l169 -270l172 270h99l-220 -352l168 -269h80z" />
    <glyph glyph-name="uni04B3" unicode="&#x4b3;" horiz-adv-x="516" 
d="M496 -135h-85v135h-46l-130 187l-130 -187h-91l173 254l-175 251h96l129 -184l131 184h95l-179 -252l122 -173h90v-215z" />
    <glyph glyph-name="uni04B4" unicode="&#x4b4;" horiz-adv-x="815" 
d="M785 -135h-87v135h-526v622h-142v83h424v-83h-194v-538h331v621h88v-621h106v-219z" />
    <glyph glyph-name="uni04B5" unicode="&#x4b5;" horiz-adv-x="606" 
d="M585 -135h-84v135h-415v432h-73v73h298v-73h-140v-352h257v425h85v-425h72v-215z" />
    <glyph glyph-name="uni04B6" unicode="&#x4b6;" horiz-adv-x="681" 
d="M651 -135h-88v135h-106v283q-58 -53 -165 -53q-111 0 -172 57t-61 162v256h88v-244q0 -148 155 -148q76 0 115.5 36.5t39.5 106.5v249h87v-621h107v-219z" />
    <glyph glyph-name="uni04B7" unicode="&#x4b7;" horiz-adv-x="578" 
d="M552 -135h-85v135h-72v188q-51 -51 -138 -51q-186 0 -186 204v164h85v-152q0 -70 28 -103t88 -33q53 0 84.5 29t38.5 83v176h85v-425h72v-215z" />
    <glyph glyph-name="uni04B8" unicode="&#x4b8;" horiz-adv-x="620" 
d="M544 705v-705h-87v283q-47 -42 -123 -51v-158h-65v157q-101 5 -155.5 61.5t-54.5 156.5v256h88v-244q0 -131 122 -146v154h65v-154q123 14 123 141v249h87z" />
    <glyph glyph-name="uni04B9" unicode="&#x4b9;" horiz-adv-x="550" 
d="M476 505v-505h-85v188q-37 -37 -98 -48v-118h-47v115q-179 3 -179 199v169h85v-152q0 -65 22.5 -98t71.5 -37v113h47v-112q86 16 98 110v176h85z" />
    <glyph glyph-name="uni04BA" unicode="&#x4ba;" horiz-adv-x="620" 
d="M328 470q111 0 172 -57t61 -163v-250h-88v239q0 148 -154 148q-155 0 -155 -143v-244h-88v705h88v-287q56 52 164 52z" />
    <glyph glyph-name="uni04BB" unicode="&#x4bb;" horiz-adv-x="568" 
d="M307 518q192 0 192 -223v-295h-84v293q0 144 -125 144q-117 0 -132 -113v-324h-85v770h85v-306q54 54 149 54z" />
    <glyph glyph-name="uni04BC" unicode="&#x4bc;" horiz-adv-x="808" 
d="M484 717q128 0 196.5 -59t68.5 -164v-156h-443v-120q0 -147 178 -147q173 0 173 147v32h92v-40q0 -104 -68.5 -163.5t-197.5 -59.5q-128 0 -196.5 59t-68.5 164v129q-89 8 -142.5 69t-53.5 159v42h80v-55q0 -58 30.5 -91t85.5 -39v70q0 105 68.5 164t197.5 59zM657 422
v65q0 147 -174 147q-177 0 -177 -147v-65h351z" />
    <glyph glyph-name="uni04BD" unicode="&#x4bd;" horiz-adv-x="637" 
d="M373 518q96 0 153 -52t57 -137v-102h-337v-22q0 -144 128 -144q58 0 90.5 25.5t32.5 72.5v8h85q0 -86 -55 -132.5t-153 -46.5q-102 0 -157.5 58.5t-55.5 158.5v24q-75 7 -112 51.5t-37 113.5v39h76v-40q0 -80 73 -96v6q0 99 55 157t157 58zM497 292v36q0 117 -123 117
q-128 0 -128 -142v-11h251z" />
    <glyph glyph-name="uni04BE" unicode="&#x4be;" horiz-adv-x="808" 
d="M484 717q128 0 196.5 -59t68.5 -164v-156h-443v-120q0 -147 178 -147q173 0 173 147v32h92v-40q0 -98 -60.5 -156.5t-175.5 -65.5l12 -144h-95l11 145q-109 10 -166 67.5t-57 153.5v129q-89 8 -142.5 69t-53.5 159v42h80v-55q0 -58 30.5 -91t85.5 -39v70q0 105 68.5 164
t197.5 59zM657 422v65q0 147 -174 147q-177 0 -177 -147v-65h351z" />
    <glyph glyph-name="uni04BF" unicode="&#x4bf;" horiz-adv-x="637" 
d="M373 518q96 0 153 -52t57 -137v-102h-337v-22q0 -144 128 -144q58 0 90.5 25.5t32.5 72.5v8h85q0 -79 -46.5 -124.5t-130.5 -53.5l12 -145h-95l11 147q-83 11 -127.5 68t-44.5 146v24q-75 7 -112 51.5t-37 113.5v39h76v-40q0 -80 73 -96v6q0 99 55 157t157 58zM497 292
v36q0 117 -123 117q-128 0 -128 -142v-11h251z" />
    <glyph glyph-name="uni04C0" unicode="&#x4c0;" horiz-adv-x="240" 
d="M76 705h88v-705h-88v705z" />
    <glyph glyph-name="uni04C1" unicode="&#x4c1;" horiz-adv-x="963" 
d="M481 756q-62 0 -103 36.5t-41 95.5h56q0 -35 24.5 -55.5t63.5 -20.5t64 20.5t25 55.5h56q0 -59 -41 -95.5t-104 -36.5zM827 0l-302 341v-341h-88v341l-301 -341h-110l309 362l-298 343h111l289 -320v320h88v-320l290 320h110l-297 -344l309 -361h-110z" />
    <glyph glyph-name="uni04C2" unicode="&#x4c2;" horiz-adv-x="793" 
d="M396 556q-62 0 -103 36.5t-41 95.5h56q0 -35 24.5 -55.5t63.5 -20.5t64 20.5t25 55.5h56q0 -59 -41 -95.5t-104 -36.5zM528 276l247 -276h-103l-233 256v-256h-85v256l-233 -256h-103l247 276l-247 229h107l229 -209v209h85v-209l229 209h107z" />
    <glyph glyph-name="uni04C3" unicode="&#x4c3;" horiz-adv-x="650" 
d="M380 384q103 0 159.5 -49.5t56.5 -136.5v-157q0 -87 -57 -136.5t-159 -49.5h-169v84h174q123 0 123 102v157q0 102 -123 102h-221v-300h-88v705h88v-320l290 320h110l-278 -321h94z" />
    <glyph glyph-name="uni04C4" unicode="&#x4c4;" horiz-adv-x="538" 
d="M332 289q82 0 125.5 -39.5t43.5 -113.5v-128q0 -74 -43.5 -113.5t-125.5 -39.5h-140v80h135q89 0 89 80v114q0 80 -89 80h-169v-209h-85v505h85v-216h3l227 216h105l-218 -216h57z" />
    <glyph glyph-name="uni04C5" unicode="&#x4c5;" horiz-adv-x="743" 
d="M686 -135h-88l17 135h-96v622h-229l-41 -407q-11 -110 -56 -162.5t-133 -52.5h-32v84h16q56 0 83 35t35 109l48 477h397v-621h106z" />
    <glyph glyph-name="uni04C6" unicode="&#x4c6;" horiz-adv-x="583" 
d="M536 -135h-85l17 135h-59v425h-182l-26 -265q-9 -88 -42.5 -124t-105.5 -36h-33v80h14q42 0 60.5 23t24.5 84l33 318h342v-425h69z" />
    <glyph glyph-name="uni04C7" unicode="&#x4c7;" horiz-adv-x="659" 
d="M583 705v-711q0 -100 -61.5 -162t-165.5 -62h-50v84h55q66 0 100 38t34 106v307h-331v-305h-88v705h88v-316h331v316h88z" />
    <glyph glyph-name="uni04C8" unicode="&#x4c8;" horiz-adv-x="573" 
d="M499 505v-554q0 -92 -44.5 -136.5t-120.5 -44.5h-43v81h21q57 0 80 31t23 93v243h-257v-218h-85v505h85v-207h257v207h84z" />
    <glyph glyph-name="uni04C9" unicode="&#x4c9;" horiz-adv-x="718" 
d="M661 -135h-88l17 135h-95v305h-331v-305h-88v705h88v-316h331v316h88v-621h106z" />
    <glyph glyph-name="uni04CA" unicode="&#x4ca;" horiz-adv-x="588" 
d="M541 -135h-85l17 135h-58v218h-257v-218h-85v505h85v-207h257v207h84v-425h69z" />
    <glyph glyph-name="uni04CB" unicode="&#x4cb;" horiz-adv-x="620" 
d="M544 705v-705h-106v-135h-88v219h107v199q-58 -53 -165 -53q-111 0 -172 57t-61 162v256h88v-244q0 -148 155 -148q76 0 115.5 36.5t39.5 106.5v249h87z" />
    <glyph glyph-name="uni04CC" unicode="&#x4cc;" horiz-adv-x="550" 
d="M476 505v-505h-72v-135h-85v188h72v135q-51 -51 -138 -51q-186 0 -186 204v164h85v-152q0 -70 28 -103t88 -33q53 0 84.5 29t38.5 83v176h85z" />
    <glyph glyph-name="uni04CD" unicode="&#x4cd;" horiz-adv-x="820" 
d="M762 -135h-88l17 135h-87v568l-191 -568h-66l-191 571v-571h-80v705h107l197 -545l197 545h107v-621h106z" />
    <glyph glyph-name="uni04CE" unicode="&#x4ce;" horiz-adv-x="680" 
d="M633 -135h-85l17 135h-59v375l-149 -375h-50l-149 375v-375h-85v505h109l150 -371l150 371h109v-425h69z" />
    <glyph glyph-name="uni04CF" unicode="&#x4cf;" horiz-adv-x="236" 
d="M75 505h85v-505h-85v505z" />
    <glyph glyph-name="uni04D0" unicode="&#x4d0;" horiz-adv-x="616" 
d="M307 756q-62 0 -103 36.5t-41 95.5h56q0 -35 24.5 -55.5t63.5 -20.5t64 20.5t25 55.5h56q0 -59 -41 -95.5t-104 -36.5zM444 184h-274l-62 -184h-86l225 705h121l226 -705h-87zM198 268h219l-110 345z" />
    <glyph glyph-name="uni04D1" unicode="&#x4d1;" horiz-adv-x="557" 
d="M273 556q-62 0 -103 36.5t-41 95.5h56q0 -35 24.5 -55.5t63.5 -20.5t64 20.5t25 55.5h56q0 -59 -41 -95.5t-104 -36.5zM484 505v-505h-59l-16 51q-54 -64 -158 -64q-197 0 -197 213v105q0 213 197 213q104 0 158 -64l16 51h59zM266 68q123 0 133 122v126
q-10 121 -133 121q-65 0 -96 -33t-31 -104v-94q0 -71 31.5 -104.5t95.5 -33.5z" />
    <glyph glyph-name="uni04D2" unicode="&#x4d2;" horiz-adv-x="616" 
d="M252 784h-84v97h84v-97zM447 784h-84v97h84v-97zM444 184h-274l-62 -184h-86l225 705h121l226 -705h-87zM198 268h219l-110 345z" />
    <glyph glyph-name="uni04D3" unicode="&#x4d3;" horiz-adv-x="557" 
d="M218 584h-84v97h84v-97zM413 584h-84v97h84v-97zM484 505v-505h-59l-16 51q-54 -64 -158 -64q-197 0 -197 213v105q0 213 197 213q104 0 158 -64l16 51h59zM266 68q123 0 133 122v126q-10 121 -133 121q-65 0 -96 -33t-31 -104v-94q0 -71 31.5 -104.5t95.5 -33.5z" />
    <glyph glyph-name="uni04D4" unicode="&#x4d4;" horiz-adv-x="957" 
d="M561 622v-233h298v-84h-298v-221h343v-84h-431v206h-276l-86 -206h-89l295 705h587v-83h-343zM473 622h-102l-139 -333h241v333z" />
    <glyph glyph-name="uni04D5" unicode="&#x4d5;" horiz-adv-x="857" 
d="M617 518q88 0 137.5 -51.5t49.5 -137.5v-102h-329v-23q0 -143 130 -143q113 0 113 102v9h85q0 -89 -47 -136.5t-139 -47.5q-96 0 -151 66l-17 -54h-33l-16 50q-52 -63 -155 -63q-191 0 -191 213v105q0 213 192 213q103 0 154 -63l16 50h33l17 -52q54 65 151 65zM718 299
v29q0 117 -113 117q-130 0 -130 -142v-4h243zM261 68q120 0 129 121v127q-9 121 -129 121q-62 0 -92.5 -33t-30.5 -104v-94q0 -72 30.5 -105t92.5 -33z" />
    <glyph glyph-name="uni04D6" unicode="&#x4d6;" horiz-adv-x="560" 
d="M280 756q-62 0 -103 36.5t-41 95.5h56q0 -35 24.5 -55.5t63.5 -20.5t64 20.5t25 55.5h56q0 -59 -41 -95.5t-104 -36.5zM164 622v-233h298v-84h-298v-221h343v-84h-431v705h431v-83h-343z" />
    <glyph glyph-name="uni04D7" unicode="&#x4d7;" horiz-adv-x="529" 
d="M264 556q-62 0 -103 36.5t-41 95.5h56q0 -35 24.5 -55.5t63.5 -20.5t64 20.5t25 55.5h56q0 -59 -41 -95.5t-104 -36.5zM266 518q96 0 153 -52t57 -137v-102h-338v-23q0 -143 131 -143q56 0 88 24.5t32 70.5v6h85q0 -83 -54.5 -128.5t-148.5 -45.5q-106 0 -161.5 58.5
t-55.5 158.5v98q0 99 55 157t157 58zM390 299v29q0 117 -121 117q-131 0 -131 -142v-4h252z" />
    <glyph glyph-name="uni04D8" unicode="&#x4d8;" horiz-adv-x="649" 
d="M325 718q128 0 196.5 -59t68.5 -164v-284q0 -104 -68.5 -163.5t-197.5 -59.5q-128 0 -196.5 59t-68.5 164v156h443v121q0 146 -178 146q-174 0 -174 -146v-33h-91v40q0 105 68.5 164t197.5 59zM325 72q177 0 177 146v65h-352v-65q0 -146 175 -146z" />
    <glyph glyph-name="uni04D9" unicode="&#x4d9;" horiz-adv-x="530" 
d="M263 517q102 0 157.5 -58.5t55.5 -157.5v-98q0 -100 -55 -157.5t-158 -57.5q-96 0 -152.5 51.5t-56.5 136.5v103h337v21q0 145 -129 145q-58 0 -90 -25.5t-32 -73.5v-8h-85q0 86 54.5 132.5t153.5 46.5zM263 60q128 0 128 143v10h-251v-35q0 -118 123 -118z" />
    <glyph glyph-name="uni04DA" unicode="&#x4da;" horiz-adv-x="649" 
d="M269 784h-84v97h84v-97zM464 784h-84v97h84v-97zM325 718q128 0 196.5 -59t68.5 -164v-284q0 -104 -68.5 -163.5t-197.5 -59.5q-128 0 -196.5 59t-68.5 164v156h443v121q0 146 -178 146q-174 0 -174 -146v-33h-91v40q0 105 68.5 164t197.5 59zM325 72q177 0 177 146v65
h-352v-65q0 -146 175 -146z" />
    <glyph glyph-name="uni04DB" unicode="&#x4db;" horiz-adv-x="530" 
d="M206 584h-84v97h84v-97zM401 584h-84v97h84v-97zM263 517q102 0 157.5 -58.5t55.5 -157.5v-98q0 -100 -55 -157.5t-158 -57.5q-96 0 -152.5 51.5t-56.5 136.5v103h337v21q0 145 -129 145q-58 0 -90 -25.5t-32 -73.5v-8h-85q0 86 54.5 132.5t153.5 46.5zM263 60
q128 0 128 143v10h-251v-35q0 -118 123 -118z" />
    <glyph glyph-name="uni04DC" unicode="&#x4dc;" horiz-adv-x="963" 
d="M426 784h-84v97h84v-97zM621 784h-84v97h84v-97zM827 0l-302 341v-341h-88v341l-301 -341h-110l309 362l-298 343h111l289 -320v320h88v-320l290 320h110l-297 -344l309 -361h-110z" />
    <glyph glyph-name="uni04DD" unicode="&#x4dd;" horiz-adv-x="793" 
d="M341 584h-84v97h84v-97zM536 584h-84v97h84v-97zM528 276l247 -276h-103l-233 256v-256h-85v256l-233 -256h-103l247 276l-247 229h107l229 -209v209h85v-209l229 209h107z" />
    <glyph glyph-name="uni04DE" unicode="&#x4de;" horiz-adv-x="621" 
d="M255 784h-84v97h84v-97zM450 784h-84v97h84v-97zM489 365q73 -49 73 -139v-48q0 -88 -67.5 -139.5t-185.5 -51.5q-116 0 -183 53t-67 144v42h88v-42q0 -113 162 -113q165 0 165 107v44q0 48 -31 73.5t-89 25.5h-142v81h133q56 0 86.5 24t30.5 69v37q0 102 -156 102
q-75 0 -113.5 -29t-38.5 -83v-39h-88v39q0 90 64.5 143t174.5 53q113 0 178.5 -49.5t65.5 -134.5v-43q0 -79 -60 -126z" />
    <glyph glyph-name="uni04DF" unicode="&#x4df;" horiz-adv-x="521" 
d="M204 584h-84v97h84v-97zM399 584h-84v97h84v-97zM399 264q68 -30 68 -115v-6q0 -74 -53 -115t-152 -41q-100 0 -154 42.5t-54 123.5v12h84v-14q0 -89 125 -89q119 0 119 80v9q0 37 -20.5 53.5t-64.5 16.5h-101v74h89q43 0 63.5 15.5t20.5 50.5v7q0 76 -111 76
q-117 0 -117 -86v-14h-84v11q0 79 52.5 121t148.5 42q93 0 144.5 -39t51.5 -107v-8q0 -68 -55 -100z" />
    <glyph glyph-name="uni04E0" unicode="&#x4e0;" horiz-adv-x="621" 
d="M343 429q102 0 160.5 -50t58.5 -132v-69q0 -88 -67.5 -139.5t-185.5 -51.5q-116 0 -183 53t-67 144v42h88v-42q0 -113 162 -113q165 0 165 107v65q0 50 -37.5 77.5t-108.5 27.5h-151v81l233 193h-320v83h444v-83l-231 -193h40z" />
    <glyph glyph-name="uni04E1" unicode="&#x4e1;" horiz-adv-x="519" 
d="M267 205q87 0 143 -48.5t56 -148.5v-45q0 -96 -55 -151t-152 -55q-95 0 -150 53t-55 145v21h85v-23q0 -56 31 -85.5t90 -29.5q121 0 121 129v34q0 124 -118 124h-130v80l193 220h-251v80h355v-80l-194 -220h31z" />
    <glyph glyph-name="uni04E2" unicode="&#x4e2;" horiz-adv-x="644" 
d="M487 801h-328v74h328v-74zM568 705v-705h-82v552l-328 -552h-82v705h82v-553l328 553h82z" />
    <glyph glyph-name="uni04E3" unicode="&#x4e3;" horiz-adv-x="576" 
d="M452 601h-328v74h328v-74zM502 505v-505h-85v374l-258 -374h-86v505h85v-372l258 372h86z" />
    <glyph glyph-name="uni04E4" unicode="&#x4e4;" horiz-adv-x="644" 
d="M267 784h-84v97h84v-97zM462 784h-84v97h84v-97zM568 705v-705h-82v552l-328 -552h-82v705h82v-553l328 553h82z" />
    <glyph glyph-name="uni04E5" unicode="&#x4e5;" horiz-adv-x="576" 
d="M232 584h-84v97h84v-97zM427 584h-84v97h84v-97zM502 505v-505h-85v374l-258 -374h-86v505h85v-372l258 372h86z" />
    <glyph glyph-name="uni04E6" unicode="&#x4e6;" horiz-adv-x="652" 
d="M186 881h84v-97h-84v97zM381 881h84v-97h-84v97zM327 -13q-131 0 -199.5 59t-68.5 164v282q0 106 68.5 166t198.5 60q131 0 199 -60t68 -166v-282q0 -105 -68 -164t-198 -59zM326 71q94 0 136.5 37t42.5 110v267q0 74 -42 111.5t-136 37.5t-137 -37.5t-43 -111.5v-267
q0 -73 42.5 -110t136.5 -37z" />
    <glyph glyph-name="uni04E7" unicode="&#x4e7;" horiz-adv-x="539" 
d="M130 681h84v-97h-84v97zM325 681h84v-97h-84v97zM270 -13q-105 0 -160.5 55.5t-55.5 154.5v112q0 99 55.5 154t159.5 55q105 0 160.5 -55t55.5 -154v-112q0 -99 -55.5 -154.5t-159.5 -55.5zM269 68q131 0 131 134v102q0 68 -31.5 100.5t-98.5 32.5q-68 0 -99.5 -33
t-31.5 -100v-102q0 -68 31.5 -101t98.5 -33z" />
    <glyph glyph-name="uni04E8" unicode="&#x4e8;" horiz-adv-x="652" 
d="M326 718q131 0 199 -60t68 -166v-282q0 -105 -68 -164t-198 -59q-131 0 -199.5 59t-68.5 164v282q0 106 68.5 166t198.5 60zM327 634q-94 0 -137 -37.5t-43 -111.5v-80h358v80q0 74 -42 111.5t-136 37.5zM326 71q94 0 136.5 37t42.5 110v104h-358v-104q0 -73 42.5 -110
t136.5 -37z" />
    <glyph glyph-name="uni04E9" unicode="&#x4e9;" horiz-adv-x="539" 
d="M269 518q105 0 160.5 -55t55.5 -154v-112q0 -99 -55.5 -154t-159.5 -55q-105 0 -160.5 55t-55.5 154v112q0 99 55.5 154t159.5 55zM270 437q-68 0 -99.5 -33t-31.5 -100v-6h261v6q0 68 -31.5 100.5t-98.5 32.5zM269 69q68 0 99.5 33t31.5 100v16h-261v-16
q0 -68 31.5 -100.5t98.5 -32.5z" />
    <glyph glyph-name="uni04EA" unicode="&#x4ea;" horiz-adv-x="652" 
d="M270 784h-84v97h84v-97zM465 784h-84v97h84v-97zM326 718q131 0 199 -60t68 -166v-282q0 -105 -68 -164t-198 -59q-131 0 -199.5 59t-68.5 164v282q0 106 68.5 166t198.5 60zM327 634q-94 0 -137 -37.5t-43 -111.5v-80h358v80q0 74 -42 111.5t-136 37.5zM326 71
q94 0 136.5 37t42.5 110v104h-358v-104q0 -73 42.5 -110t136.5 -37z" />
    <glyph glyph-name="uni04EB" unicode="&#x4eb;" horiz-adv-x="539" 
d="M214 584h-84v97h84v-97zM409 584h-84v97h84v-97zM269 518q105 0 160.5 -55t55.5 -154v-112q0 -99 -55.5 -154t-159.5 -55q-105 0 -160.5 55t-55.5 154v112q0 99 55.5 154t159.5 55zM270 437q-68 0 -99.5 -33t-31.5 -100v-6h261v6q0 68 -31.5 100.5t-98.5 32.5zM269 69
q68 0 99.5 33t31.5 100v16h-261v-16q0 -68 31.5 -100.5t98.5 -32.5z" />
    <glyph glyph-name="uni04EC" unicode="&#x4ec;" horiz-adv-x="649" 
d="M269 784h-84v97h84v-97zM464 784h-84v97h84v-97zM325 718q128 0 196.5 -59t68.5 -164v-284q0 -104 -68.5 -163.5t-197.5 -59.5q-128 0 -196.5 59t-68.5 164v47h91v-40q0 -146 175 -146q177 0 177 146v100h-232v84h232v86q0 146 -178 146q-174 0 -174 -146v-40h-91v47
q0 105 68.5 164t197.5 59z" />
    <glyph glyph-name="uni04ED" unicode="&#x4ed;" horiz-adv-x="528" 
d="M209 584h-84v97h84v-97zM404 584h-84v97h84v-97zM263 518q102 0 156.5 -55t54.5 -154v-112q0 -99 -55 -154t-157 -55q-97 0 -152.5 53t-55.5 145v10h85v-15q0 -56 32 -85.5t91 -29.5q128 0 128 133v19h-158v80h158v9q0 133 -128 133q-60 0 -91.5 -29t-31.5 -86v-15h-85
v10q0 92 55.5 145t153.5 53z" />
    <glyph glyph-name="uni04EE" unicode="&#x4ee;" horiz-adv-x="588" 
d="M459 801h-328v74h328v-74zM565 705l-360 -705h-95l134 263l-222 442h96l176 -348l177 348h94z" />
    <glyph glyph-name="uni04EF" unicode="&#x4ef;" horiz-adv-x="553" 
d="M441 601h-328v74h328v-74zM480 505v-553q0 -87 -55 -141t-155 -54q-93 0 -143.5 43t-57.5 112h85q15 -74 115 -74q60 0 93.5 31t33.5 89v81q-51 -52 -139 -52q-186 0 -186 223v295h85v-293q0 -144 116 -144q54 0 87 30.5t37 91.5v315h84z" />
    <glyph glyph-name="uni04F0" unicode="&#x4f0;" horiz-adv-x="588" 
d="M239 784h-84v97h84v-97zM434 784h-84v97h84v-97zM565 705l-360 -705h-95l134 263l-222 442h96l176 -348l177 348h94z" />
    <glyph glyph-name="uni04F1" unicode="&#x4f1;" horiz-adv-x="553" 
d="M221 584h-84v97h84v-97zM416 584h-84v97h84v-97zM480 505v-553q0 -87 -55 -141t-155 -54q-93 0 -143.5 43t-57.5 112h85q15 -74 115 -74q60 0 93.5 31t33.5 89v81q-51 -52 -139 -52q-186 0 -186 223v295h85v-293q0 -144 116 -144q54 0 87 30.5t37 91.5v315h84z" />
    <glyph glyph-name="uni04F2" unicode="&#x4f2;" horiz-adv-x="588" 
d="M245 762h-77l86 118h82zM430 762h-77l86 118h82zM565 705l-360 -705h-95l134 263l-222 442h96l176 -348l177 348h94z" />
    <glyph glyph-name="uni04F3" unicode="&#x4f3;" horiz-adv-x="553" 
d="M224 562h-73l68 129h78zM409 562h-74l68 129h78zM396 505h84v-553q0 -87 -55 -141t-155 -54q-93 0 -143.5 43t-57.5 112h85q15 -74 115 -74q60 0 93.5 31t33.5 89v81q-51 -52 -139 -52q-186 0 -186 223v295h85v-293q0 -144 116 -144q54 0 87 30.5t37 91.5v315z" />
    <glyph glyph-name="uni04F4" unicode="&#x4f4;" horiz-adv-x="620" 
d="M255 784h-84v97h84v-97zM450 784h-84v97h84v-97zM544 705v-705h-87v283q-58 -53 -165 -53q-111 0 -172 57t-61 162v256h88v-244q0 -148 155 -148q76 0 115.5 36.5t39.5 106.5v249h87z" />
    <glyph glyph-name="uni04F5" unicode="&#x4f5;" horiz-adv-x="550" 
d="M219 584h-84v97h84v-97zM414 584h-84v97h84v-97zM476 505v-505h-85v188q-51 -51 -140 -51q-184 0 -184 199v169h85v-152q0 -71 27 -103.5t86 -32.5q54 0 86.5 29.5t39.5 82.5v176h85z" />
    <glyph glyph-name="uni04F6" unicode="&#x4f6;" horiz-adv-x="540" 
d="M164 622v-538h107v-219h-88v135h-107v705h434v-83h-346z" />
    <glyph glyph-name="uni04F7" unicode="&#x4f7;" horiz-adv-x="420" 
d="M158 425v-345h72v-215h-85v135h-72v505h327v-80h-242z" />
    <glyph glyph-name="uni04F8" unicode="&#x4f8;" horiz-adv-x="833" 
d="M361 784h-84v97h84v-97zM556 784h-84v97h84v-97zM353 442q102 0 158.5 -49.5t56.5 -137.5v-69q0 -87 -56.5 -136.5t-159.5 -49.5h-276v705h88v-263h189zM757 705v-705h-88v705h88zM481 255q0 103 -124 103h-193v-274h194q123 0 123 102v69z" />
    <glyph glyph-name="uni04F9" unicode="&#x4f9;" horiz-adv-x="702" 
d="M295 584h-84v97h84v-97zM406 681h84v-97h-84v97zM302 327q82 0 126 -39.5t44 -113.5v-21q0 -74 -44 -113.5t-126 -39.5h-229v505h85v-178h144zM628 505v-505h-84v505h84zM387 167q0 80 -89 80h-140v-167h140q89 0 89 80v7z" />
    <glyph glyph-name="uni04FC" unicode="&#x4fc;" horiz-adv-x="598" 
d="M539 119q37 -57 37 -117q0 -65 -45 -106t-117 -41h-53v84h46q35 0 58 20.5t23 53.5q0 31 -21 61l-156 225l-191 -299h-96l233 378l-226 327h102l178 -256l163 256h99l-209 -334z" />
    <glyph glyph-name="uni04FD" unicode="&#x4fd;" horiz-adv-x="476" 
d="M434 62q30 -42 30 -91q0 -52 -32.5 -84t-84.5 -32h-85v80h69q21 0 34.5 13.5t13.5 33.5q0 24 -16 44l-123 168l-135 -194h-91l177 260l-179 245h96l132 -180l128 180h95l-174 -246z" />
    <glyph glyph-name="uni0510" unicode="&#x510;" horiz-adv-x="621" 
d="M562 226v-42q0 -90 -67 -143.5t-183 -53.5q-118 0 -185.5 51.5t-67.5 139.5v48q0 90 73 139q-61 47 -61 126v43q0 85 65.5 134.5t178.5 49.5q111 0 175.5 -53t64.5 -143v-39h-88v39q0 54 -39 83t-114 29q-155 0 -155 -102v-37q0 -45 30.5 -69t86.5 -24h132v-81h-142
q-57 0 -88 -25.5t-31 -73.5v-44q0 -107 165 -107q162 0 162 113v42h88z" />
    <glyph glyph-name="uni0511" unicode="&#x511;" horiz-adv-x="521" 
d="M467 165v-12q0 -81 -54 -123.5t-154 -42.5q-99 0 -152 41t-53 115v6q0 85 68 115q-55 32 -55 100v8q0 69 51.5 107.5t144.5 38.5q96 0 148 -42t52 -121v-11h-83v14q0 86 -118 86q-110 0 -110 -76v-7q0 -35 20 -50.5t64 -15.5h89v-74h-101q-44 0 -64.5 -16.5t-20.5 -53.5
v-9q0 -80 119 -80q125 0 125 89v14h84z" />
    <glyph glyph-name="uni0512" unicode="&#x512;" horiz-adv-x="686" 
d="M610 -6q0 -100 -61.5 -162t-165.5 -62h-51v84h55q67 0 101 38t34 106v624h-229l-41 -407q-11 -110 -56 -162.5t-133 -52.5h-32v84h16q56 0 83 35t35 109l48 477h397v-711z" />
    <glyph glyph-name="uni0513" unicode="&#x513;" horiz-adv-x="568" 
d="M494 -49q0 -92 -45 -136.5t-121 -44.5h-43v81h22q57 0 79.5 31t22.5 93v450h-182l-26 -265q-9 -88 -42.5 -124t-105.5 -36h-33v80h14q42 0 60.5 23t24.5 84l33 318h342v-554z" />
    <glyph glyph-name="uni051C" unicode="&#x51c;" horiz-adv-x="891" 
d="M869 706l-174 -706h-112l-137 534l-138 -534h-112l-174 706h91l143 -608l149 608h78l154 -609l141 609h91z" />
    <glyph glyph-name="uni051D" unicode="&#x51d;" horiz-adv-x="671" 
d="M660 505l-129 -505h-87l-108 339l-108 -339h-87l-129 505h86l94 -412l109 412h69l109 -414l94 414h87z" />
    <glyph glyph-name="uni0524" unicode="&#x524;" horiz-adv-x="719" 
d="M690 -135h-88v135h-107v622h-331v-622h-88v705h507v-621h107v-219z" />
    <glyph glyph-name="uni0525" unicode="&#x525;" horiz-adv-x="592" 
d="M572 -135h-85v135h-72v425h-257v-425h-85v505h426v-425h73v-215z" />
    <glyph glyph-name="uni0526" unicode="&#x526;" horiz-adv-x="654" 
d="M633 -135h-84v135h-79v239q0 148 -154 148q-155 0 -155 -143v-244h-88v705h88v-287q56 52 164 52q111 0 172 -57t61 -163v-170h75v-215z" />
    <glyph glyph-name="uni0527" unicode="&#x527;" horiz-adv-x="592" 
d="M572 -135h-85v135h-72v293q0 144 -125 144q-117 0 -132 -113v-324h-85v770h85v-306q54 54 149 54q192 0 192 -223v-215h73v-215z" />
    <glyph glyph-name="uni10D0" unicode="&#x10d0;" horiz-adv-x="586" 
d="M289 -13q-118 0 -183.5 59.5t-65.5 163.5v48h88v-40q0 -147 160 -147t160 147v191q0 52 -30 85.5t-112 56.5q-96 27 -141.5 60.5t-45.5 94.5h91q11 -48 130 -80q93 -24 144.5 -74t51.5 -142v-200q0 -104 -65 -163.5t-182 -59.5z" />
    <glyph glyph-name="uni10D1" unicode="&#x10d1;" horiz-adv-x="624" 
d="M398 439q78 -20 119.5 -76.5t41.5 -144.5q0 -112 -64 -171.5t-183 -59.5t-183 59.5t-64 171.5q0 110 64.5 170t181.5 61v8q0 8 0.5 23.5t0.5 22t-1 17.5t-3 16.5t-6 13t-10 11t-15 7.5t-21 7q-114 22 -114 131h84q0 -26 9 -39t37 -19q80 -18 103 -59.5t23 -136.5v-13z
M312 71q159 0 159 147t-159 147t-159 -147t159 -147z" />
    <glyph glyph-name="uni10D2" unicode="&#x10d2;" horiz-adv-x="624" 
d="M312 -13q-118 0 -182.5 60.5t-64.5 170.5t65.5 170.5t181.5 60.5q128 0 128 87q0 47 -32.5 72.5t-90.5 25.5q-59 0 -90.5 -29t-31.5 -83h-88q0 89 57.5 142.5t152.5 53.5q94 0 152.5 -51t58.5 -131q0 -40 -18.5 -70.5t-37.5 -41.5l-18 -11l11 -5.5t25.5 -18.5t32 -35
t25 -56.5t11.5 -79.5q0 -110 -64.5 -170.5t-182.5 -60.5zM312 71q159 0 159 147t-159 147t-159 -147t159 -147z" />
    <glyph glyph-name="uni10D3" unicode="&#x10d3;" horiz-adv-x="922" 
d="M624 -13q-3 31 -54.5 45.5t-112.5 14.5h-105q-139 0 -213 63.5t-74 178.5v195q0 118 54 176t153 58q39 0 72 -9t51.5 -22t31.5 -26.5t17 -22.5l5 -9q1 4 4.5 10t17.5 21t32.5 27t53.5 21.5t78 9.5q112 0 172 -61t60 -169v-48q0 -109 -60 -170t-173 -61q-112 0 -172 61
t-60 170v42q0 152 -122 152q-64 0 -97.5 -40t-29.5 -116v-181q-5 -79 44 -122.5t145 -43.5h80q133 0 207 -33t80 -111h-85zM634 293q75 0 110 37t35 114v40q0 76 -35.5 113t-110.5 37t-109.5 -37t-34.5 -113v-40q0 -77 35 -114t110 -37z" />
    <glyph glyph-name="uni10D4" unicode="&#x10d4;" horiz-adv-x="616" 
d="M309 -13q-118 0 -183.5 59.5t-65.5 163.5v16h88v-8q0 -147 160 -147t160 147v267q0 149 -156 149t-156 -151h-88v9q0 106 63 166t180 60t181 -60.5t64 -165.5v-282q0 -104 -65 -163.5t-182 -59.5z" />
    <glyph glyph-name="uni10D5" unicode="&#x10d5;" horiz-adv-x="589" 
d="M290 -13q-103 0 -166.5 54t-63.5 143v42h88v-42q0 -54 38 -83.5t105 -29.5q69 0 107 27.5t38 79.5v64q0 96 -119 96h-67v81h62q117 0 117 91v22q0 102 -136 102q-134 0 -134 -112v-39h-88v39q0 89 60 142.5t162 53.5t162.5 -50t60.5 -136v-26q0 -78 -63 -124
q71 -51 71 -136v-68q0 -88 -64.5 -139.5t-169.5 -51.5z" />
    <glyph glyph-name="uni10D6" unicode="&#x10d6;" horiz-adv-x="726" 
d="M441 449q103 0 166.5 -54.5t63.5 -166.5v-25q0 -99 -66.5 -157.5t-180.5 -58.5q-118 0 -183.5 59.5t-65.5 163.5v45q0 47 28 80q-91 5 -137 59t-46 135q0 83 55.5 136t159.5 53t160 -53t56 -136q0 -51 -17 -80h7zM104 528q0 -55 35 -86t97 -31t97 31t35 86
q0 53 -35.5 81.5t-96.5 28.5t-96.5 -28t-35.5 -82zM582 201l1 22q0 72 -43.5 107t-114.5 35q-63 0 -108.5 -29.5t-53.5 -86.5v-31q0 -147 160 -147q77 0 118 34.5t41 95.5z" />
    <glyph glyph-name="uni10D7" unicode="&#x10d7;" horiz-adv-x="921" 
d="M292 -13q-113 0 -172.5 61t-59.5 170v270q0 109 59.5 169.5t171.5 60.5q43 0 77.5 -9t54 -22t32.5 -26.5t17 -22.5l5 -9q1 4 4.5 10t17.5 21t32 27t51 21.5t73 9.5q99 0 152.5 -58t53.5 -176v-221q0 -154 -27 -263h-86q16 73 20.5 125.5t4.5 148.5v204q4 76 -29.5 116
t-97.5 40q-122 0 -122 -152v-264q0 -109 -60 -170t-172 -61zM291 71q78 0 114.5 37.5t36.5 113.5v262q0 76 -36 113t-114 37q-77 0 -113.5 -37t-36.5 -113v-262q0 -76 36 -113.5t113 -37.5z" />
    <glyph glyph-name="uni10D8" unicode="&#x10d8;" horiz-adv-x="616" 
d="M87 0q-27 109 -27 263v229q0 105 65 165.5t183 60.5t183 -60.5t65 -165.5v-229q0 -154 -27 -263h-86q16 73 20.5 125.5t4.5 148.5v211q0 149 -160 149t-160 -149v-211q0 -94 5 -147t21 -127h-87z" />
    <glyph glyph-name="uni10D9" unicode="&#x10d9;" horiz-adv-x="569" 
d="M434 382q70 -52 70 -136v-68q0 -88 -64.5 -139.5t-169.5 -51.5q-103 0 -166.5 54t-63.5 143v42h88v-42q0 -54 38 -83.5t105 -29.5q69 0 107 27.5t38 79.5v64q0 96 -119 96h-67v81h62q117 0 117 91v29q0 85 -99 99l28 80q74 -15 116 -62t42 -117v-33q0 -78 -62 -124z" />
    <glyph glyph-name="uni10DA" unicode="&#x10da;" horiz-adv-x="1129" 
d="M884 -13q-2 20 -18.5 32.5t-45.5 18t-55 7.5t-61 2h-397q-116 0 -181.5 61t-65.5 160v195q0 126 43.5 190.5t140.5 64.5q38 0 69 -8.5t48.5 -21t30 -24.5t16.5 -20l4 -9q1 3 4 9t15.5 20t28.5 25t44 20t62 9t62.5 -8.5t45 -21t28 -24.5t16.5 -20l4 -9q1 3 3.5 9t14 20
t27.5 25t48 20t71 9q103 0 145.5 -60.5t42.5 -194.5q0 -155 -28 -263h-87q17 73 22 125t5 149q0 160 -112 160q-49 0 -78 -31.5t-32 -94.5v-205h-88v205q-3 62 -33 94t-77 32q-48 0 -79 -32t-31 -94v-205h-88v205q0 61 -32 93.5t-79 32.5q-48 0 -78.5 -35t-30.5 -109v-217
q0 -67 41.5 -104.5t117.5 -37.5h391q151 0 213 -36.5t70 -107.5h-97z" />
    <glyph glyph-name="uni10DB" unicode="&#x10db;" horiz-adv-x="616" 
d="M307 -13q-114 0 -180.5 58.5t-66.5 157.5v25q0 112 63.5 166.5t166.5 54.5q52 0 102 -15.5t76 -44.5v96q0 149 -159 149q-142 0 -153 -112h-90q6 91 69.5 143.5t172.5 52.5q118 0 183 -60.5t65 -165.5v-282q0 -104 -65.5 -163.5t-183.5 -59.5zM308 71q160 0 160 147v31
q-8 57 -53.5 86.5t-108.5 29.5q-71 0 -114.5 -35t-43.5 -107v-22q0 -61 41.5 -95.5t118.5 -34.5z" />
    <glyph glyph-name="uni10DC" unicode="&#x10dc;" horiz-adv-x="626" 
d="M314 -13q-118 0 -183.5 59.5t-65.5 163.5v302q0 105 55 155.5t173 50.5h225v-84h-226q-81 0 -110 -28t-29 -101v-116q26 29 76 44.5t101 15.5q104 0 167.5 -54.5t63.5 -166.5v-25q0 -99 -66.5 -157.5t-180.5 -58.5zM313 71q77 0 118 34.5t41 95.5v22q0 72 -43 107
t-114 35q-64 0 -109.5 -29.5t-52.5 -86.5v-31q0 -147 160 -147z" />
    <glyph glyph-name="uni10DD" unicode="&#x10dd;" horiz-adv-x="897" 
d="M92 0q-27 109 -27 263v221q0 118 53.5 176t152.5 58q39 0 72 -9t51.5 -22t31.5 -26.5t18 -22.5l4 -9q1 4 4.5 10t17.5 21t32 27t51 21.5t73 9.5q99 0 152.5 -58t53.5 -176v-221q0 -154 -27 -263h-86q16 73 20.5 125.5t4.5 148.5v204q4 76 -29.5 116t-97.5 40
q-122 0 -122 -152v-225h-94v225q0 152 -121 152q-64 0 -98 -40t-30 -116l1 -204q0 -96 4.5 -148.5t20.5 -125.5h-86z" />
    <glyph glyph-name="uni10DE" unicode="&#x10de;" horiz-adv-x="589" 
d="M290 -13q-103 0 -166.5 54t-63.5 143v42h88v-42q0 -54 38 -83.5t105 -29.5q69 0 107 27.5t38 79.5v64q0 96 -119 96h-66v81h61q117 0 117 85q0 70 -117 91q-97 17 -135.5 42t-42.5 81h86q7 -36 103 -53q101 -19 147 -55t46 -109q0 -25 -6.5 -46t-15.5 -34t-18 -22.5
t-16 -12.5l-6 -4q3 -1 7.5 -4.5t16.5 -15t21.5 -25.5t17 -38.5t7.5 -52.5v-68q0 -88 -64.5 -139.5t-169.5 -51.5z" />
    <glyph glyph-name="uni10DF" unicode="&#x10df;" horiz-adv-x="620" 
d="M313 -13q-118 0 -183.5 59.5t-65.5 163.5v16h88v-8q0 -147 160 -147t160 147v402l-192 -18q16 -6 35 -36.5t19 -76.5q0 -36 -8.5 -67t-28.5 -61t-60 -47t-96 -17t-86 21l24 77q17 -13 66 -13q40 0 70.5 23t30.5 73q0 25 -11 45t-27 30.5t-32 17.5t-27 9l-11 2v95l422 41
v-508q0 -104 -65 -163.5t-182 -59.5z" />
    <glyph glyph-name="uni10E0" unicode="&#x10e0;" horiz-adv-x="887" 
d="M87 0q-24 100 -27 220v196q0 115 73.5 178.5t212.5 63.5h105q61 0 113 14.5t55 45.5h85q-7 -78 -80.5 -111t-206.5 -33h-80q-96 0 -145 -43.5t-44 -122.5v-9q47 50 131 50q40 0 71.5 -8.5t48 -20.5t27.5 -23.5t14 -20.5l3 -8q1 3 4.5 8.5t17.5 19.5t32 24.5t51 19.5t73 9
q99 0 152.5 -52.5t53.5 -160.5q-1 -132 -28 -236h-86q25 109 26 231q0 137 -127 137q-121 0 -125 -133v-97h-88v97q-4 133 -124 133q-124 0 -127 -129q0 -128 26 -239h-87z" />
    <glyph glyph-name="uni10E1" unicode="&#x10e1;" horiz-adv-x="616" 
d="M314 -13q-118 0 -183.5 59.5t-65.5 163.5v496h88v-488q0 -147 160 -147q77 0 118.5 34.5t41.5 95.5q0 41 -23.5 106t-23.5 105q0 16 3.5 34t6.5 28l4 11h89q-14 -35 -14 -74q0 -34 23 -100t23 -108q0 -99 -66 -157.5t-181 -58.5z" />
    <glyph glyph-name="uni10E2" unicode="&#x10e2;" horiz-adv-x="654" 
d="M370 673q110 -10 167 -68.5t57 -155.5v-239q0 -105 -68 -164t-198 -59q-131 0 -199.5 59t-68.5 164v239q0 97 57 155.5t166 68.5v45h87v-45zM506 218v227q0 133 -136 150v-312h-87v311q-135 -17 -135 -149v-227q0 -73 42.5 -110t136.5 -37t136.5 37t42.5 110z" />
    <glyph glyph-name="uni10E3" unicode="&#x10e3;" horiz-adv-x="616" 
d="M309 -13q-118 0 -183.5 59.5t-65.5 163.5v16h88v-8q0 -147 160 -147t160 147v283q0 67 -28 100t-77 33q-48 0 -74.5 -29.5t-26.5 -85.5v-102h-88v102q0 60 -33 87.5t-85 27.5v84q35 0 65 -8.5t47 -21t29 -24.5t17 -20l4 -9q1 3 3.5 9t13.5 20t27 25t47 20t70 9
q86 0 131.5 -52.5t45.5 -134.5v-321q0 -104 -65 -163.5t-182 -59.5z" />
    <glyph glyph-name="uni10E4" unicode="&#x10e4;" horiz-adv-x="908" 
d="M539 -13q-157 0 -225.5 39t-80.5 116h91q7 -25 23.5 -39t62.5 -23t128 -9q120 0 171 30.5t51 87.5v53q0 96 -119 96h-5v81q117 0 117 108q0 49 -35.5 78t-90.5 29q-122 0 -122 -152v-42q0 -109 -60 -170t-172 -61q-113 0 -173 61t-60 170v48q0 108 60 169t172 61
q43 0 77.5 -9t54 -22t32.5 -26.5t18 -22.5l4 -9q1 4 4.5 10t17.5 21t32 27t51 21.5t72 9.5q90 0 148 -53.5t58 -138.5q0 -32 -6.5 -58.5t-15.5 -41.5t-18.5 -25.5t-16.5 -14.5l-6 -4q70 -52 70 -136v-57q0 -94 -75.5 -148t-233.5 -54zM273 293q75 0 110 37t35 114v40
q0 76 -34.5 113t-109.5 37t-110.5 -37t-35.5 -113v-40q0 -77 35 -114t110 -37z" />
    <glyph glyph-name="uni10E5" unicode="&#x10e5;" horiz-adv-x="621" 
d="M468 706h88v-496q0 -104 -65 -163.5t-182 -59.5q-118 0 -183.5 59.5t-65.5 163.5v16h88v-8q0 -147 160 -147t160 147v250q-8 57 -53.5 86.5t-108.5 29.5q-70 0 -108.5 -35t-34.5 -107h-89q-3 115 55 170.5t161 55.5q52 0 101.5 -15.5t76.5 -44.5v98z" />
    <glyph glyph-name="uni10E6" unicode="&#x10e6;" horiz-adv-x="888" 
d="M624 -13q-3 31 -54.5 45.5t-112.5 14.5h-105q-139 0 -213 63.5t-74 178.5v195q0 118 54 176t153 58q39 0 72 -9t51.5 -22t31.5 -26.5t17 -22.5l5 -9q1 4 4.5 10t17.5 21t32 27t51 21.5t72 9.5q99 0 153 -58t54 -176v-21q0 -151 -29 -263h-86q17 74 22 127.5t5 148.5
q4 76 -30 117t-98 41q-119 0 -124 -152v-179h-88v179q-5 152 -125 152q-64 0 -97.5 -40t-29.5 -116v-181q-5 -79 44 -122.5t145 -43.5h80q133 0 206.5 -33t80.5 -111h-85z" />
    <glyph glyph-name="uni10E7" unicode="&#x10e7;" horiz-adv-x="616" 
d="M309 -13q-118 0 -183.5 59.5t-65.5 163.5v16h88v-8q0 -147 160 -147t160 147v100q-55 -61 -170 -61q-118 0 -176 65t-58 160q0 50 9 106t19 87l9 31h81q-31 -117 -31 -224q0 -38 16 -67t42 -44.5t53 -22.5t54 -7q56 0 101.5 30.5t50.5 88.5v246h88v-496
q0 -104 -65 -163.5t-182 -59.5z" />
    <glyph glyph-name="uni10E8" unicode="&#x10e8;" horiz-adv-x="619" 
d="M310 -13q-114 0 -180.5 58.5t-66.5 157.5v25q0 112 63.5 166.5t166.5 54.5q52 0 102 -15.5t76 -44.5v112q0 67 -28 100t-77 33q-47 0 -74 -29.5t-27 -85.5h-88q0 60 -33 87.5t-84 27.5v84q35 0 64.5 -8.5t46.5 -21t29 -24.5t16 -20l5 -9q1 3 3.5 9t13.5 20t27 25t47.5 20
t70.5 9q85 0 130.5 -53t45.5 -134v-321q0 -104 -65.5 -163.5t-183.5 -59.5zM311 71q160 0 160 147v31q-7 57 -53 86.5t-109 29.5q-71 0 -114.5 -35t-43.5 -107v-22q0 -61 41.5 -95.5t118.5 -34.5z" />
    <glyph glyph-name="uni10E9" unicode="&#x10e9;" horiz-adv-x="616" 
d="M454 421q4 -2 11 -5t24.5 -18t31 -35t24.5 -56.5t11 -80.5q0 -50 -9 -106.5t-19 -87.5l-9 -32h-81q30 117 30 224q-1 71 -44 106t-114 35q-63 0 -108.5 -29.5t-53.5 -86.5v-249h-88v524q0 94 60.5 144t172.5 50q103 0 161.5 -46.5t58.5 -127.5q0 -28 -6 -50.5
t-14.5 -35.5t-17.5 -22t-15 -12zM360 447q30 11 47.5 36t17.5 55q0 96 -131 96q-146 0 -146 -115v-129q2 2 4 3q27 27 75.5 41.5t98.5 14.5q23 0 34 -2z" />
    <glyph glyph-name="uni10EA" unicode="&#x10ea;" horiz-adv-x="659" 
d="M328 -13q-131 0 -199.5 59t-68.5 164v270q0 50 9 106.5t19 87.5l9 32h82q-31 -117 -31 -224v-264q0 -73 42.5 -110t136.5 -37t136.5 37t42.5 110v24q0 96 -119 96h-66v81h61q116 0 116 85q0 41 -16 60.5t-57 26.5q-81 17 -110.5 39t-39.5 76h86q21 -35 75 -45
q83 -16 116.5 -50.5t33.5 -109.5q0 -25 -6.5 -46t-15.5 -34t-18 -22.5t-16 -12.5l-6 -4q3 -1 7.5 -4t16.5 -14.5t21.5 -26t17 -39t7.5 -52.5v-36q0 -105 -68 -164t-198 -59z" />
    <glyph glyph-name="uni10EB" unicode="&#x10eb;" horiz-adv-x="601" 
d="M45 228q0 112 63.5 166.5t166.5 54.5q52 0 102 -15.5t76 -44.5v317h88v-496q0 -104 -65.5 -163.5t-183.5 -59.5q-114 0 -180.5 58.5t-66.5 157.5v25zM134 201q0 -61 41 -95.5t118 -34.5q160 0 160 147v31q-7 57 -53 86.5t-109 29.5q-71 0 -114 -35t-43 -107v-22z" />
    <glyph glyph-name="uni10EC" unicode="&#x10ec;" horiz-adv-x="625" 
d="M65 0v531q0 82 45.5 134.5t131.5 52.5q39 0 70 -8.5t47 -21t27 -24.5t14 -20l3 -9q1 3 4.5 9t16.5 20t29.5 25t46.5 20t65 9v-84q-51 0 -84.5 -27.5t-33.5 -87.5h-88q0 56 -26.5 85.5t-74.5 29.5q-49 0 -77 -33t-28 -100v-112q26 29 76 44.5t102 15.5q104 0 167 -54.5
t63 -166.5v-12q0 -99 -66 -157.5t-181 -58.5h-249zM153 84h161q77 0 118 34.5t41 95.5v9q0 72 -43.5 107t-114.5 35q-63 0 -108.5 -29.5t-53.5 -86.5v-165z" />
    <glyph glyph-name="uni10ED" unicode="&#x10ed;" horiz-adv-x="616" 
d="M377 435q81 -13 130 -70t49 -154q0 -104 -65 -164t-182 -60q-118 0 -183.5 59.5t-65.5 163.5v16h88v-8q0 -147 160 -147q157 0 160 140q0 64 -36 100t-95 42q-53 -50 -134 -50q-72 0 -107.5 43.5t-35.5 113.5q0 67 46.5 112t120.5 45h67v89h88v-88h147v-84h-152v-99z
M294 428v105h-64q-36 0 -59 -21.5t-23 -52.5q0 -73 66 -73q23 0 43 10.5t29 21.5z" />
    <glyph glyph-name="uni10EE" unicode="&#x10ee;" horiz-adv-x="601" 
d="M309 -13q-118 0 -183.5 59.5t-65.5 163.5v496h88v-317q26 29 76 44.5t102 15.5q103 0 166.5 -54.5t63.5 -166.5v-25q0 -99 -66.5 -157.5t-180.5 -58.5zM308 71q77 0 118 34.5t41 95.5v22q0 72 -43 107t-114 35q-63 0 -109 -29.5t-53 -86.5v-31q0 -147 160 -147z" />
    <glyph glyph-name="uni10EF" unicode="&#x10ef;" horiz-adv-x="616" 
d="M326 439q102 0 166 -57.5t64 -170.5q0 -104 -65 -164t-182 -60q-118 0 -183.5 59.5t-65.5 163.5v16h88v-8q0 -147 160 -147q157 0 159 140q0 72 -43 108t-114 36h-100l26 170h-154v84h167l16 97h89l-16 -97h180v-84h-193l-13 -86h14z" />
    <glyph glyph-name="uni10F0" unicode="&#x10f0;" horiz-adv-x="586" 
d="M290 -13q-103 0 -166.5 54t-63.5 143v42h88v-42q0 -54 38 -83.5t105 -29.5q58 0 100 22t42 55q0 66 -106 66h-77v81h72q53 0 79 17t26 45q0 27 -26.5 42t-73.5 15h-77v81h72q104 0 104 50q0 23 -27.5 35.5t-87.5 21.5q-92 14 -133 40.5t-45 75.5h86q8 -30 103 -45
q90 -14 141 -45t51 -76q0 -32 -18 -55.5t-36 -30.5l-19 -8q3 -1 8 -3t18 -10.5t23 -19t18 -28.5t8 -40q0 -34 -19 -58.5t-37 -32.5l-19 -8q3 -1 8.5 -2.5t19.5 -9.5t24.5 -19t19 -32t8.5 -47q0 -68 -61 -114.5t-170 -46.5z" />
    <glyph glyph-name="Wgrave" unicode="&#x1e80;" horiz-adv-x="891" 
d="M398 762l-131 140h107l115 -140h-91zM869 706l-174 -706h-112l-137 534l-138 -534h-112l-174 706h91l143 -608l149 608h78l154 -609l141 609h91z" />
    <glyph glyph-name="wgrave" unicode="&#x1e81;" horiz-adv-x="671" 
d="M295 562l-115 164h97l100 -164h-82zM660 505l-129 -505h-87l-108 339l-108 -339h-87l-129 505h86l94 -412l109 412h69l109 -414l94 414h87z" />
    <glyph glyph-name="Wacute" unicode="&#x1e82;" horiz-adv-x="891" 
d="M494 762h-91l115 140h107zM869 706l-174 -706h-112l-137 534l-138 -534h-112l-174 706h91l143 -608l149 608h78l154 -609l141 609h91z" />
    <glyph glyph-name="wacute" unicode="&#x1e83;" horiz-adv-x="671" 
d="M377 562h-82l100 164h97zM660 505l-129 -505h-87l-108 339l-108 -339h-87l-129 505h86l94 -412l109 412h69l109 -414l94 414h87z" />
    <glyph glyph-name="Wdieresis" unicode="&#x1e84;" horiz-adv-x="891" 
d="M390 784h-84v97h84v-97zM585 784h-84v97h84v-97zM869 706l-174 -706h-112l-137 534l-138 -534h-112l-174 706h91l143 -608l149 608h78l154 -609l141 609h91z" />
    <glyph glyph-name="wdieresis" unicode="&#x1e85;" horiz-adv-x="671" 
d="M280 584h-84v97h84v-97zM475 584h-84v97h84v-97zM660 505l-129 -505h-87l-108 339l-108 -339h-87l-129 505h86l94 -412l109 412h69l109 -414l94 414h87z" />
    <glyph glyph-name="Ygrave" unicode="&#x1ef2;" horiz-adv-x="579" 
d="M242 762l-131 140h107l115 -140h-91zM333 263v-263h-88v262l-223 444h96l172 -341l172 341h95z" />
    <glyph glyph-name="ygrave" unicode="&#x1ef3;" horiz-adv-x="553" 
d="M236 562l-115 164h97l100 -164h-82zM480 505v-553q0 -87 -55 -141t-155 -54q-93 0 -143.5 43t-57.5 112h85q15 -74 115 -74q60 0 93.5 31t33.5 89v81q-51 -52 -139 -52q-186 0 -186 223v295h85v-293q0 -144 116 -144q54 0 87 30.5t37 91.5v315h84z" />
    <glyph glyph-name="uni2009" unicode="&#x2009;" horiz-adv-x="83" 
 />
    <glyph glyph-name="endash" unicode="&#x2013;" horiz-adv-x="442" 
d="M53 313h336v-76h-336v76z" />
    <glyph glyph-name="emdash" unicode="&#x2014;" horiz-adv-x="617" 
d="M53 313h510v-76h-510v76z" />
    <glyph glyph-name="quoteleft" unicode="&#x2018;" horiz-adv-x="204" 
d="M47 636l52 134h38l-26 -134h24v-106h-88v106z" />
    <glyph glyph-name="quoteright" unicode="&#x2019;" horiz-adv-x="204" 
d="M157 664l-52 -134h-38l26 134h-24v106h88v-106z" />
    <glyph glyph-name="quotesinglbase" unicode="&#x201a;" horiz-adv-x="219" 
d="M165 0l-52 -134h-38l26 134h-24v106h88v-106z" />
    <glyph glyph-name="quotedblleft" unicode="&#x201c;" horiz-adv-x="357" 
d="M47 636l52 134h38l-26 -134h24v-106h-88v106zM200 636l52 134h38l-26 -134h24v-106h-88v106z" />
    <glyph glyph-name="quotedblright" unicode="&#x201d;" horiz-adv-x="357" 
d="M157 664l-52 -134h-38l26 134h-24v106h88v-106zM310 664l-52 -134h-38l26 134h-24v106h88v-106z" />
    <glyph glyph-name="quotedblbase" unicode="&#x201e;" horiz-adv-x="383" 
d="M168 0l-52 -134h-38l26 134h-24v106h88v-106zM321 0l-52 -134h-38l26 134h-24v106h88v-106z" />
    <glyph glyph-name="dagger" unicode="&#x2020;" horiz-adv-x="424" 
d="M370 453h-116v-630h-83v630h-117v79h117v173h83v-173h116v-79z" />
    <glyph glyph-name="daggerdbl" unicode="&#x2021;" horiz-adv-x="424" 
d="M254 453v-169h116v-78h-116v-383h-83v383h-117v78h117v169h-117v79h117v173h83v-173h116v-79h-116z" />
    <glyph glyph-name="bullet" unicode="&#x2022;" horiz-adv-x="300" 
d="M150 408q44 0 70.5 -28t26.5 -75t-26.5 -75.5t-70.5 -28.5t-71 28.5t-27 75.5t27 75t71 28z" />
    <glyph glyph-name="ellipsis" unicode="&#x2026;" horiz-adv-x="648" 
d="M67 106h90v-106h-90v106zM279 106h90v-106h-90v106zM491 106h90v-106h-90v106z" />
    <glyph glyph-name="perthousand" unicode="&#x2030;" horiz-adv-x="1038" 
d="M178 359q-66 0 -104.5 30.5t-38.5 81.5v134q0 52 38 82.5t104 30.5q67 0 105.5 -30.5t38.5 -82.5v-134q0 -51 -38.5 -81.5t-104.5 -30.5zM530 705h70l-433 -705h-70zM178 416q82 0 82 65v115q0 64 -82 64t-82 -64v-115q0 -65 82 -65zM517 -13q-66 0 -104.5 30.5
t-38.5 81.5v134q0 52 38 82.5t104 30.5q67 0 105.5 -30.5t38.5 -82.5v-134q0 -51 -38.5 -81.5t-104.5 -30.5zM860 -13q-66 0 -104.5 30.5t-38.5 81.5v134q0 52 38 82.5t104 30.5q67 0 105.5 -30.5t38.5 -82.5v-134q0 -51 -38.5 -81.5t-104.5 -30.5zM517 45q82 0 82 64v115
q0 65 -81 65q-83 0 -83 -65v-115q0 -64 82 -64zM860 45q82 0 82 64v115q0 65 -82 65t-82 -65v-115q0 -64 82 -64z" />
    <glyph glyph-name="guilsinglleft" unicode="&#x2039;" horiz-adv-x="366" 
d="M295 388l-168 -131l168 -132v-91l-226 177v91l226 178v-92z" />
    <glyph glyph-name="guilsinglright" unicode="&#x203a;" horiz-adv-x="366" 
d="M297 302v-91l-226 -177v91l168 132l-168 131v92z" />
    <glyph glyph-name="fraction" unicode="&#x2044;" horiz-adv-x="129" 
d="M151 707h72l-246 -707h-72z" />
    <glyph glyph-name="Euro" unicode="&#x20ac;" horiz-adv-x="691" 
d="M540 448v40q0 146 -174 146q-178 0 -178 -146v-29h253v-72h-253v-69h253v-72h-253v-28q0 -146 177 -146q175 0 175 146v40h91v-47q0 -105 -68.5 -164t-196.5 -59q-129 0 -197.5 59.5t-68.5 163.5v35h-90v72h90v69h-90v72h90v36q0 105 68.5 164t196.5 59
q129 0 197.5 -59.5t68.5 -163.5v-47h-91z" />
    <glyph glyph-name="uni20BD" unicode="&#x20bd;" horiz-adv-x="662" 
d="M392 705q102 0 159 -49.5t57 -136.5v-45q0 -87 -56.5 -136.5t-159.5 -49.5h-189v-78h213v-84h-213v-126h-87v126h-94v84h94v78h-94v83h94v334h276zM520 519q0 103 -123 103h-194v-251h194q123 0 123 103v45z" />
    <glyph glyph-name="uni20BE" unicode="&#x20be;" horiz-adv-x="664" 
d="M599 359h-88v126q0 98 -72 130v-256h-73v274q-10 1 -33 1q-24 0 -35 -1v-274h-73v256q-72 -33 -72 -130v-254q0 -73 42.5 -110t136.5 -37h230v-84h-472v71h61q-86 53 -86 178v243q0 81 40.5 136t119.5 77v100h73v-88q11 1 34 1t34 -1v88h73v-100q79 -21 119.5 -76
t40.5 -137v-133z" />
    <glyph glyph-name="uni2116" unicode="&#x2116;" horiz-adv-x="1174" 
d="M904 718q105 0 160.5 -55t55.5 -154v-112q0 -99 -55.5 -154.5t-159.5 -55.5q-105 0 -160.5 55.5t-55.5 154.5v112q0 99 55.5 154t159.5 55zM477 705h82v-705h-82l-319 543v-543h-82v705h82l319 -544v544zM1035 504q0 68 -31.5 100.5t-98.5 32.5q-68 0 -99.5 -33
t-31.5 -100v-102q0 -68 31.5 -101t98.5 -33q131 0 131 134v102zM723 74h357v-74h-357v74z" />
    <glyph glyph-name="trademark" unicode="&#x2122;" horiz-adv-x="653" 
d="M256 654h-95v-267h-54v267h-95v51h244v-51zM583 387h-50v235l-76 -235h-40l-76 237v-237h-49v318h67l78 -218l78 218h68v-318z" />
    <glyph glyph-name="uni2126" unicode="&#x2126;" horiz-adv-x="649" 
d="M604 84v-84h-246v84q141 10 141 145v256q0 74 -41.5 111.5t-132.5 37.5q-92 0 -133.5 -37.5t-41.5 -111.5v-256q0 -135 140 -145v-84h-245v84h67q-50 53 -50 136v272q0 106 67 166t196 60q128 0 195 -60t67 -166v-272q0 -83 -50 -136h67z" />
    <glyph glyph-name="uni2150" unicode="&#x2150;" horiz-adv-x="768" 
d="M260 352h-196v61h65v232h-65v62h130v-294h66v-61zM537 707l-246 -707h-72l246 707h72zM743 355v-62l-145 -293h-72l145 293h-160v62h232z" />
    <glyph glyph-name="uni2151" unicode="&#x2151;" horiz-adv-x="768" 
d="M260 352h-196v61h65v232h-65v62h130v-294h66v-61zM537 707l-246 -707h-72l246 707h72zM605 362q56 0 90.5 -30t34.5 -80v-145q0 -52 -35 -83t-90 -31q-53 0 -87.5 28.5t-34.5 76.5h65q0 -22 15.5 -33.5t41.5 -11.5q60 0 60 54v36q-31 -20 -72 -20q-48 0 -80 26t-32 70v39
q0 47 34.5 75.5t89.5 28.5zM605 180q58 0 60 39v37q0 46 -60 46q-59 0 -59 -45v-39q0 -18 16 -28t43 -10z" />
    <glyph glyph-name="uni2153" unicode="&#x2153;" horiz-adv-x="768" 
d="M260 352h-196v61h65v232h-65v62h130v-294h66v-61zM537 707l-246 -707h-72l246 707h72zM730 240q0 -36 -27 -60q27 -25 27 -61v-25q0 -46 -34.5 -73.5t-89.5 -27.5q-56 0 -90.5 28.5t-34.5 76.5v15h66v-18q0 -41 61 -41q57 0 57 38v25q0 33 -50 33h-59v59h59q49 0 49 32
v22q0 37 -56 37q-61 0 -61 -41v-18h-66v15q0 48 34.5 77t90.5 29q54 0 89 -27.5t35 -73.5v-21z" />
    <glyph glyph-name="uni2154" unicode="&#x2154;" horiz-adv-x="768" 
d="M283 352h-245v61q0 31 28.5 58.5t63 44.5t63 39.5t28.5 45.5v12q0 18 -15 28.5t-41 10.5q-57 0 -57 -52v-14h-65v12q0 53 33.5 84.5t90.5 31.5q53 0 86 -27.5t33 -72.5v-17q0 -30 -18 -55t-44 -41.5t-52.5 -31t-44.5 -28.5t-18 -28h174v-61zM537 707l-246 -707h-72
l246 707h72zM730 240q0 -36 -27 -60q27 -25 27 -61v-25q0 -46 -34.5 -73.5t-89.5 -27.5q-56 0 -90.5 28.5t-34.5 76.5v15h66v-18q0 -41 61 -41q57 0 57 38v25q0 33 -50 33h-59v59h59q49 0 49 32v22q0 37 -56 37q-61 0 -61 -41v-18h-66v15q0 48 34.5 77t90.5 29
q54 0 89 -27.5t35 -73.5v-21z" />
    <glyph glyph-name="uni2155" unicode="&#x2155;" horiz-adv-x="768" 
d="M260 352h-196v61h65v232h-65v62h130v-294h66v-61zM537 707l-246 -707h-72l246 707h72zM624 223q46 0 73 -26.5t27 -71.5v-29q0 -47 -32.5 -75t-85.5 -28q-54 0 -86.5 28t-32.5 75v27h65v-32q0 -38 53 -38q54 0 54 38v38q0 35 -35 35h-127v191h214v-62h-149v-70h62z" />
    <glyph glyph-name="uni2156" unicode="&#x2156;" horiz-adv-x="768" 
d="M283 352h-245v61q0 31 28.5 58.5t63 44.5t63 39.5t28.5 45.5v12q0 18 -15 28.5t-41 10.5q-57 0 -57 -52v-14h-65v12q0 53 33.5 84.5t90.5 31.5q53 0 86 -27.5t33 -72.5v-17q0 -30 -18 -55t-44 -41.5t-52.5 -31t-44.5 -28.5t-18 -28h174v-61zM537 707l-246 -707h-72
l246 707h72zM624 223q46 0 73 -26.5t27 -71.5v-29q0 -47 -32.5 -75t-85.5 -28q-54 0 -86.5 28t-32.5 75v27h65v-32q0 -38 53 -38q54 0 54 38v38q0 35 -35 35h-127v191h214v-62h-149v-70h62z" />
    <glyph glyph-name="uni2157" unicode="&#x2157;" horiz-adv-x="768" 
d="M287 446q0 -46 -34.5 -73.5t-89.5 -27.5q-56 0 -90.5 28.5t-34.5 76.5v15h66v-18q0 -41 61 -41q57 0 57 38v25q0 33 -50 33h-59v59h59q49 0 49 32v22q0 37 -56 37q-61 0 -61 -41v-18h-66v15q0 48 34.5 77t90.5 29q54 0 89 -27.5t35 -73.5v-21q0 -36 -27 -60
q27 -25 27 -61v-25zM537 707l-246 -707h-72l246 707h72zM624 223q46 0 73 -26.5t27 -71.5v-29q0 -47 -32.5 -75t-85.5 -28q-54 0 -86.5 28t-32.5 75v27h65v-32q0 -38 53 -38q54 0 54 38v38q0 35 -35 35h-127v191h214v-62h-149v-70h62z" />
    <glyph glyph-name="uni2158" unicode="&#x2158;" horiz-adv-x="768" 
d="M213 352v76h-167v61l97 218h71l-97 -218h96v89h65v-226h-65zM537 707l-246 -707h-72l246 707h72zM624 223q46 0 73 -26.5t27 -71.5v-29q0 -47 -32.5 -75t-85.5 -28q-54 0 -86.5 28t-32.5 75v27h65v-32q0 -38 53 -38q54 0 54 38v38q0 35 -35 35h-127v191h214v-62h-149v-70
h62z" />
    <glyph glyph-name="uni2159" unicode="&#x2159;" horiz-adv-x="768" 
d="M260 352h-196v61h65v232h-65v62h130v-294h66v-61zM537 707l-246 -707h-72l246 707h72zM618 228q49 0 80.5 -25.5t31.5 -70.5v-36q0 -47 -34.5 -75t-89.5 -28q-56 0 -90.5 30t-34.5 80v145q0 52 35 83t90 31q53 0 87.5 -29t34.5 -77h-64q0 22 -16 34t-42 12q-60 0 -60 -54
v-40q31 20 72 20zM665 133q0 18 -15.5 28.5t-42.5 10.5q-58 0 -61 -39v-34q0 -46 60 -46q59 0 59 45v35z" />
    <glyph glyph-name="uni215A" unicode="&#x215a;" horiz-adv-x="768" 
d="M281 448q0 -47 -32.5 -75t-85.5 -28q-54 0 -86.5 28t-32.5 75v27h65v-32q0 -38 53 -38q54 0 54 38v38q0 35 -35 35h-127v191h214v-62h-149v-70h62q46 0 73 -26.5t27 -71.5v-29zM537 707l-246 -707h-72l246 707h72zM618 228q49 0 80.5 -25.5t31.5 -70.5v-36
q0 -47 -34.5 -75t-89.5 -28q-56 0 -90.5 30t-34.5 80v145q0 52 35 83t90 31q53 0 87.5 -29t34.5 -77h-64q0 22 -16 34t-42 12q-60 0 -60 -54v-40q31 20 72 20zM665 133q0 18 -15.5 28.5t-42.5 10.5q-58 0 -61 -39v-34q0 -46 60 -46q59 0 59 45v35z" />
    <glyph glyph-name="oneeighth" unicode="&#x215b;" horiz-adv-x="768" 
d="M260 352h-196v61h65v232h-65v62h130v-294h66v-61zM537 707l-246 -707h-72l246 707h72zM699 180q35 -24 35 -65v-31q0 -41 -35.5 -66t-92.5 -25q-58 0 -93 25t-35 66v31q0 40 34 65q-31 23 -31 62v25q0 43 34.5 69t90.5 26t90 -26t34 -69v-25q0 -39 -31 -62zM546 242
q0 -37 60 -37q59 0 59 37v22q0 40 -59 40q-60 0 -60 -40v-22zM668 115q0 39 -62 39q-63 0 -63 -39v-28q0 -37 63 -37q62 0 62 37v28z" />
    <glyph glyph-name="threeeighths" unicode="&#x215c;" horiz-adv-x="768" 
d="M287 446q0 -46 -34.5 -73.5t-89.5 -27.5q-56 0 -90.5 28.5t-34.5 76.5v15h66v-18q0 -41 61 -41q57 0 57 38v25q0 33 -50 33h-59v59h59q49 0 49 32v22q0 37 -56 37q-61 0 -61 -41v-18h-66v15q0 48 34.5 77t90.5 29q54 0 89 -27.5t35 -73.5v-21q0 -36 -27 -60
q27 -25 27 -61v-25zM537 707l-246 -707h-72l246 707h72zM699 180q35 -24 35 -65v-31q0 -41 -35.5 -66t-92.5 -25q-58 0 -93 25t-35 66v31q0 40 34 65q-31 23 -31 62v25q0 43 34.5 69t90.5 26t90 -26t34 -69v-25q0 -39 -31 -62zM546 242q0 -37 60 -37q59 0 59 37v22
q0 40 -59 40q-60 0 -60 -40v-22zM668 115q0 39 -62 39q-63 0 -63 -39v-28q0 -37 63 -37q62 0 62 37v28z" />
    <glyph glyph-name="fiveeighths" unicode="&#x215d;" horiz-adv-x="768" 
d="M281 448q0 -47 -32.5 -75t-85.5 -28q-54 0 -86.5 28t-32.5 75v27h65v-32q0 -38 53 -38q54 0 54 38v38q0 35 -35 35h-127v191h214v-62h-149v-70h62q46 0 73 -26.5t27 -71.5v-29zM537 707l-246 -707h-72l246 707h72zM699 180q35 -24 35 -65v-31q0 -41 -35.5 -66t-92.5 -25
q-58 0 -93 25t-35 66v31q0 40 34 65q-31 23 -31 62v25q0 43 34.5 69t90.5 26t90 -26t34 -69v-25q0 -39 -31 -62zM546 242q0 -37 60 -37q59 0 59 37v22q0 40 -59 40q-60 0 -60 -40v-22zM668 115q0 39 -62 39q-63 0 -63 -39v-28q0 -37 63 -37q62 0 62 37v28z" />
    <glyph glyph-name="seveneighths" unicode="&#x215e;" horiz-adv-x="768" 
d="M300 645l-145 -293h-72l145 293h-160v62h232v-62zM537 707l-246 -707h-72l246 707h72zM699 180q35 -24 35 -65v-31q0 -41 -35.5 -66t-92.5 -25q-58 0 -93 25t-35 66v31q0 40 34 65q-31 23 -31 62v25q0 43 34.5 69t90.5 26t90 -26t34 -69v-25q0 -39 -31 -62zM546 242
q0 -37 60 -37q59 0 59 37v22q0 40 -59 40q-60 0 -60 -40v-22zM668 115q0 39 -62 39q-63 0 -63 -39v-28q0 -37 63 -37q62 0 62 37v28z" />
    <glyph glyph-name="arrowleft" unicode="&#x2190;" horiz-adv-x="738" 
d="M690 299h-468l231 -216h-123l-283 260v3l283 260h123l-230 -215h467v-92z" />
    <glyph glyph-name="arrowup" unicode="&#x2191;" horiz-adv-x="617" 
d="M570 304l-217 234v-538h-88v538l-217 -234v128l260 282h2l260 -282v-128z" />
    <glyph glyph-name="arrowright" unicode="&#x2192;" horiz-adv-x="738" 
d="M691 346v-3l-283 -260h-123l231 216h-468v92h467l-230 215h123z" />
    <glyph glyph-name="arrowdown" unicode="&#x2193;" horiz-adv-x="617" 
d="M570 410v-128l-260 -282h-2l-260 282v128l217 -234v538h88v-538z" />
    <glyph glyph-name="arrowboth" unicode="&#x2194;" horiz-adv-x="1093" 
d="M1046 346v-3l-283 -260h-122l231 216h-650l231 -216h-123l-282 260v3l282 260h123l-230 -215h648l-230 215h122z" />
    <glyph glyph-name="arrowupdn" unicode="&#x2195;" horiz-adv-x="617" 
d="M355 663v-650l216 231v-123l-260 -282h-3l-260 282v123l215 -230v648l-215 -230v122l260 283h3l260 -283v-122z" />
    <glyph glyph-name="uni2196" unicode="&#x2196;" horiz-adv-x="638" 
d="M528 71l-380 381l12 -319l-91 90l-15 384l1 1l384 -15l90 -91l-319 12l381 -380z" />
    <glyph glyph-name="uni2197" unicode="&#x2197;" horiz-adv-x="638" 
d="M584 611l-15 -384l-91 -90l12 319l-380 -381l-63 63l381 380l-319 -12l90 91l384 15z" />
    <glyph glyph-name="uni2198" unicode="&#x2198;" horiz-adv-x="638" 
d="M584 101l-1 -1l-384 15l-90 91l319 -12l-381 380l63 63l380 -381l-12 319l91 -90z" />
    <glyph glyph-name="uni2199" unicode="&#x2199;" horiz-adv-x="638" 
d="M210 199l319 12l-90 -91l-384 -15l-1 1l15 384l91 90l-12 -319l380 381l63 -63z" />
    <glyph glyph-name="uni2206" unicode="&#x2206;" horiz-adv-x="624" 
d="M595 84v-84h-566v84l222 621h122zM120 84h384l-192 528z" />
    <glyph glyph-name="product" unicode="&#x220f;" horiz-adv-x="726" 
d="M695 622h-98v-732h-88v732h-292v-732h-88v732h-98v83h664v-83z" />
    <glyph glyph-name="summation" unicode="&#x2211;" horiz-adv-x="549" 
d="M520 622h-391l225 -296v-57l-224 -295h390v-84h-491v84l248 324l-248 324v83h491v-83z" />
    <glyph glyph-name="minus" unicode="&#x2212;" horiz-adv-x="505" 
d="M52 407h400v-84h-400v84z" />
    <glyph glyph-name="uni2215" unicode="&#x2215;" horiz-adv-x="501" 
d="M450 705h76l-475 -705h-76z" />
    <glyph glyph-name="infinity" unicode="&#x221e;" horiz-adv-x="663" 
d="M486 512q65 0 103.5 -40.5t38.5 -111.5v-44q0 -72 -38 -112.5t-102 -40.5q-55 0 -89 29.5t-70 90.5q-37 -63 -68.5 -91.5t-85.5 -28.5q-64 0 -102 40.5t-38 112.5v44q0 71 38.5 111.5t102.5 40.5q90 0 153 -97q65 97 157 97zM186 242q33 0 52.5 23.5t52.5 84.5
q-25 43 -48 63.5t-55 20.5q-33 0 -51.5 -21t-18.5 -58v-34q0 -37 18 -58t50 -21zM545 355q0 37 -18.5 58t-52.5 21q-33 0 -56.5 -20.5t-49.5 -63.5q15 -28 20.5 -37.5t18 -28t21 -24.5t21 -12t27.5 -6q32 0 50.5 21t18.5 58v34z" />
    <glyph glyph-name="integral" unicode="&#x222b;" horiz-adv-x="327" 
d="M374 770v-81h-40q-54 0 -77.5 -27t-28.5 -91l-44 -582q-7 -94 -48 -137t-128 -43h-55v80h41q53 0 76.5 27.5t28.5 90.5l45 583q7 94 47.5 137t127.5 43h55z" />
    <glyph glyph-name="approxequal" unicode="&#x2248;" horiz-adv-x="515" 
d="M161 543q37 0 103 -38q49 -29 77 -29q52 0 52 62h75q0 -64 -27 -104t-85 -40q-43 0 -105 37q-48 30 -74 30q-56 0 -56 -68h-75q0 68 27.5 109t87.5 41zM161 345q6 0 11.5 -0.5t10 -1.5t11 -3t10 -3t10.5 -4t9.5 -4.5t10 -5.5t9.5 -5t10.5 -6t10.5 -6q49 -29 77 -29
q52 0 52 62h75q0 -64 -27 -104t-85 -40q-43 0 -105 37q-49 31 -74 31q-27 0 -41.5 -18.5t-14.5 -50.5h-75q0 68 27.5 109.5t87.5 41.5z" />
    <glyph glyph-name="notequal" unicode="&#x2260;" horiz-adv-x="502" 
d="M321 434l-48 -138h174v-84h-203l-54 -158h-83l55 158h-115v84h144l47 138h-191v84h220l55 158h82l-54 -158h97v-84h-126z" />
    <glyph glyph-name="lessequal" unicode="&#x2264;" horiz-adv-x="505" 
d="M380 170l-305 211l305 211l48 -64l-213 -147l212 -147zM453 84v-84h-400v84h400z" />
    <glyph glyph-name="greaterequal" unicode="&#x2265;" horiz-adv-x="505" 
d="M290 381l-213 147l48 64l305 -211l-305 -211l-47 64zM452 84v-84h-400v84h400z" />
    <glyph glyph-name="Iacute_J.loclNLD" horiz-adv-x="608" 
d="M168 762h-91l115 140h107zM536 762h-91l115 140h107zM76 705h88v-705h-88v705zM254 84h55q66 0 100.5 38t34.5 106v477h88v-481q0 -100 -61.5 -162t-165.5 -62h-51v84z" />
    <glyph glyph-name="eth.bold" horiz-adv-x="544" 
d="M421 672q62 -84 62 -233v-229q0 -107 -56 -165t-159 -58q-102 0 -158 55.5t-56 160.5v102q0 213 196 213q96 0 148 -53q-5 123 -64 180t-188 57v81q140 0 221 -58l68 63l55 -51zM398 316q-10 121 -132 121q-65 0 -96 -33t-31 -104v-92q0 -72 31 -106t98 -34t98.5 36
t31.5 111v101z" />
    <glyph glyph-name="iacute_j.loclNLD" horiz-adv-x="492" 
d="M159 562h-82l100 164h97zM412 562h-82l100 164h97zM75 505h85v-505h-85v505zM205 -149h21q57 0 80 31t23 93v530h84v-554q0 -92 -44.5 -136.5t-120.5 -44.5h-43v81z" />
    <glyph glyph-name="uni0414.loclBGR" horiz-adv-x="762" 
d="M732 84v-219h-88v135h-526v-135h-88v219h92l198 621h121l199 -621h92zM547 84l-166 517l-166 -517h332z" />
    <glyph glyph-name="uni041B.loclBGR" horiz-adv-x="616" 
d="M501 0l-193 601l-193 -601h-93l225 705h121l226 -705h-93z" />
    <glyph glyph-name="uni0424.loclBGR" horiz-adv-x="902" 
d="M632 632q102 0 159 -49.5t57 -136.5v-160q0 -88 -56.5 -137t-159.5 -49h-137v-100h-88v100h-138q-102 0 -158.5 49.5t-56.5 136.5v160q0 87 56.5 136.5t159.5 49.5h137v73h88v-73h137zM407 183v366h-143q-123 0 -123 -103v-160q0 -103 124 -103h142zM760 446
q0 103 -122 103h-143v-366h142q123 0 123 103v160z" />
    <glyph glyph-name="uni04C5.loclBGR" horiz-adv-x="702" 
d="M645 -135h-88l17 135h-73l-193 601l-193 -601h-93l225 705h121l199 -621h105z" />
    <glyph glyph-name="uni04E2.loclBGR" horiz-adv-x="644" 
d="M487 801h-328v74h328v-74zM568 705v-705h-82v552l-328 -552h-82v705h82v-553l328 553h82z" />
    <glyph glyph-name="uni04E4.loclBGR" horiz-adv-x="644" 
d="M267 784h-84v97h84v-97zM462 784h-84v97h84v-97zM568 705v-705h-82v552l-328 -552h-82v705h82v-553l328 553h82z" />
    <glyph glyph-name="uni0492.loclBSH" horiz-adv-x="540" 
d="M164 622v-225h244v-83h-244v-314h-88v705h434v-83h-346z" />
    <glyph glyph-name="uni04AA.loclCHU" horiz-adv-x="649" 
d="M499 448v40q0 146 -174 146q-178 0 -178 -146v-270q0 -146 177 -146q175 0 175 146v40h91v-47q0 -97 -60 -156t-173 -66l-31 -144h-92l47 145q-107 10 -164.5 68t-57.5 153v284q0 105 68.5 164t196.5 59q129 0 197.5 -59.5t68.5 -163.5v-47h-91z" />
    <glyph glyph-name="uni0432.loclBGR" horiz-adv-x="539" 
d="M392 456q93 -47 93 -187v-73q0 -100 -56 -154.5t-159 -54.5q-104 0 -160 54.5t-56 154.5v374q0 100 52.5 154t149.5 54q90 0 142 -48.5t52 -131.5v-12q0 -83 -58 -130zM257 696q-118 0 -118 -131v-87h124q47 0 74.5 27t27.5 73v15q0 49 -28 76t-80 27zM400 264
q0 68 -31.5 100.5t-98.5 32.5h-131v-196q0 -68 31.5 -100.5t98.5 -32.5t99 32.5t32 100.5v63z" />
    <glyph glyph-name="uni0433.loclBGR" horiz-adv-x="488" 
d="M239 -12q-93 0 -146.5 41t-53.5 113q0 52 31.5 85t76.5 46.5t90 23.5t76.5 27t31.5 47q0 32 -29 51.5t-78 19.5q-50 0 -78 -23t-28 -65v-10h-84v10q0 76 51 120t139 44q89 0 140 -41t51 -112q0 -51 -31.5 -82t-76.5 -44t-90 -23t-76.5 -29t-31.5 -51q0 -33 30.5 -52.5
t81.5 -19.5q60 0 93.5 24.5t33.5 68.5v9h84v-10q0 -78 -55.5 -123t-151.5 -45z" />
    <glyph glyph-name="uni0434.loclBGR" horiz-adv-x="557" 
d="M484 505v-553q0 -90 -56.5 -142.5t-155.5 -52.5q-91 0 -143.5 41t-59.5 114h85q15 -74 116 -74q62 0 95.5 31t33.5 89v82q-52 -53 -148 -53q-197 0 -197 213v105q0 213 197 213q104 0 158 -64l16 51h59zM266 68q123 0 133 122v126q-10 121 -133 121q-65 0 -96 -33
t-31 -104v-94q0 -71 31.5 -104.5t95.5 -33.5z" />
    <glyph glyph-name="uni0436.loclBGR" horiz-adv-x="793" 
d="M528 276l247 -276h-103l-233 256v-256h-85v256l-233 -256h-103l247 276l-247 229h107l229 -209v474h85v-474l229 209h107z" />
    <glyph glyph-name="uni0437.loclBGR" horiz-adv-x="519" 
d="M379 161q40 -21 63.5 -62.5t23.5 -95.5v-40q0 -96 -55 -151t-152 -55q-95 0 -150 53t-55 145v21h85v-23q0 -56 31 -85.5t90 -29.5q121 0 121 129v31q0 55 -30 85.5t-84 30.5h-83v81h77q49 0 77 28.5t28 78.5v29q0 50 -28 78t-81 28q-52 0 -81.5 -28.5t-29.5 -80.5v-22
h-85v23q0 87 53.5 138t143.5 51q89 0 141 -50.5t52 -136.5v-30q0 -90 -72 -140z" />
    <glyph glyph-name="uni0438.loclBGR" horiz-adv-x="550" 
d="M477 505v-505h-58l-15 53q-50 -66 -151 -66q-185 0 -185 223v295h85v-293q0 -144 115 -144q54 0 87 30.5t37 91.5v315h85z" />
    <glyph glyph-name="uni0439.loclBGR" horiz-adv-x="550" 
d="M274 556q-62 0 -103 36.5t-41 95.5h56q0 -35 24.5 -55.5t63.5 -20.5t64 20.5t25 55.5h56q0 -59 -41 -95.5t-104 -36.5zM477 505v-505h-58l-15 53q-50 -66 -151 -66q-185 0 -185 223v295h85v-293q0 -144 115 -144q54 0 87 30.5t37 91.5v315h85z" />
    <glyph glyph-name="uni048B.loclBGR" horiz-adv-x="565" 
d="M517 -135h-84l17 135h-39l-15 53q-50 -66 -151 -66q-185 0 -185 223v295h85v-293q0 -144 115 -144q54 0 87 30.5t37 91.5v315h85v-425h75z" />
    <glyph glyph-name="uni045D.loclBGR" horiz-adv-x="550" 
d="M234 562l-115 164h97l100 -164h-82zM477 505v-505h-58l-15 53q-50 -66 -151 -66q-185 0 -185 223v295h85v-293q0 -144 115 -144q54 0 87 30.5t37 91.5v315h85z" />
    <glyph glyph-name="uni043A.loclBGR" horiz-adv-x="512" 
d="M391 0l-233 256v-256h-85v770h85v-474l229 209h106l-246 -229l247 -276h-103z" />
    <glyph glyph-name="uni043B.loclBGR" horiz-adv-x="467" 
d="M369 0l-133 419l-137 -419h-87l166 505h112l166 -505h-87z" />
    <glyph glyph-name="uni043F.loclBGR" horiz-adv-x="568" 
d="M307 518q192 0 192 -223v-295h-84v293q0 144 -125 144q-117 0 -132 -112v-325h-85v505h57l15 -55q55 68 162 68z" />
    <glyph glyph-name="uni0442.loclBGR" horiz-adv-x="831" 
d="M587 518q176 0 176 -223v-295h-85v297q0 69 -27 104.5t-77 35.5q-47 0 -77.5 -29.5t-35.5 -85.5v-322h-85v297q0 140 -105 140q-45 0 -75.5 -29t-37.5 -82v-326h-85v505h57l15 -52q50 65 139 65q110 0 151 -84q48 84 152 84z" />
    <glyph glyph-name="uni0444.loclBGR" horiz-adv-x="805" 
d="M547 505q99 0 151.5 -53t52.5 -159v-80q0 -213 -204 -213h-102v-230h-85v230h-102q-204 0 -204 213v80q0 106 52.5 159t151.5 53h102v200h85v-200h102zM360 81v343h-92q-66 0 -97.5 -33.5t-31.5 -103.5v-69q0 -70 31.5 -103.5t97.5 -33.5h92zM666 287q0 70 -31.5 103.5
t-97.5 33.5h-92v-343h92q66 0 97.5 33.5t31.5 103.5v69z" />
    <glyph glyph-name="uni0446.loclBGR" horiz-adv-x="565" 
d="M545 80v-215h-85v135h-45l-15 53q-51 -66 -152 -66q-185 0 -185 223v295h85v-293q0 -144 115 -144q52 0 84.5 28t39.5 84v325h85v-425h73z" />
    <glyph glyph-name="uni0448.loclBGR" horiz-adv-x="832" 
d="M758 505v-505h-57l-15 53q-50 -66 -139 -66q-110 0 -151 85q-48 -85 -152 -85q-176 0 -176 223v295h85v-296q0 -141 104 -141q47 0 77.5 30t35.5 86v321h85v-296q0 -69 27 -105t77 -36q46 0 76.5 29t37.5 83v325h85z" />
    <glyph glyph-name="uni0449.loclBGR" horiz-adv-x="846" 
d="M826 80v-215h-85v135h-45l-15 53q-49 -66 -139 -66q-110 0 -151 85q-48 -85 -152 -85q-176 0 -176 223v295h85v-296q0 -141 104 -141q47 0 77.5 30t35.5 86v321h85v-296q0 -69 27 -105t77 -36q46 0 76.5 29t37.5 83v325h85v-425h73z" />
    <glyph glyph-name="uni044C.loclBGR" horiz-adv-x="509" 
d="M307 327q79 0 122 -39.5t43 -113.5v-21q0 -74 -44 -113.5t-125 -39.5h-62q-81 0 -124.5 39.5t-43.5 113.5v352h85v-199q40 21 95 21h54zM387 167q0 80 -87 80h-60q-50 0 -82 -23v-64q0 -80 86 -80h57q86 0 86 80v7z" />
    <glyph glyph-name="uni044A.loclBGR" horiz-adv-x="544" 
d="M342 327q79 0 122 -39.5t43 -113.5v-21q0 -74 -43.5 -113.5t-125.5 -39.5h-62q-81 0 -124.5 39.5t-43.5 113.5v272h-95v80h180v-199q40 21 95 21h54zM422 167q0 80 -87 80h-60q-50 0 -82 -23v-64q0 -80 86 -80h57q86 0 86 80v7z" />
    <glyph glyph-name="uni044B.loclBGR" horiz-adv-x="696" 
d="M307 327q79 0 122 -39.5t43 -113.5v-21q0 -74 -44 -113.5t-125 -39.5h-62q-81 0 -124.5 39.5t-43.5 113.5v352h85v-199q40 21 95 21h54zM622 505v-505h-85v505h85zM387 167q0 80 -87 80h-60q-50 0 -82 -23v-64q0 -80 86 -80h57q86 0 86 80v7z" />
    <glyph glyph-name="uni04C6.loclBGR" horiz-adv-x="551" 
d="M504 -135h-85l17 135h-68l-133 419l-137 -419h-87l166 505h112l140 -425h102z" />
    <glyph glyph-name="uni0493.loclBSH" horiz-adv-x="420" 
d="M158 425v-148h162v-73h-162v-204h-85v505h327v-80h-242z" />
    <glyph glyph-name="uni04AB.loclCHU" horiz-adv-x="528" 
d="M389 310v12q0 57 -31.5 86t-91.5 29q-127 0 -127 -133v-102q0 -67 31 -100t96 -33q59 0 91 29.5t32 85.5v12h85v-10q0 -84 -46.5 -136t-130.5 -60l-31 -145h-92l48 146q-81 12 -124.5 65.5t-43.5 140.5v112q0 99 55 154t157 55q97 0 152.5 -53t55.5 -145v-10h-85z" />
    <glyph glyph-name="uni0431.loclMKD" horiz-adv-x="539" 
d="M272 518q43 0 78.5 -10.5t67 -33t49.5 -65t18 -100.5v-112q0 -99 -55 -154t-160 -55t-160.5 55t-55.5 154v112q0 118 78 169q-58 42 -58 130q0 76 43 119t118 43h202v-81h-192q-86 0 -86 -84q0 -28 9.5 -46.5t27.5 -27t35 -11t41 -2.5zM400 304q0 67 -31.5 100t-98.5 33
q-68 0 -99.5 -33t-31.5 -100v-103q0 -67 31.5 -100t98.5 -33q68 0 99.5 33t31.5 100v103z" />
    <glyph glyph-name="uni0431.loclSRB" horiz-adv-x="539" 
d="M272 518q43 0 78.5 -10.5t67 -33t49.5 -65t18 -100.5v-112q0 -99 -55 -154t-160 -55t-160.5 55t-55.5 154v112q0 118 78 169q-58 42 -58 130q0 76 43 119t118 43h202v-81h-192q-86 0 -86 -84q0 -28 9.5 -46.5t27.5 -27t35 -11t41 -2.5zM400 304q0 67 -31.5 100t-98.5 33
q-68 0 -99.5 -33t-31.5 -100v-103q0 -67 31.5 -100t98.5 -33q68 0 99.5 33t31.5 100v103z" />
    <glyph glyph-name="zero.subs" 
d="M163 -87q-60 0 -95.5 30.5t-35.5 82.5v142q0 52 35.5 83t95.5 31t95.5 -31t35.5 -83v-142q0 -52 -35.5 -82.5t-95.5 -30.5zM163 -26q32 0 49 14.5t17 40.5v136q0 26 -17 40.5t-49 14.5t-49 -14.5t-17 -40.5v-136q0 -55 66 -55z" />
    <glyph glyph-name="one.subs" 
d="M260 -19v-61h-196v61h65v232h-65v62h130v-294h66z" />
    <glyph glyph-name="two.subs" 
d="M286 165q0 -30 -18 -55t-44 -41.5t-52.5 -31t-44.5 -28.5t-18 -28h174v-61h-245v61q0 31 28.5 58.5t63 44.5t63 39.5t28.5 45.5v12q0 18 -15 28.5t-41 10.5q-57 0 -57 -52v-14h-65v12q0 53 33.5 84.5t90.5 31.5q53 0 86 -27.5t33 -72.5v-17z" />
    <glyph glyph-name="three.subs" 
d="M287 160q0 -36 -27 -60q27 -25 27 -61v-25q0 -46 -34.5 -73.5t-89.5 -27.5q-56 0 -90.5 28.5t-34.5 76.5v15h66v-18q0 -41 61 -41q57 0 57 38v25q0 33 -50 33h-59v59h59q49 0 49 32v22q0 37 -56 37q-61 0 -61 -41v-18h-66v15q0 48 34.5 77t90.5 29q54 0 89 -27.5
t35 -73.5v-21z" />
    <glyph glyph-name="four.subs" 
d="M278 146v-226h-65v76h-167v61l97 218h71l-97 -218h96v89h65z" />
    <glyph glyph-name="five.subs" 
d="M181 143q46 0 73 -26.5t27 -71.5v-29q0 -47 -32.5 -75t-85.5 -28q-54 0 -86.5 28t-32.5 75v27h65v-32q0 -38 53 -38q54 0 54 38v38q0 35 -35 35h-127v191h214v-62h-149v-70h62z" />
    <glyph glyph-name="six.subs" 
d="M175 148q49 0 80.5 -25.5t31.5 -70.5v-36q0 -47 -34.5 -75t-89.5 -28q-56 0 -90.5 30t-34.5 80v145q0 52 35 83t90 31q53 0 87.5 -29t34.5 -77h-64q0 22 -16 34t-42 12q-60 0 -60 -54v-40q31 20 72 20zM222 53q0 18 -15.5 28.5t-42.5 10.5q-58 0 -61 -39v-34
q0 -46 60 -46q59 0 59 45v35z" />
    <glyph glyph-name="seven.subs" 
d="M300 275v-62l-145 -293h-72l145 293h-160v62h232z" />
    <glyph glyph-name="eight.subs" 
d="M256 100q35 -24 35 -65v-31q0 -41 -35.5 -66t-92.5 -25q-58 0 -93 25t-35 66v31q0 40 34 65q-31 23 -31 62v25q0 43 34.5 69t90.5 26t90 -26t34 -69v-25q0 -39 -31 -62zM103 162q0 -37 60 -37q59 0 59 37v22q0 40 -59 40q-60 0 -60 -40v-22zM225 35q0 39 -62 39
q-63 0 -63 -39v-28q0 -37 63 -37q62 0 62 37v28z" />
    <glyph glyph-name="nine.subs" 
d="M162 282q56 0 90.5 -30t34.5 -80v-145q0 -52 -35 -83t-90 -31q-53 0 -87.5 28.5t-34.5 76.5h65q0 -22 15.5 -33.5t41.5 -11.5q60 0 60 54v36q-31 -20 -72 -20q-48 0 -80 26t-32 70v39q0 47 34.5 75.5t89.5 28.5zM162 100q58 0 60 39v37q0 46 -60 46q-59 0 -59 -45v-39
q0 -18 16 -28t43 -10z" />
    <glyph glyph-name="zero.dnom" horiz-adv-x="325" 
d="M163 -7q-60 0 -95.5 30.5t-35.5 82.5v142q0 52 35.5 83t95.5 31t95.5 -31t35.5 -83v-142q0 -52 -35.5 -82.5t-95.5 -30.5zM163 54q32 0 49 14.5t17 40.5v136q0 26 -17 40.5t-49 14.5t-49 -14.5t-17 -40.5v-136q0 -55 66 -55z" />
    <glyph glyph-name="one.dnom" horiz-adv-x="325" 
d="M260 61v-61h-196v61h65v232h-65v62h130v-294h66z" />
    <glyph glyph-name="two.dnom" horiz-adv-x="325" 
d="M286 245q0 -30 -18 -55t-44 -41.5t-52.5 -31t-44.5 -28.5t-18 -28h174v-61h-245v61q0 31 28.5 58.5t63 44.5t63 39.5t28.5 45.5v12q0 18 -15 28.5t-41 10.5q-57 0 -57 -52v-14h-65v12q0 53 33.5 84.5t90.5 31.5q53 0 86 -27.5t33 -72.5v-17z" />
    <glyph glyph-name="three.dnom" horiz-adv-x="325" 
d="M287 240q0 -36 -27 -60q27 -25 27 -61v-25q0 -46 -34.5 -73.5t-89.5 -27.5q-56 0 -90.5 28.5t-34.5 76.5v15h66v-18q0 -41 61 -41q57 0 57 38v25q0 33 -50 33h-59v59h59q49 0 49 32v22q0 37 -56 37q-61 0 -61 -41v-18h-66v15q0 48 34.5 77t90.5 29q54 0 89 -27.5
t35 -73.5v-21z" />
    <glyph glyph-name="four.dnom" horiz-adv-x="325" 
d="M278 226v-226h-65v76h-167v61l97 218h71l-97 -218h96v89h65z" />
    <glyph glyph-name="five.dnom" horiz-adv-x="325" 
d="M181 223q46 0 73 -26.5t27 -71.5v-29q0 -47 -32.5 -75t-85.5 -28q-54 0 -86.5 28t-32.5 75v27h65v-32q0 -38 53 -38q54 0 54 38v38q0 35 -35 35h-127v191h214v-62h-149v-70h62z" />
    <glyph glyph-name="six.dnom" horiz-adv-x="325" 
d="M175 228q49 0 80.5 -25.5t31.5 -70.5v-36q0 -47 -34.5 -75t-89.5 -28q-56 0 -90.5 30t-34.5 80v145q0 52 35 83t90 31q53 0 87.5 -29t34.5 -77h-64q0 22 -16 34t-42 12q-60 0 -60 -54v-40q31 20 72 20zM222 133q0 18 -15.5 28.5t-42.5 10.5q-58 0 -61 -39v-34
q0 -46 60 -46q59 0 59 45v35z" />
    <glyph glyph-name="seven.dnom" horiz-adv-x="325" 
d="M300 355v-62l-145 -293h-72l145 293h-160v62h232z" />
    <glyph glyph-name="eight.dnom" horiz-adv-x="325" 
d="M256 180q35 -24 35 -65v-31q0 -41 -35.5 -66t-92.5 -25q-58 0 -93 25t-35 66v31q0 40 34 65q-31 23 -31 62v25q0 43 34.5 69t90.5 26t90 -26t34 -69v-25q0 -39 -31 -62zM103 242q0 -37 60 -37q59 0 59 37v22q0 40 -59 40q-60 0 -60 -40v-22zM225 115q0 39 -62 39
q-63 0 -63 -39v-28q0 -37 63 -37q62 0 62 37v28z" />
    <glyph glyph-name="nine.dnom" horiz-adv-x="325" 
d="M162 362q56 0 90.5 -30t34.5 -80v-145q0 -52 -35 -83t-90 -31q-53 0 -87.5 28.5t-34.5 76.5h65q0 -22 15.5 -33.5t41.5 -11.5q60 0 60 54v36q-31 -20 -72 -20q-48 0 -80 26t-32 70v39q0 47 34.5 75.5t89.5 28.5zM162 180q58 0 60 39v37q0 46 -60 46q-59 0 -59 -45v-39
q0 -18 16 -28t43 -10z" />
    <glyph glyph-name="zero.numr" 
d="M163 345q-60 0 -95.5 30.5t-35.5 82.5v142q0 52 35.5 83t95.5 31t95.5 -31t35.5 -83v-142q0 -52 -35.5 -82.5t-95.5 -30.5zM163 406q32 0 49 14.5t17 40.5v136q0 26 -17 40.5t-49 14.5t-49 -14.5t-17 -40.5v-136q0 -55 66 -55z" />
    <glyph glyph-name="one.numr" 
d="M260 413v-61h-196v61h65v232h-65v62h130v-294h66z" />
    <glyph glyph-name="two.numr" 
d="M286 597q0 -30 -18 -55t-44 -41.5t-52.5 -31t-44.5 -28.5t-18 -28h174v-61h-245v61q0 31 28.5 58.5t63 44.5t63 39.5t28.5 45.5v12q0 18 -15 28.5t-41 10.5q-57 0 -57 -52v-14h-65v12q0 53 33.5 84.5t90.5 31.5q53 0 86 -27.5t33 -72.5v-17z" />
    <glyph glyph-name="three.numr" 
d="M287 592q0 -36 -27 -60q27 -25 27 -61v-25q0 -46 -34.5 -73.5t-89.5 -27.5q-56 0 -90.5 28.5t-34.5 76.5v15h66v-18q0 -41 61 -41q57 0 57 38v25q0 33 -50 33h-59v59h59q49 0 49 32v22q0 37 -56 37q-61 0 -61 -41v-18h-66v15q0 48 34.5 77t90.5 29q54 0 89 -27.5
t35 -73.5v-21z" />
    <glyph glyph-name="four.numr" 
d="M278 578v-226h-65v76h-167v61l97 218h71l-97 -218h96v89h65z" />
    <glyph glyph-name="five.numr" 
d="M181 575q46 0 73 -26.5t27 -71.5v-29q0 -47 -32.5 -75t-85.5 -28q-54 0 -86.5 28t-32.5 75v27h65v-32q0 -38 53 -38q54 0 54 38v38q0 35 -35 35h-127v191h214v-62h-149v-70h62z" />
    <glyph glyph-name="six.numr" 
d="M175 580q49 0 80.5 -25.5t31.5 -70.5v-36q0 -47 -34.5 -75t-89.5 -28q-56 0 -90.5 30t-34.5 80v145q0 52 35 83t90 31q53 0 87.5 -29t34.5 -77h-64q0 22 -16 34t-42 12q-60 0 -60 -54v-40q31 20 72 20zM222 485q0 18 -15.5 28.5t-42.5 10.5q-58 0 -61 -39v-34
q0 -46 60 -46q59 0 59 45v35z" />
    <glyph glyph-name="seven.numr" 
d="M300 707v-62l-145 -293h-72l145 293h-160v62h232z" />
    <glyph glyph-name="eight.numr" 
d="M256 532q35 -24 35 -65v-31q0 -41 -35.5 -66t-92.5 -25q-58 0 -93 25t-35 66v31q0 40 34 65q-31 23 -31 62v25q0 43 34.5 69t90.5 26t90 -26t34 -69v-25q0 -39 -31 -62zM103 594q0 -37 60 -37q59 0 59 37v22q0 40 -59 40q-60 0 -60 -40v-22zM225 467q0 39 -62 39
q-63 0 -63 -39v-28q0 -37 63 -37q62 0 62 37v28z" />
    <glyph glyph-name="nine.numr" 
d="M162 714q56 0 90.5 -30t34.5 -80v-145q0 -52 -35 -83t-90 -31q-53 0 -87.5 28.5t-34.5 76.5h65q0 -22 15.5 -33.5t41.5 -11.5q60 0 60 54v36q-31 -20 -72 -20q-48 0 -80 26t-32 70v39q0 47 34.5 75.5t89.5 28.5zM162 532q58 0 60 39v37q0 46 -60 46q-59 0 -59 -45v-39
q0 -18 16 -28t43 -10z" />
    <glyph glyph-name="zero.sups" 
d="M163 405q-60 0 -95.5 30.5t-35.5 82.5v142q0 52 35.5 83t95.5 31t95.5 -31t35.5 -83v-142q0 -52 -35.5 -82.5t-95.5 -30.5zM163 466q32 0 49 14.5t17 40.5v136q0 26 -17 40.5t-49 14.5t-49 -14.5t-17 -40.5v-136q0 -55 66 -55z" />
    <glyph glyph-name="one.sups" 
d="M260 473v-61h-196v61h65v232h-65v62h130v-294h66z" />
    <glyph glyph-name="two.sups" 
d="M286 657q0 -30 -18 -55t-44 -41.5t-52.5 -31t-44.5 -28.5t-18 -28h174v-61h-245v61q0 31 28.5 58.5t63 44.5t63 39.5t28.5 45.5v12q0 18 -15 28.5t-41 10.5q-57 0 -57 -52v-14h-65v12q0 53 33.5 84.5t90.5 31.5q53 0 86 -27.5t33 -72.5v-17z" />
    <glyph glyph-name="three.sups" 
d="M287 652q0 -36 -27 -60q27 -25 27 -61v-25q0 -46 -34.5 -73.5t-89.5 -27.5q-56 0 -90.5 28.5t-34.5 76.5v15h66v-18q0 -41 61 -41q57 0 57 38v25q0 33 -50 33h-59v59h59q49 0 49 32v22q0 37 -56 37q-61 0 -61 -41v-18h-66v15q0 48 34.5 77t90.5 29q54 0 89 -27.5
t35 -73.5v-21z" />
    <glyph glyph-name="four.sups" 
d="M278 638v-226h-65v76h-167v61l97 218h71l-97 -218h96v89h65z" />
    <glyph glyph-name="five.sups" 
d="M181 635q46 0 73 -26.5t27 -71.5v-29q0 -47 -32.5 -75t-85.5 -28q-54 0 -86.5 28t-32.5 75v27h65v-32q0 -38 53 -38q54 0 54 38v38q0 35 -35 35h-127v191h214v-62h-149v-70h62z" />
    <glyph glyph-name="six.sups" 
d="M175 640q49 0 80.5 -25.5t31.5 -70.5v-36q0 -47 -34.5 -75t-89.5 -28q-56 0 -90.5 30t-34.5 80v145q0 52 35 83t90 31q53 0 87.5 -29t34.5 -77h-64q0 22 -16 34t-42 12q-60 0 -60 -54v-40q31 20 72 20zM222 545q0 18 -15.5 28.5t-42.5 10.5q-58 0 -61 -39v-34
q0 -46 60 -46q59 0 59 45v35z" />
    <glyph glyph-name="seven.sups" 
d="M300 767v-62l-145 -293h-72l145 293h-160v62h232z" />
    <glyph glyph-name="eight.sups" 
d="M256 592q35 -24 35 -65v-31q0 -41 -35.5 -66t-92.5 -25q-58 0 -93 25t-35 66v31q0 40 34 65q-31 23 -31 62v25q0 43 34.5 69t90.5 26t90 -26t34 -69v-25q0 -39 -31 -62zM103 654q0 -37 60 -37q59 0 59 37v22q0 40 -59 40q-60 0 -60 -40v-22zM225 527q0 39 -62 39
q-63 0 -63 -39v-28q0 -37 63 -37q62 0 62 37v28z" />
    <glyph glyph-name="nine.sups" 
d="M162 774q56 0 90.5 -30t34.5 -80v-145q0 -52 -35 -83t-90 -31q-53 0 -87.5 28.5t-34.5 76.5h65q0 -22 15.5 -33.5t41.5 -11.5q60 0 60 54v36q-31 -20 -72 -20q-48 0 -80 26t-32 70v39q0 47 34.5 75.5t89.5 28.5zM162 592q58 0 60 39v37q0 46 -60 46q-59 0 -59 -45v-39
q0 -18 16 -28t43 -10z" />
    <glyph glyph-name="exclamdown.case" horiz-adv-x="269" 
d="M180 599h-91v106h91v-106zM91 222l11 275h66l11 -274v-223h-88v222z" />
    <glyph glyph-name="questiondown.case" horiz-adv-x="637" 
d="M382 599h-90v106h90v-106zM380 473q0 -54 -23.5 -89.5t-57.5 -53.5t-68 -34.5t-57.5 -43t-23.5 -66.5q0 -115 165 -115q180 0 180 149v24h85v-28q0 -107 -67 -168t-194 -61t-192 53.5t-65 147.5q0 59 24 97.5t58 57.5t68 35t58 42.5t24 66.5v10h86v-24z" />
    <glyph glyph-name="braceleft.case" horiz-adv-x="307" 
d="M183 477q0 -86 -61 -124q61 -39 61 -125v-214q0 -48 45 -48h67v-81h-70q-59 0 -93 36t-34 99v214q0 35 -19.5 56.5t-50.5 21.5h-13v82h13q31 0 50.5 21t19.5 56v214q0 63 34 99t93 36h70v-81h-67q-45 0 -45 -48v-214z" />
    <glyph glyph-name="braceright.case" horiz-adv-x="307" 
d="M292 394v-82h-13q-31 0 -51 -21.5t-20 -56.5v-214q0 -63 -33.5 -99t-92.5 -36h-71v81h68q45 0 45 48v214q0 86 61 125q-61 38 -61 124v214q0 48 -45 48h-68v81h71q59 0 92.5 -36t33.5 -99v-214q0 -35 20 -56t51 -21h13z" />
    <glyph glyph-name="bracketleft.case" horiz-adv-x="301" 
d="M161 739v-773h122v-81h-207v935h207v-81h-122z" />
    <glyph glyph-name="bracketright.case" horiz-adv-x="301" 
d="M225 -113h-207v81h122v773h-122v81h207v-935z" />
    <glyph glyph-name="parenleft.case" horiz-adv-x="295" 
d="M283 -115q-103 0 -159 55t-56 160v505q0 106 55.5 160.5t159.5 54.5v-81q-67 0 -99 -33.5t-32 -105.5v-495q0 -72 31.5 -105.5t99.5 -33.5v-81z" />
    <glyph glyph-name="parenright.case" horiz-adv-x="296" 
d="M12 -34q68 0 100 33.5t32 105.5v495q0 72 -32 105.5t-100 33.5v81q104 0 160 -55t56 -160v-505q0 -105 -56 -160t-160 -55v81z" />
    <glyph glyph-name="emdash.case" horiz-adv-x="617" 
d="M53 363h510v-76h-510v76z" />
    <glyph glyph-name="endash.case" horiz-adv-x="442" 
d="M53 363h336v-76h-336v76z" />
    <glyph glyph-name="hyphen.case" horiz-adv-x="341" 
d="M53 365h235v-77h-235v77z" />
    <glyph glyph-name="uni00AD.case" horiz-adv-x="341" 
d="M53 365h235v-77h-235v77z" />
    <glyph glyph-name="guillemotleft.case" horiz-adv-x="589" 
d="M127 337l168 -132v-91l-226 177v91l226 178v-92zM518 468l-168 -131l168 -132v-91l-226 177v91l226 178v-92z" />
    <glyph glyph-name="guillemotright.case" horiz-adv-x="589" 
d="M297 291l-226 -177v91l168 132l-168 131v92l226 -178v-91zM520 382v-91l-226 -177v91l168 132l-168 131v92z" />
    <glyph glyph-name="guilsinglleft.case" horiz-adv-x="366" 
d="M295 468l-168 -131l168 -132v-91l-226 177v91l226 178v-92z" />
    <glyph glyph-name="guilsinglright.case" horiz-adv-x="366" 
d="M297 382v-91l-226 -177v91l168 132l-168 131v92z" />
    <glyph glyph-name="uni030C.calt" horiz-adv-x="0" 
d="M-140 526h-77l33 187h82z" />
    <glyph glyph-name="uni0308.case" horiz-adv-x="0" 
d="M-304 681h84v-97h-84v97zM-109 681h84v-97h-84v97z" />
    <glyph glyph-name="uni0307.case" horiz-adv-x="0" 
d="M-124 688h90v-104h-90v104z" />
    <glyph glyph-name="gravecomb.case" horiz-adv-x="0" 
d="M-145 702l115 -140h-91l-131 140h107z" />
    <glyph glyph-name="acutecomb.case" horiz-adv-x="0" 
d="M-163 562h-91l115 140h107z" />
    <glyph glyph-name="uni030B.case" horiz-adv-x="0" 
d="M-331 562h-77l86 118h82zM-146 562h-77l86 118h82z" />
    <glyph glyph-name="uni0302.case" horiz-adv-x="0" 
d="M-119 560l-72 73l-72 -73h-97l126 125h87l125 -125h-97z" />
    <glyph glyph-name="uni030C.case" horiz-adv-x="0" 
d="M-28 687l-126 -125h-87l-125 125h97l72 -73l72 73h97z" />
    <glyph glyph-name="uni0306.case" horiz-adv-x="0" 
d="M-181 556q-62 0 -103 36.5t-41 95.5h56q0 -35 24.5 -55.5t63.5 -20.5t64 20.5t25 55.5h56q0 -59 -41 -95.5t-104 -36.5z" />
    <glyph glyph-name="uni030A.case" horiz-adv-x="0" 
d="M-153 776q50 0 82.5 -30.5t32.5 -79.5t-32.5 -79.5t-82.5 -30.5q-51 0 -83 30.5t-32 79.5t32 79.5t83 30.5zM-153 720q-28 0 -44 -14.5t-16 -39.5t16 -39.5t44 -14.5t44 14.5t16 39.5t-16 39.5t-44 14.5z" />
    <glyph glyph-name="tildecomb.case" horiz-adv-x="0" 
d="M-25 703q0 -131 -90 -131q-36 0 -80 32.5t-64 32.5q-42 0 -42 -65h-64q0 131 90 131q35 0 80 -32t65 -32q41 0 41 64h64z" />
    <glyph glyph-name="uni0304.case" horiz-adv-x="0" 
d="M-34 601h-328v74h328v-74z" />
    <glyph glyph-name="uni0327.case" horiz-adv-x="0" 
d="M-141 20h73l-38 -175h-92z" />
    <glyph glyph-name="uni0328.case" horiz-adv-x="0" 
d="M-25 -202q-23 -6 -53 -6q-56 0 -84.5 20t-28.5 68q0 82 123 145l49 -25q-85 -50 -85 -103q0 -41 48 -41q14 0 31 3v-61z" />
    <glyph glyph-name="uni0338.case" horiz-adv-x="0" 
d="M-35 751l-403 -809l-70 38l402 809z" />
    <glyph glyph-name="brevecombcy" horiz-adv-x="0" 
d="M-183 556q-62 0 -103 36.5t-41 95.5h56q0 -35 24.5 -55.5t63.5 -20.5t64 20.5t25 55.5h56q0 -59 -41 -95.5t-104 -36.5z" />
    <glyph glyph-name="__periodcentered" horiz-adv-x="67" 
d="M38 408h85v-125h-85v125z" />
    <glyph glyph-name="__caroncomb.calt" horiz-adv-x="54" 
d="M121 583h-77l33 187h82z" />
    <glyph glyph-name="Mars" horiz-adv-x="618" 
d="M309 -10q-121 0 -200 78t-79 201t79 201t200 78t200 -78t79 -201t-79 -201t-200 -78zM309 21q107 0 174.5 69.5t67.5 178.5t-67.5 178.5t-174.5 69.5t-174.5 -69.5t-67.5 -178.5t67.5 -178.5t174.5 -69.5zM392 339q-28 0 -47 18.5t-19 47.5t19 47.5t47 18.5t47 -18.5
t19 -47.5t-19 -47.5t-47 -18.5zM392 362q19 0 31 12t12 31t-12 31t-31 12t-31 -12t-12 -31t12 -31t31 -12zM204 218q-44 0 -72.5 27t-28.5 68t28.5 67.5t72.5 26.5q45 0 74 -26.5t29 -67.5t-29 -68t-74 -27zM204 241q35 0 57.5 20.5t22.5 51.5t-22.5 51t-57.5 20
q-34 0 -56 -20t-22 -51t22 -51.5t56 -20.5zM427 81q-28 0 -46.5 19.5t-18.5 48.5t18.5 48.5t46.5 19.5t46.5 -19.5t18.5 -48.5t-18.5 -48.5t-46.5 -19.5zM427 104q18 0 30 13t12 32t-12 32t-30 13t-30 -13t-12 -32t12 -32t30 -13zM226 84q-20 0 -33.5 13.5t-13.5 33.5
t13.5 33t33.5 13t33.5 -13t13.5 -33t-13.5 -33.5t-33.5 -13.5zM226 107q10 0 17 6.5t7 17.5q0 10 -7 16.5t-17 6.5t-17 -6.5t-7 -16.5q0 -11 7 -17.5t17 -6.5z" />
    <glyph glyph-name="Neptune" horiz-adv-x="618" 
d="M309 548q121 0 200 -78t79 -201t-79 -201t-200 -78t-200 78t-79 201t79 201t200 78zM515 406q-31 52 -84.5 81.5t-121.5 29.5q-103 0 -171 -66q16 -3 50 1t49 4q71 0 120 -69q32 -45 66 -45q43 0 92 64zM118 429q-35 -45 -47 -108q27 -10 79.5 -35.5t95 -40.5t79.5 -15
q52 0 131 39.5t92 42.5q-6 39 -21 72q-57 -65 -106 -65q-44 0 -83 54q-23 31 -44.5 44.5t-55.5 13.5q-14 0 -39 -3t-39 -3.5t-42 4.5zM551 269q0 14 -1 21q-16 -5 -54.5 -27t-82.5 -39t-87 -17q-41 0 -84 14t-98.5 41t-75.5 35q-1 -9 -1 -28q0 -33 6 -61q39 -7 82.5 -23
t58.5 -28q2 -2 17 -16t28 -25.5t34 -21.5t39 -10q30 0 67.5 28t73.5 56t62 28h7q9 33 9 73zM309 21q80 0 140 41t86 111h-2q-20 0 -54.5 -28t-74 -56t-74.5 -28q-14 0 -30 5t-28 12t-25.5 17t-20.5 17t-16.5 16t-10.5 10q-24 23 -119 45q23 -75 84.5 -118.5t144.5 -43.5z
" />
    <glyph glyph-name="Saturn" horiz-adv-x="876" 
d="M846 421q0 -98 -141 -215q-20 -98 -94.5 -157t-178.5 -59q-72 0 -127 27q-51 -10 -100 -10q-77 0 -126 28.5t-49 85.5q0 45 34 98.5t94 104.5q17 101 92 162.5t182 61.5q65 0 123 -25q62 12 115 12q78 0 127 -28.5t49 -85.5zM432 517q-100 0 -166.5 -61.5t-74.5 -160.5
q91 16 185 61q115 54 185 128q-58 33 -129 33zM516 112q135 66 221 153.5t86 154.5q0 48 -43 70.5t-108 22.5q-36 0 -84 -8l4 -2q9 1 27 1q65 0 104 -24t39 -72q0 -62 -74 -137t-188 -130q-140 -67 -258 -67q-63 0 -104.5 23t-41.5 71q0 55 58 121v2q-102 -96 -102 -169
q0 -47 42 -70t108 -23q142 0 314 83zM706 326q33 46 33 81q0 38 -33.5 57t-86.5 19h-1q72 -61 88 -157zM190 269q0 -31 6 -60q104 8 227 65q133 64 204 150q-24 30 -48 47q-70 -77 -193 -136q-102 -48 -196 -62v-4zM252 95q110 5 238 66q113 54 184 127q-4 65 -35 117
q-74 -89 -206 -151q-126 -60 -232 -66q17 -54 51 -93zM153 255q-36 -49 -36 -86q0 -61 89 -72q-49 67 -53 158zM432 21q79 0 138.5 40t86.5 108q-64 -46 -131 -78q-79 -39 -165 -61q33 -9 71 -9z" />
    <glyph glyph-name="Venus" horiz-adv-x="618" 
d="M309 548q121 0 200 -78t79 -201t-79 -201t-200 -78t-200 78t-79 201t79 201t200 78zM309 21q78 0 137 38.5t86 105.5l-150 -57l-8 22l167 63q10 34 10 76q0 65 -27 121l-263 -99l-7 22l259 97q-32 51 -85 79t-119 28q-77 0 -135.5 -38t-86.5 -103l244 91l8 -21l-262 -99
q-10 -40 -10 -78q0 -73 33 -133l272 102l8 -21l-267 -101q69 -95 196 -95z" />
    <glyph glyph-name="Uranus" horiz-adv-x="842" 
d="M812 390q0 -83 -118 -156q-11 -109 -88.5 -176.5t-188.5 -67.5q-142 0 -221 101q-9 -1 -27 -1q-139 0 -139 68q0 57 107 129q7 115 85.5 188t194.5 73q131 0 211 -90q47 3 88 2t68.5 -18.5t27.5 -51.5zM417 517q-107 0 -175 -69.5t-68 -178.5q0 -88 46 -153
q104 9 227 42.5t211 82.5q1 9 1 28q0 109 -67.5 178.5t-174.5 69.5zM696 265q92 61 92 127q0 56 -142 43q50 -70 50 -166v-4zM179 114q-39 62 -42 143q-82 -58 -82 -97q0 -46 111 -46h13zM417 20q91 0 155 52t81 139q-87 -45 -200 -76.5t-214 -40.5q68 -74 178 -74z" />
    <glyph glyph-name="Sun" horiz-adv-x="618" 
d="M309 548q121 0 200 -78t79 -201t-79 -201t-200 -78t-200 78t-79 201t79 201t200 78zM309 21q107 0 174.5 69.5t67.5 178.5t-67.5 178.5t-174.5 69.5t-174.5 -69.5t-67.5 -178.5t67.5 -178.5t174.5 -69.5zM310 104q70 0 115.5 46.5t45.5 118.5t-45.5 118.5t-115.5 46.5
q-71 0 -116.5 -46.5t-45.5 -118.5t45.5 -118.5t116.5 -46.5z" />
    <glyph glyph-name="Jupiter" horiz-adv-x="618" 
d="M309 548q121 0 200 -78t79 -201t-79 -201t-200 -78t-200 78t-79 201t79 201t200 78zM309 517q-83 0 -144 -43.5t-85 -116.5h161v-23h-167q-5 -21 -7 -51h484q-5 78 -43 135h-228v23h210q-68 76 -181 76zM309 21q86 0 148 46t84 124h-104v23h109q3 15 5 46h-484
q3 -106 70.5 -172.5t171.5 -66.5zM234 190q29 0 47.5 -15t18.5 -37t-18.5 -36.5t-47.5 -14.5t-48 14.5t-19 36.5q0 23 19 37.5t48 14.5zM234 112q14 0 23.5 7.5t9.5 18.5t-9.5 18.5t-23.5 7.5t-23.5 -7.5t-9.5 -18.5t9.5 -18.5t23.5 -7.5z" />
    <glyph glyph-name="Earth" horiz-adv-x="618" 
d="M309 548q121 0 200 -78t79 -201t-79 -201t-200 -78t-200 78t-79 201t79 201t200 78zM309 21q106 0 173 68t69 175q0 47 -34 47q-15 0 -36 -7.5t-36 -7.5q-11 0 -22.5 2t-22.5 4.5t-15 3.5q-15 -4 -15 -11q0 -12 21 -14q12 -2 18.5 -4.5t13.5 -13.5t7 -29q0 -50 -31.5 -97
t-82.5 -49q-33 9 -52.5 38t-19.5 71q0 12 -1 19.5t-5 15.5t-13 11.5t-24 2.5q-25 -4 -43.5 15t-18.5 47q0 17 7 31q7 15 62 15.5t105.5 2.5t50.5 21q0 17 -24 31t-47 14q-21 0 -34 -11t-22 -22t-21 -11q-11 0 -22 6.5t-11 12.5t17.5 12t17.5 10t-10.5 10.5t-10.5 8.5t34 9
t34 27q0 5 -0.5 12t-0.5 9.5t1 6.5t4 6.5t9 6.5q-95 -11 -153 -78.5t-58 -168.5q0 -75 33 -133q7 11 10 11q10 0 25 -23q14 -19 22 -19q3 0 10.5 2t13 2.5t17.5 -2.5q14 -3 23.5 -17.5t9.5 -31.5q0 -13 -8 -24q38 -13 86 -13z" />
    <glyph glyph-name="Mercury" horiz-adv-x="618" 
d="M309 548q121 0 200 -78t79 -201t-79 -201t-200 -78t-200 78t-79 201t79 201t200 78zM443 58q51 32 79.5 86.5t28.5 124.5q0 109 -67.5 178.5t-174.5 69.5q-128 0 -195 -94q23 -8 23 -33q0 -16 -10 -26t-26 -10q-11 0 -20 6q-14 -44 -14 -91q0 -109 67.5 -178.5
t174.5 -69.5q48 0 90 15q-28 7 -28 37q0 16 10.5 26.5t26.5 10.5t27 -10.5t11 -26.5q0 -9 -3 -15zM248 490q23 0 38.5 -15.5t15.5 -38.5t-15.5 -38.5t-38.5 -15.5t-38.5 15.5t-15.5 38.5t15.5 38.5t38.5 15.5zM248 405q14 0 22.5 8.5t8.5 22.5t-8.5 22.5t-22.5 8.5
t-22.5 -8.5t-8.5 -22.5t8.5 -22.5t22.5 -8.5zM370 462q16 0 27 -11t11 -27q0 -17 -11 -28.5t-27 -11.5q-17 0 -28 11.5t-11 28.5t11 27.5t28 10.5zM370 407q15 0 15 17q0 15 -15 15q-16 0 -16 -15q0 -17 16 -17zM100 402l-9 -19q3 -6 10 -6q13 0 13 13q0 12 -13 12h-1z
M473 305q-20 0 -33 13t-13 33t13 32.5t33 12.5q19 0 32 -13t13 -32q0 -20 -12.5 -33t-32.5 -13zM473 373q-22 0 -22 -22q0 -10 6 -16.5t16 -6.5t16 6.5t6 16.5q0 22 -22 22zM234 259q-20 0 -33.5 13t-13.5 33t13.5 33t33.5 13t33 -13t13 -33t-13 -33t-33 -13zM234 328
q-10 0 -16.5 -6.5t-6.5 -16.5t6.5 -16.5t16.5 -6.5t16.5 6.5t6.5 16.5t-6.5 16.5t-16.5 6.5zM347 269q20 0 33.5 -13t13.5 -33t-13.5 -33t-33.5 -13t-32.5 13t-12.5 33t12.5 33t32.5 13zM136 257q17 0 28.5 -11.5t11.5 -28.5t-11.5 -28.5t-28.5 -11.5t-28.5 11.5t-11.5 28.5
t11.5 28.5t28.5 11.5zM347 201q11 0 17.5 6t6.5 16t-7 16.5t-17 6.5t-16 -6.5t-6 -16.5q0 -22 22 -22zM136 201q17 0 17 16q0 17 -17 17t-17 -17q0 -16 17 -16zM474 234q16 0 26.5 -10.5t10.5 -26.5t-10.5 -26.5t-26.5 -10.5t-26.5 10.5t-10.5 26.5t10.5 26.5t26.5 10.5z
M474 183q14 0 14 14t-14 14t-14 -14t14 -14zM236 161q20 0 33.5 -13.5t13.5 -33.5t-13.5 -33.5t-33.5 -13.5t-33.5 13.5t-13.5 33.5t13.5 33.5t33.5 13.5zM236 90q10 0 17 7t7 17t-7 16.5t-17 6.5t-17 -6.5t-7 -16.5t7 -17t17 -7zM408 58q15 0 15 15q0 14 -15 14
q-14 0 -14 -14q0 -15 14 -15z" />
    <glyph glyph-name="Point" horiz-adv-x="459" 
d="M375 409q24 0 39 -16t15 -41v-162q0 -81 -59 -140.5t-141 -59.5q-83 0 -141 59.5t-58 142.5v175q0 28 15.5 42.5t40.5 14.5q9 0 23 -4q9 40 55 40q14 0 22 -4q8 44 55 44q13 0 22 -4v20q0 27 15.5 42t40.5 15q24 0 39 -16t15 -41v-107h2zM397 352q0 25 -22 25
q-25 0 -25 -25v-114q0 -28 -16 -47t-42 -19h-18q-27 0 -27 -35h-33q0 28 17 48t43 20h18q25 0 25 34v113q0 33 24 48h-1v116q0 24 -21 24q-24 0 -24 -24v-160q0 -27 -15 -42t-39 -15q-13 0 -25 5q-8 -44 -52 -44q-13 0 -26 5q-8 -42 -52 -42q-15 0 -24 4v-35
q0 -70 49 -119.5t118 -49.5q68 0 118 50t50 119v160zM217 356q0 -25 24 -25q22 0 22 25v87q0 24 -22 24q-24 0 -24 -24v-87zM140 317q0 -25 24 -25q21 0 21 25v86q0 25 -21 25q-24 0 -24 -25v-86zM86 392q-24 0 -24 -25v-87q0 -24 24 -24q21 0 21 24v87q0 25 -21 25z" />
    <glyph glyph-name="Stop" horiz-adv-x="459" 
d="M375 408q24 0 39 -16t15 -41v-161q-1 -82 -59.5 -141t-140.5 -59q-83 0 -141 59t-58 142v286q0 27 15.5 42t40.5 15q14 0 22 -4q9 43 56 43q16 0 27 -7q14 29 50 29q35 0 49 -30q11 7 29 7q24 0 39 -16t15 -41v-107h2zM397 351q0 25 -22 25q-25 0 -25 -25v-113
q0 -27 -16 -47t-42 -20h-18q-27 0 -27 -35h-33q0 29 16.5 48.5t43.5 19.5h18q25 0 25 34v113q0 33 24 48h-1v116q0 25 -21 25q-24 0 -24 -25v-151h-32v174q0 25 -23 25t-23 -25v-196h-32v174q0 25 -23 25q-22 0 -22 -25v-213h-33v174q0 24 -22 24t-22 -24v-286
q0 -70 48.5 -119.5t117.5 -49.5q68 0 118 50.5t50 118.5v160z" />
    <glyph glyph-name="Helmet" horiz-adv-x="636" 
d="M354 536q102 0 177 -72.5t75 -172.5v-163q0 -57 -74 -97.5t-177 -40.5t-178.5 40.5t-75.5 97.5v32h-37v274q-15 4 -24.5 16.5t-9.5 27.5q0 20 13 33t33 13t32.5 -13t12.5 -33q0 -15 -9.5 -27.5t-24.5 -16.5v-161h14v14q0 102 75 175.5t178 73.5zM353 390q70 0 129.5 -20
t92.5 -53q-13 81 -75.5 135t-145.5 54q-82 0 -144 -53t-76 -132q33 31 91.5 50t127.5 19zM53 478q0 -10 6.5 -16.5t16.5 -6.5t16 6.5t6 16.5t-6 16.5t-16 6.5t-16.5 -6.5t-6.5 -16.5zM577 253q0 42 -66 74.5t-158 32.5q-94 0 -158.5 -34t-64.5 -78v-52q0 -42 66 -75t159 -33
q94 0 158 34.5t64 78.5v52zM101 250h-14v-67h14v67zM577 131q-32 -33 -91.5 -53t-130.5 -20q-73 0 -132.5 20t-92.5 54v-4q0 -44 65.5 -76t159.5 -32t158 32t64 76v3z" />
    <glyph glyph-name="Moon" horiz-adv-x="618" 
d="M309 548q121 0 200 -78t79 -201t-79 -201t-200 -78t-200 78t-79 201t79 201t200 78zM309 21q107 0 174.5 69.5t67.5 178.5t-67.5 178.5t-174.5 69.5q-43 0 -81 -12q66 -26 108 -92.5t42 -143.5t-42.5 -143.5t-107.5 -92.5q38 -12 81 -12z" />
    <glyph glyph-name="Meteor" horiz-adv-x="566" 
d="M461 315q75 -34 75 -129q0 -68 -40 -108t-108 -40q-95 0 -128 74l-212 104l16 31l184 -91q-2 14 -2 24q0 57 29 95l-245 243l24 24l245 -243q37 29 95 29q16 0 24 -1l-90 183l30 15zM387 73q53 0 83.5 30.5t30.5 83.5q0 75 -61 99l-2 -1l-1 2q-18 7 -43 7q-42 0 -70 -20
l77 -77l-23 -24l-77 77q-20 -29 -20 -70q0 -24 8 -45q24 -62 98 -62z" />
    </font>
</defs>
</svg>
