<svg xmlns="http://www.w3.org/2000/svg" width="90" height="95" viewBox="0 0 90 95">
  <path id="_x30_6-Movie_Clapper" d="M24.679,40.164a9.044,9.044,0,0,0-1.456-3.957L92.4,13,88.772,2.072A3.015,3.015,0,0,0,84.955.156L9.7,25.4A3.035,3.035,0,0,0,7.8,29.236l1.781,5.358A9.087,9.087,0,0,0,11.312,49.16V91.968A3.025,3.025,0,0,0,14.329,95H93.666a3.025,3.025,0,0,0,3.017-3.031v-51.8ZM68.773,9.15l9.159-3.072-2.2,8.951L66.569,18.1ZM46.144,16.741l9.16-3.072-2.2,8.95L43.94,25.692ZM15.714,45.864a4.623,4.623,0,1,1,4.6-4.623A4.617,4.617,0,0,1,15.714,45.864Zm7.8-21.532,9.16-3.072-2.2,8.951-9.16,3.073Zm9,26.068H22.857l4.912-7.788h9.656Zm19.112-7.788h9.656L56.37,50.4H46.714Zm-2.37,37.64V59.706L65.54,69.979ZM80.226,50.4H70.57l4.912-7.788h9.656Z" transform="translate(-6.683 0)" fill="rgba(180,180,180,0.35)"/>
</svg>
