<svg xmlns="http://www.w3.org/2000/svg" width="62.324" height="29" viewBox="0 0 62.324 29">
  <g id="Group_9" data-name="Group 9" transform="translate(-1164.855 -28)">
    <path id="_x30_6-Movie_Clapper" d="M11.02,9.634a2.163,2.163,0,0,0-.351-.949L27.342,3.118,26.467.5a.727.727,0,0,0-.92-.459L7.41,6.092a.727.727,0,0,0-.459.92L7.38,8.3A2.174,2.174,0,0,0,7.8,11.792V22.06a.727.727,0,0,0,.727.727H27.646a.727.727,0,0,0,.727-.727V9.634ZM21.647,2.195l2.207-.737L23.323,3.6l-2.207.737ZM16.193,4.015,18.4,3.278,17.87,5.425l-2.207.737ZM8.859,11A1.109,1.109,0,1,1,9.968,9.892,1.11,1.11,0,0,1,8.859,11Zm1.88-5.165L12.947,5.1l-.531,2.147-2.208.737Zm2.169,6.253H10.581l1.184-1.868h2.327Zm4.606-1.868h2.327l-1.184,1.868H16.331Zm-.571,9.029V14.322l3.925,2.464Zm7.464-7.161H22.08l1.184-1.868h2.327Z" transform="translate(1198.805 28.001)" fill="#fafafa"/>
    <g id="Group_8" data-name="Group 8" transform="translate(1164.855 28)">
      <text id="DC" transform="translate(10.145 23)" fill="#fafafa" font-size="22" font-family="gpbMtavruliRegular, r"><tspan x="0" y="0">DC</tspan></text>
      <text id="NAG" transform="translate(8 22) rotate(-90)" fill="#fafafa" font-size="8" font-family="gpbMtavruliRegular, r"><tspan x="0" y="0">NAG</tspan></text>
    </g>
  </g>
</svg>
